<?xml version="1.0" encoding="UTF-8"?>
<svg version="1.1" viewBox="0 0 1600 1557" width="782" height="761" xmlns="http://www.w3.org/2000/svg">
<path transform="translate(691,70)" d="m0 0h11l13 4 8 5 7 7 6 10 5 16 3 13 5-1 33-11 16-7 21-10 12-4 7-1h11l11 3 10 7 7 6 9 12 6 10 8 20 6 16 8 10 14 17 9 12 10 15 9 17 9 27 6 26 8 50 1 8v26l-4 17-7 16-7 12-12 15-12 16-6 9-2 4v12l5 12 3 3 4 1 7-4 10-8 13-11 11-11 8-7 28-28 7-8 13-13 7-8 8-8h2l2-4 33-33h2v-2l8-7 12-11 13-12 14-10 13-6 9-2h12l10 3 12 7 10 9 8 9 8 13 7 15 7 21 4 20 1 8v25l-4 29-6 23-8 20-8 14-11 15-9 11-9 10-8 8-14 11-11 8-17 10-21 9-49 16-20 7-19 10-12 9-15 15-10 15-7 15-8 24-6 29-3 24v22l4 38 5 32 9 52 14 78 9 53 8 47 8 42 8 39 11 55 5 28 2 15v18l-5 20-3 17-4 10-2 2 1 13 2 14v6h42l53 2 23 2 15 3 11 6 4 5 1 3 2 37 1 18v14l-4 5-12 3-57 5-79 5-60 3-114 3-75 1h-185l-66-2-84-5-72-5-5-1-1-2v-32l3-35 2-9 5-5 7-3 21-4 23-3 52-3h13v-24l-4-8-3-11-9-12-5-11-2-9v-27l4-35 5-31 8-63 5-49 6-62-14 7-8 2-8-1-6-3-7-6-9-14-5-11-4-15v-24l4-27 7-31 10-37 12-36 12-29 12-26 10-19 18-34 8-19 10-30 10-36 10-33 13-35 9-21 9-27 4-21v-19l-4-20-17-55-10-35-3-15-1-8v-19l3-22 6-21 6-16 10-19-2-13v-18l4-16 6-8 13-11 2-3v-10l-2-11v-19l4-11 7-9 8-7 7-3 5-1h15l1-2v-10l4-11 8-9 12-6zm45 1163-22 3-15 4-13 5-12 7-15 14-13 15-9 11-9 10-7 7-15 10-11 8-6 7-9 6 1 22h22l64-2 70-1h216l1-7v-11l-9-6-6-9-13-11-10-8-15-14-14-11-15-11-14-10-13-9-14-8-13-5-16-3-20-2-18-1z" fill="#FCDF0D"/>
<path transform="translate(1109,1381)" d="m0 0h48l15 2 2 1 2 8 3 40 3 20v4l-8 2-57 5-79 5-60 3-114 3-75 1h-185l-66-2-84-5-57-4-12-2 1-8 2-12 5-38 1-9 1-6 3-2 12-2 65 2 106 2h223l93-1 78-2 23-1 69-2z" fill="#0F1115"/>
<path transform="translate(790,1173)" d="m0 0h19l13 3 7 5 6 10 5 10 3 12 8 16 5 6 5 5 11 9 11 7 12 6 18 6 16 5 14 2 6 4 3 3v9l16 8 19 6 11 6v2l4 2 4 8 3 5 1 3 4 2-1 6-3 5-3 6 1 4 2 1 16 2 9 2 2 3 1-2h42l53 2 23 2 15 3 11 6 4 5 1 3 2 37 1 18v14l-4 5-4 1-3-15-3-36-2-21-17-2h-48l-69 3-42 1-23 1-78 2-93 1h-223l-106-2-68-2-9 2-2 3-2 12-4 31-2 17-3 11h5v1h-8l-5-1-1-2v-32l3-35 2-9 5-5 7-3 21-4 23-3 52-3h13l1-3h16l18-6 2-4-2-9 1-8 11-22 2-3h2l2-4 5-6h2l2-5 5-10 4-10 8-16 9-14 8-10 7-10 7-12 11-13 5-4 8-4 11-1 12 3 9 1h19l19-4 19-5 42-10 14-3zm-54 60-22 3-15 4-13 5-12 7-15 14-13 15-9 11-9 10-7 7-15 10-11 8-6 7-9 6 1 22h22l64-2 70-1h216l1-7v-11l-9-6-6-9-13-11-10-8-15-14-14-11-15-11-14-10-13-9-14-8-13-5-16-3-20-2-18-1z" fill="#AB8708"/>
<path transform="translate(820,1101)" d="m0 0 13 2v2l6 1 11 8 7 10 4 6-1 2 1 3 4 11 3 16 4 9 8 10 8 7 24 14 19 3h7l7 5v2l4 2 8 5 10 10 5 6 4 2 8 7 10 14 8 11 10 10 11 7 9 6 5 5 3 5 1 13-4 10-2 2 1 13 2 14v12l-2-4-3-3-13-2-10-1-4-4 2-6 3-6 2-3-1-5-5-5-6-12-3-2v-2l-6-2-10-5-16-5-14-7-1-2v-8l-6-5-8-2-11-2-26-8-16-7-10-7-11-8-5-5v-2l-3-1-7-9-6-13-4-15-8-14-5-5-6-3-10-2h-19l-20 3-15 4-24 6-21 5-17 4-6 1h-19l-9-1-13-3-10 1-11 6-8 9-9 13-8 13-7 8-8 12-7 12-7 15-4 10-5 9h-2l-2 4-5 6h-2l-2 4-7 16-3 5-1 8 2 9-3 5-18 6h-17v-18l2-4 1-5 11-4 4-4 1-6 1-10 4-8 8-11 5-10 5-20 7-15 8-11 8-12 7-10 3-3 1-2h2l2-4 8-12 12-17 8-9h2l2-4 8-4 12-3 8 1 13 2h29l14-2 13-5 19-9 14-8 13-8 5-4h2v-2l5-3 2-4 13-9 6-2 13-2 13-1z" fill="#EABD08"/>
<path transform="translate(725,508)" d="m0 0 4 2-3 3 2 5 4 5 2 5 5 3 3 5 5-1 1-3 1-4 5-2v6l-1 2 5 2-1 4h-4l-2 8v4l4 2 1 7v17l-1 9h2l3-11 3-9 3 3-5 20-10 20-7 12-7 17-2 9v9l-6 13v9l4-2v2h2v5l-8 15-4 9-3 13-1 2h-2l-1 12-4 11-2 7-2 5-1 17-3 13-2 7-7 21-4 5-5 5-3 4-2 8-8 15-4 13-4 16-6 18-1 9-8 24-2 12-1 2v17h-1l-1 11-2 5-2 12-2 5v5h-2v9h-2l1 9h-2l1 8-3 4h-3l-1-6-2 6-1 4v10l-2 10-1 9-2 3h-2l-1 3h-2l-2 5-4 6-6 5-16 16-7 8-10 10-7 10-9 25-20 40-8 17v3l-6 5 1-8 1-9h2l-1-4h2l-1-4 2-3v-4h2l1-7 8-29 3-10v-5h2l-1-3 3-7 8-30 10-32 3-6 1-9 2-10 7-7 6-10 5-4 6-3 8-17 3-11 1-16 2-4 5-2 4-21 11-33 5-12 5-19 2-16 2-5 2-12 2-6v-6l-6-13-2-9-2-7 1-13 4-22 2-6v-42l3-7 3-1 2-5 3-7 3-9 2-4 1-11v-23l-5-5 1-5 7-3 22-4 12-5 5-5 6-9 3-10v-17l-2-14v-25l1-16-2-6-8-8 1-5 16-9z" fill="#FEF04F"/>
<path transform="translate(790,1173)" d="m0 0h19l13 3 7 5 6 10 5 10 3 12 8 16 5 6 5 5 11 9 11 7 12 6 18 6 16 5 14 2 6 4 3 3v9l16 8 19 6 11 6v2l4 2 4 8 3 5 1 3 4 2-1 6-3 5-3 6 1 4 2 1 16 2 9 2 2 3 1-2h42l53 2 23 2 15 3 11 6 4 5 1 3 2 37 1 18v14h-1l-4-29-4-37-2-3-12-3h-44l-54 3-11 1-82 2h-10l-6-1v-1l6-1 60-1 10-1 2-7-15 1-43 1-16-1-10-1-1 12-36 2-126 2h-191l-16-1-2-2v-12l-1-11 46-2 40-1 70-1h116l100 1 1-17h34l5-2-2-5-5-4-3-10-5-4-12-3-18-1-11-2-9-4-5-6-5-12-4-7-10-6-24-11-5-3v-2l-4-1-13-12-15-15-6-11-7-18-8-9-9-4-5-2h-19l-16 2-3 1-27 3-29 7-15 3-8 2h-19l-15-3h-13l-8 4-7 7h-2l-1 4-9 12-6 9-8 10-7 9-6 11-4 6-7 14-6 9-9 10-4 4h-2l-2 4-5 8-7 13-1 5 3 9h2l4 6v6l-4 3-22 2-24 1-2-2 3-4h16l18-6 2-4-2-9 1-8 11-22 2-3h2l2-4 5-6h2l2-5 5-10 4-10 8-16 9-14 8-10 7-10 7-12 11-13 5-4 8-4 11-1 12 3 9 1h19l19-4 19-5 42-10 14-3z" fill="#BA940A"/>
<path transform="translate(1016,599)" d="m0 0 6 1 5 2-2 9-5 3-5 5-9 8-8 7-4 11-11 12-9 10-6 8-2 4-2 1-3 6-6 5-1-3-5 7-5 10-12 12-7 3-8 6-1 1-10 2-13 8-6 4-4 2h4l1-2h2l-2 5-6 3h-2l3 3h2l2-3h2l-1 11-5 5-9 2-3 6-4-2-7-14-6-24-4-18-3-16-1-18-4-15v-11l1-12 2-6 1-9 6-11 7-6 5-1 16 4 5 4 11 5v1l-6 1 2 3 14 3-1 3 6 1 10 4 27 2 12-2 11-8 17-14 11-9 10-6z" fill="#EABD08"/>
<path transform="translate(691,70)" d="m0 0h11l13 4 8 5 7 7 6 10 5 16 2 8v7l-9 4-20 9-4 2h-3l-2 4-9 9-8 7-9 7-5 2-3 1-1 4-10 6-7 4-7 3-16 15-12 14-11 13-8 12-2 2h-3l-2-9v-18l4-16 6-8 13-11 2-3v-10l-2-11v-19l4-11 7-9 8-7 7-3 5-1h15l1-2v-10l4-11 8-9 12-6z" fill="#FB6E13"/>
<path transform="translate(737,1358)" d="m0 0h116l100 1v25l-36 2-126 2h-191l-16-1-2-2v-12l-1-11 46-2 40-1z" fill="#AAAFB6"/>
<path transform="translate(788,1157)" d="m0 0h31l11 4 8 5 6 10 9 29 2 8 3 5 7 9 10 9 11 8 16 6 23 4h9l7-1 13 2 10 9 9 9 6 10 5 5 13 10 15 7 5 2 4 8 2 7 9 3 3 9 3 20v12l-2-4-3-3-13-2-10-1-4-4 2-6 3-6 2-3-1-5-5-5-6-12-3-2v-2l-6-2-10-5-16-5-14-7-1-2v-8l-6-5-8-2-11-2-26-8-16-7-10-7-11-8-5-5v-2l-3-1-7-9-6-13-4-15-8-14-5-5-6-3-10-2h-19l-20 3-15 4-24 6-21 5-17 4-6 1h-19l-9-1-13-3-10 1-11 6-8 9-9 13-8 13-7 8-8 12-7 12-7 15-4 10-5 9h-2l-2 4-5 6h-2l-2 4-7 16-3 5-1 8 2 9-3 5-18 6h-17v-8l2-2h17l4-1 3-6 1-9 6-9 4-14 10-14 4-5 8-19 3-8 8-14 8-13h2l2-4 11-17 6-10 6-9 4-7h2l2-4 4-5 8-5 11-1 30 5h13l13-2 17-4 22-7 13-4 20-7z" fill="#CBA409"/>
<path transform="translate(760,1221)" d="m0 0 25 1 14 2 11 4 5 5v5l-13-1-20-2-18-1h-28l-22 3-15 4-13 5-12 7-15 14-12 14-9 11-9 10-8 8-15 10-11 8-6 7-8 5 1 23 1 10v12l1 1 16 1h191l126-2 23-1h13v-12l5-1 6 1 21 1 44-1h9l-1 7-1 1-10 1-60 1v1l92-2 29-2 36-2h44l12 3 3 4 4 37 3 24v7l-5 4h-2l-3-15-3-36-2-21-17-2h-48l-69 3-42 1-23 1-78 2-93 1h-223l-106-2-68-2-9 2-2 3-2 12-4 31-2 17-3 11h5v1h-8l-5-1-1-2v-11l3-18 1-29 1-12 3-6 6-3h19l69 3h51l-21-1-7-3v-5h14l25 1h32l4-2 1-7-7-1-2-5-2-11-3-7 1-7 4-5h2l2-5 10-8 13-8 8-6 7-7 8-7 17-17 9-11 11-13 11-9 10-6 13-3 23-3 15-3 21-3z" fill="#675423"/>
<path transform="translate(780,1200)" d="m0 0h18l13 2 8 4 6 5 9 17 12 15 7 6 1 4 4 2 1 5-7-2-10-7-15-8-14-4 2-1-2-6-5-4-9-3-14-2-25-1-15 1-25 4-16 3-25 4-10 5-8 6-9 8-8 10-12 14-20 20-8 7-6 5-11 7-10 7h-2l-1 3h-2l-2 5h-2l-2 4-2 3 1 8 3 7 1 10 1 3 7 1v7l-5 3h-32l-38-2v-2l6-1 27-1h22l1-1-1-13-6-9-3-3 1-8 8-14 9-10 12-9 8-10h2l2-5 5-6 4-7 10-13 12-17 7-10 4-5h2l2-4 7-11 5-4h9l25 3 19-3 23-5 17-3 6-1 21-1z" fill="#9D7507"/>
<path transform="translate(838,91)" d="m0 0h11l11 3 10 7 7 6 9 12 6 10 8 20 3 9-1 5-16 11h-36l-26-4-18-6-12-6-6-9-3-12-2-6v-11l6-9 19-10 16-7z" fill="#FD4F0D"/>
<path transform="translate(620,322)" d="m0 0 3 2 3 8 2 13 2 3 1 5h1l1 6v18l3-2v10l-2 2v8l4 24 6 13 10 16 8 9v2l4 2 10 6 13 4 5-2h26l32-4 19-4 27-11 10-4 5-1 9-6 11-6h19l6 1-1 5 6-2 8-1 10-2 8-1 2 2-7 7-10 5-8 5-23 10-19 7-40 10-38 8-21 4-8 1h-14l-14-1-18-5-14-6-9-8-6-7v-2h-2l-9-26-5-24-2-16-2-19-3-18-1-34z" fill="#E9BC08"/>
<path transform="translate(684,530)" d="m0 0h10l9 4-4 7-1 5h-2v6l-5 2-4 11v21l4 11 7 17-1 8-5 6-14 8-14 6-18 5-6-1-7-9-4-12-1-5v-18l5-12 7-13 8-12 13-18 7-8 10-7z" fill="#FC6E13"/>
<path transform="translate(954,1371)" d="m0 0 31 2 44-1h9l-1 7-1 1-10 1-60 1v1l92-2 29-2 36-2h44l12 3 3 4 4 37 3 24v7l-5 4h-2l-3-15-3-36-2-21-17-2h-48l-69 3-42 1-23 1-78 2-93 1h-223l-106-2-68-2-9 2-2 3-2 12-4 31-2 17-3 11h5v1h-8l-5-1-1-2v-11l3-18 1-29 1-12 3-6 6-3h19l42 2 1 1 21 1 37 1 71 1 6 1h58l146-1 126-2 23-1h13v-12z" fill="#474337"/>
<path transform="translate(793,157)" d="m0 0 18 8 18 5 21 3h36l13-9 3-1v-2l2 1-7 8-9 8-5 4-1 7v2h2l4 6 14 11 6 5 6 9-1 4-11-6-10-5-23-4-19-3-18-4h-6l-11-3-4-2h-8l-4-2h-21l-22 4-12 4-16 8-9 4-4-1 2-4 10-7 17-9 19-7 23-5 13-5h5v-9l-3-5-8-6z" fill="#EABD08"/>
<path transform="translate(559,1394)" d="m0 0h61l8 1 1 3-39 4-4 1-2 5-2 39-2 9-3 15-1 2 3 1h-16l-45-2v-1l11-1 2-6 2-25 1-11v-10l-1-14-2-5 1-2 14-2z" fill="#464238"/>
<path transform="translate(771,226)" d="m0 0h8l12 3 8 5 7 7 4 9v13l-4 8-10 10-14 8-10 3h-17l-12-5-6-7-4-9v-11l3-9 6-9 9-8 10-5z" fill="#ECE8E6"/>
<path transform="translate(712,245)" d="m0 0h3l1 7-1 14 2 7v9l-3 15-2 2-3 1-2 5-4 4-5-1 1 3-4 4-2 4-1 9-4 2-2 4-4 1v-2l-3 1-3-3-12-6-5-8-3-6 1-5 4-4h2v-9l5-5 4-6 7-9 5-7 2-1 11 1v-9l4-5z" fill="#FEF04F"/>
<path transform="translate(1038,1360)" d="m0 0h42l53 2 23 2 15 3 11 6 4 5 1 3 2 37 1 18v14h-1l-4-29-4-37-2-3-12-3h-44l-54 3-11 1h-19z" fill="#AAAFB6"/>
<path transform="translate(909,248)" d="m0 0 5 1 6 4 6 8 7 16 4 16v11l-2 10-1 2h-2v2l-6 1-6-4-6-7-8-14-4-11-2-11v-8l3-10 4-5z" fill="#ECE8E6"/>
<path transform="translate(489,1366)" d="m0 0h12v16 3h-23l-69-3h-19l-6 3-2 5-1 12-1 29-3 18h-1v-21l3-35 2-9 5-5 7-3 21-4 23-3z" fill="#ABB0B7"/>
<path transform="translate(1069,603)" d="m0 0 5 1-1 3h-3l-1 3-18 6-21 10-14 10-16 16-10 15-7 15-8 24-3 11-2-3-3-11v-15l3-10 10-16 13-14 2-3h2l1-9 14-14 10-6 14-6 23-6z" fill="#EBBF0B"/>
<path transform="translate(954,1371)" d="m0 0 31 2 44-1h9l-1 7-1 1-10 1-60 1v1l92-2 29-2 36-2h44l12 3 3 4 4 37 3 24v7l-2-2-2-6-2-22-1-5-2-30-1-5-11-2-9-1h-33l-54 3-9 1-76 2-62 2h-65v-1l57-1 23-1h13v-12z" fill="#6B5821"/>
<path transform="translate(574,686)" d="m0 0h3l1 5-1 11-4 9-2 1-3 16-5 17-5 13-4 7-10-1-11-2-2-7 4-11 4-5h2v-2l8-6 7-10 8-6 2-7 2-10h2l-1-3h2l-1-4 1-2h2z" fill="#FEF04F"/>
<path transform="translate(539,919)" d="m0 0 3 2 1 5-2 1h3l1 6 1 16v20l-3 14-3 6h-2l-3 5-5 3-3-2v-8l3-18 1-5 1-22 1-5v-8l3-7z" fill="#EABD08"/>
<path transform="translate(691,141)" d="m0 0h11l3 3-10 10-8 7-4 5-4 3-5 2-3 1v2l-7 3-8 5h-3l1-9 5-12 7-8 6-5 10-5z" fill="#101215"/>
<path transform="translate(1126,1378)" d="m0 0h33l13 2 7 2 2 5 2 30 1 8 2 19 2 9-4 3h-2l-3-15-3-36-2-21-17-2h-48l-69 3-42 1-23 1-52 1 2-2 94-3 44-1 28-2z" fill="#464237"/>
<path transform="translate(1016,1361)" d="m0 0h7l12 4v2l3-1 1 1v15l-63 2h-10l-6-1v-1l6-1 60-1 10-1 2-7-15 1-43 1-16-1-10-1-1 6h-1l1-16 6 4 5 2h6l4-2 24-3 16-1z" fill="#AB8708"/>
<path transform="translate(708,77)" d="m0 0 6 1 10 4 3 4 1 6 6 5 3 6 2 1 3 12v9l-2 2-6-1-1-3-4-1v-2l-4-2-5-6-6-4-2-12-4-16z" fill="#FD4F0D"/>
<path transform="translate(681,73)" d="m0 0h3l1 4-5 7 3 12 3 6-2 5h-3l1 5h-2v2l-7 4-4 3h-10l-5-5-4-5 1-1 10-1 1-2v-10l4-11 8-9z" fill="#FD510D"/>
<path transform="translate(475,1386)" d="m0 0h35l71 1 6 1h58l146-1h132v1l-26 1-93 1h-223l-106-2z" fill="#4D4633"/>
<path transform="translate(869,248)" d="m0 0 10 1 2 3 2 6 4 8 1 14-3 9h-13l-6-2-1-3 2-5 1-18-2-6v-5z" fill="#FFF150"/>
<path transform="translate(901,540)" d="m0 0 6 2 3 8h6v4l-5 2h-3v2l13 3 10 1 2 1h10l-1 4h-2v2l-8 7-11 10-5 1-1-4 5-5v-4h-10l-1-7-4-2-2-3-1-5v-10l-4-2v-4z" fill="#FFF150"/>
<path transform="translate(838,91)" d="m0 0h11l8 2v1h-20l-12 4-11 7-22 11h-3l-3 6v9l3 7 2 10 4 8 9 3 16 7 36 6h13l2-1h15l6-5h2v-2l9-6-1 5-16 11h-36l-26-4-18-6-12-6-6-9-3-12-2-6v-11l6-9 19-10 16-7z" fill="#FA7814"/>
<path transform="translate(1026,1389)" d="m0 0h29l3 1v2l-10 2-31 2h-64l-6-2 3-2 4-1 18-1z" fill="#464238"/>
<path transform="translate(665,473)" d="m0 0 4 1 13 6 9 2 9 1h32l30-4 6-1 3 2-21 5-23 4-5 1h-22l-16-3-10-4-9-7z" fill="#CBA409"/>
<path transform="translate(601,524)" d="m0 0 2 3 2 7v7 1 6l-4 10-5 4-2 2-4 1-1 3h-2l-1 5-4-4 3-9 8-19 5-15z" fill="#FDE115"/>
<path transform="translate(807,186)" d="m0 0h14l15 2 20 6 8 4 2 3-1 1h-10l-19-5-20-4-12-3v-3z" fill="#CBA409"/>
<path transform="translate(559,1394)" d="m0 0h61l8 1 1 3-17 2h-64v-3h9v-2z" fill="#464238"/>
<path transform="translate(682,132)" d="m0 0h6l5 4 12 3 1 2h-19l-14 5-9 7-6 7-4 9-3 13-3 4 1-7 3-17 4-9 7-8 14-10z" fill="#FD4F0D"/>
<path transform="translate(1123,1377)" d="m0 0h44l12 3 3 4 4 37 3 24v7l-2-2-2-6-2-22-1-5-2-30-1-5-11-2-9-1h-33l-54 3h-14v-1l29-2z" fill="#7A621B"/>
<path transform="translate(657,224)" d="m0 0 2 1-3 4h-2v2h-2v2h-2l-2 4-7 10-7 11h-2l-2 6-11 18-7 11-4 3-1-4 4-8 2-3h2l2-5 7-11 10-16 9-11 9-10z" fill="#FFF150"/>
<path transform="translate(687,528)" d="m0 0h7l9 4 2 6-2 6-8 12-4 7-3 11v8l2 10 3 3 5 14 1 4v7l-2 2v-8l-8-20-3-8v-21l4-11 2-2h4v-6h2l1-7 3-5-8-3h-13l2-2z" fill="#EABD08"/>
<path transform="translate(1e3 1368)" d="m0 0h27l7 1 2 3-14 1-43 1-16-1-9-2v-2l7 1h15z" fill="#9D7507"/>
<path transform="translate(961,1348)" d="m0 0 9 1 12 3 2 3-3 3-9 3-4 3h-4v-2l-3-1-4-9z" fill="#CBA409"/>
<path transform="translate(796,157)" d="m0 0 7 1 10 5 7 3 36 6h13l2-1h15l6-5h2v-2l9-6-1 5-16 11h-36l-26-4-18-6-10-5z" fill="#FC6E13"/>
<path transform="translate(390,1381)" d="m0 0h19l18 1v1l-35 1-5 3-2 4-2 37-1 10-2 2-2 7-1-4 2-12 1-29 1-12 3-6z" fill="#715C1E"/>
<path transform="translate(687,140)" d="m0 0h17l3 2-2 4-9 9-8 7h-3l8-8 8-7 3-4-2-1h-11l-9 2-12 6-9 9-5 11-3 12 10-5 4-3 4 1-5 4-9 5-4 2h-4l4-17 6-12 8-8 9-5z" fill="#6B5721"/>
<path transform="translate(603,197)" d="m0 0h2l-1 8-5 16-1 6-1 7-2 3-3-1v-18l1-4h2l1-7 5-8z" fill="#FD530D"/>
<path transform="translate(1030,1374)" d="m0 0h6v2l-2 1-18 1h-60l-1-3h43z" fill="#464238"/>
<path transform="translate(883,453)" d="m0 0 1 3-11 9h-2v2l-4 1v2l-6 4h-2v2l-9 7-5 5-4 3 1-4 7-8 12-11 2-3 5-3 12-8z" fill="#FFF150"/>
<path transform="translate(815,225)" d="m0 0 5 1 5 5 7 4 4 6 1 5-1 1h-9l-4-6-1-8-6-3z" fill="#FFF150"/>
<path transform="translate(519,769)" d="m0 0 1 2-2 6-4 2-6 7-4 4-6 13-3-1-3 11-2 2 1-11 5-8h2l1-4 7-14 6-2 2-5z" fill="#FFF150"/>
<path transform="translate(557,1396)" d="m0 0h46l2 2-3 1-20 1h-34v-3z" fill="#655324"/>
<path transform="translate(908,247)" d="m0 0 7 1 6 4 6 8 6 12 4 11 2 9v11l-1 9-4 6-4 3-6-1-8-7 1-2 7 6 6 1h2v-2h2l2-12v-11l-4-16-7-16-6-8-7-4-5 1-4 6-1-3 4-5z" fill="#FFF150"/>
<path transform="translate(489,804)" d="m0 0h2l-1 14h-2v7l-5 11-4 4-4 1 3-10 10-25z" fill="#FDE218"/>
<path transform="translate(1161,310)" d="m0 0 4 2 1 3-4 6-10 10h-5l2-7 5-10 3-1 2-2z" fill="#FEEF4B"/>
<path transform="translate(510,1378)" d="m0 0h25l31 1 14-1-1 4-4 1-18-1h-12l-30-2-5-1z" fill="#464238"/>
<path transform="translate(736,129)" d="m0 0 4 1-20 9-10 6-12 11-13 11h-3l-1 3-4 3-6 1v-2l4-3 5-2 11-8 15-15 1-2 20-9z" fill="#EABD08"/>
<path transform="translate(627,121)" d="m0 0h1v8l-7 18-3 5-2-1 1-11 2-8 6-9z" fill="#FE4F0D"/>
<path transform="translate(618,477)" d="m0 0 10 1 2 1 1 11-5 1-4-2-5-5-2-4z" fill="#FFF150"/>
<path transform="translate(699,192)" d="m0 0h2l-2 4-10 9h-2v2l-7 6h-2v2h-3v2l-9 3 2-4 16-12 4-2v-2z" fill="#FFF150"/>
<path transform="translate(740,245)" d="m0 0 1 4-2 5-1 12 1 8 2 5v3l-4-2-4-9v-11l3-9z" fill="#FCFBFB"/>
<path transform="translate(380,1393)" d="m0 0h1l-1 38-3 18h-1v-21l3-34z" fill="#AAAFB6"/>
<path transform="translate(500,1147)" d="m0 0h1l1 11v9l-3 21-3 7-1-4 2-21 2-16z" fill="#FFF150"/>
<path transform="translate(756,624)" d="m0 0h2v7l-5 27-4 13-5 13-4 4v-4l5-10 4-11 4-18z" fill="#FFF150"/>
<path transform="translate(450,958)" d="m0 0 2 4 1 11 3-3 3 8 4 7 2 1v2h-2l-1 5-6-12-9-7 2-1v-13z" fill="#FFF150"/>
<path transform="translate(1182,1407)" d="m0 0h2l3 19 2 19v7l-2-2-2-6-2-22-1-5z" fill="#78621E"/>
<path transform="translate(468,952)" d="m0 0 2 1 1 10-2 4-4 4-3-1v-2l-2-1v-6l5-5z" fill="#FFF150"/>
<path transform="translate(661,155)" d="m0 0h2l-2 4-5 11-3 12 10-5 4-3 4 1-5 4-9 5-4 2h-4l4-17 6-12z" fill="#6D5820"/>
<path transform="translate(1e3 645)" d="m0 0 2 1-8 9-9 14-8 18-1 3-2-1 6-16 8-16 4-6 4-1v-2z" fill="#FEF054"/>
<path transform="translate(593,262)" d="m0 0h2v8l-4 6-3 2-3 6-3 1v2h-2l2-6 5-8 4-5z" fill="#FFF150"/>
<path transform="translate(1239,394)" d="m0 0h1l1 8v25h-1l-1-21h-5l-1-1v-6l4-1 2 1z" fill="#FFF150"/>
<path transform="translate(653,185)" d="m0 0 3 1-11 6-23 23v-3l15-16 12-10z" fill="#F0C809"/>
<path transform="translate(933,1319)" d="m0 0 9 2 5 4 1 5-3 1-3-2v-2l-4-1-4-3z" fill="#9E7607"/>
<path transform="translate(736,689)" d="m0 0 1 2-4 11 1 2-2 16-2 3-1-13 1-7 5-13z" fill="#FFF150"/>
<path transform="translate(1206,344)" d="m0 0 6 4 13 13 1 5v8h-1l-3-12-6-7-8-6-4-4z" fill="#FEF04E"/>
<path transform="translate(380,1402)" d="m0 0h1l1 36-2 2-2 7-1-4 2-12z" fill="#967710"/>
<path transform="translate(602,537)" d="m0 0h1l1 5h1v6l-4 10-7 4 2-4 5-9v-10z" fill="#FFF150"/>
<path transform="translate(952,355)" d="m0 0 4 1-1 14-2 5h-1l-1-9z" fill="#EABD08"/>
<path transform="translate(692,158)" d="m0 0 2 1-9 8h-3l-1 3-4 3-6 1v-2l4-3 5-2z" fill="#D9AE08"/>
<path transform="translate(501,1024)" d="m0 0 4 1-12 6-8 2-5-1v-1l9-1 5-4z" fill="#FDF05A"/>
<path transform="translate(459,894)" d="m0 0h2l1 8-2 6-1 4-1 6-2 3-1-2 4-18z" fill="#FFF150"/>
<path transform="translate(459,895)" d="m0 0h1l-1 11-3 13-3 1 3-15z" fill="#FDE31C"/>
<path transform="translate(710,141)" d="m0 0m-3 1 3 1-4 5-10 10-4-1 12-11z" fill="#DBB108"/>
<path transform="translate(380,1439)" d="m0 0h1v7l-3 13-2 1v-11z" fill="#6D5A24"/>
<path transform="translate(602,1104)" d="m0 0 2 3-9 13-4 7-2 1 2-5 5-9 5-8z" fill="#FEF04E"/>
<path transform="translate(705,141)" d="m0 0 2 1-2 4-9 9-8 7h-3l8-8 8-7 3-3z" fill="#7D6218"/>
<path transform="translate(667,174)" d="m0 0 4 1-5 4-9 5-4 2h-4l1-2 6-1v-2l10-6z" fill="#917212"/>
<path transform="translate(487,818)" d="m0 0 1 3-1 6-4 9-4 4-2-1 3-4h2l2-9z" fill="#FFF150"/>
<path transform="translate(584,360)" d="m0 0 4 5 3 6 1 12-2-4-4-11-3-7z" fill="#FFF150"/>
<path transform="translate(902,158)" d="m0 0 1 3-5 5-7 5-2-1 5-6z" fill="#FB6F12"/>
<path transform="translate(676,144)" d="m0 0 4 1-10 5-7 6v-3l7-6z" fill="#615126"/>
<path transform="translate(1085,602)" d="m0 0h2v2l-15 5h-2v-2l9-4z" fill="#FFF150"/>
<path transform="translate(505,1094)" d="m0 0h1v9l-4 4v-9h2z" fill="#FFF150"/>
<path transform="translate(1033,1332)" d="m0 0 2 2 2 15h-2l-2-7z" fill="#EBC10E"/>
<path transform="translate(465,876)" d="m0 0 2 1-2 9-3 4-1-4z" fill="#FEEA38"/>
<path transform="translate(562,763)" d="m0 0 2 1-1 1 2 2-3 2-8 1-1-2 8-4z" fill="#FFF150"/>
<path transform="translate(498,1134)" d="m0 0 4 3v5l-2 1v-3l-4 2v-7z" fill="#FEEF4B"/>
<path transform="translate(535,768)" d="m0 0 12 2v2l-7 1-4-1z" fill="#FFF150"/>
<path transform="translate(650,681)" d="m0 0 2 4 2 3v7l-2 5-1-3 1-5-2-4z" fill="#FFF150"/>
<path transform="translate(631,483)" d="m0 0 2 3 2 7v2l-6-1-2-3 4 1 1-3z" fill="#FFF150"/>
<path transform="translate(1182,1407)" d="m0 0h2l1 4v7l-3-1z" fill="#76601D"/>
<path transform="translate(591,563)" d="m0 0 2 1-3 1-1 3h-2l-1 5-2-2 1-4 1-2z" fill="#FFF150"/>
<path transform="translate(605,451)" d="m0 0h1l2 13 2 4-4-1-1-3z" fill="#FFF150"/>
<path transform="translate(679,168)" d="m0 0 3 1-5 4-6 1v-2l4-3z" fill="#B5900E"/>
<path transform="translate(494,1026)" d="m0 0m-1 1m-1 1 4 2-11 3-5-1v-1l9-1z" fill="#F9EE7E"/>
<path transform="translate(591,1008)" d="m0 0 2 1-2 4-7-1-1-2 7-1z" fill="#FFF150"/>
<path transform="translate(653,185)" d="m0 0 3 1-11 6h-3l7-6z" fill="#E6BA08"/>
</svg>
