<?xml version="1.0" encoding="UTF-8"?>
<svg version="1.1" viewBox="0 0 1351 1600" width="621" height="735" xmlns="http://www.w3.org/2000/svg">
<path transform="translate(689,96)" d="m0 0h30l27 3 19 5 15 5 18 8 15 9 14 11 14 12 11 11 7 8 8 9 4-1 5-7 4-12 5-23 4-10 4-3h11l5 3 4 5 2 5 2 14 1 15v45l-3 35-6 42-6 28-6 22-9 27-9 20-9 16-12 16-7 9 5 5 30 23 8 7 6 9 4 13v7l-3 5-3 3 7 8 20 26 16 24 12 19 8 13 12 19 34 51 12 19 11 20 4 12 1 6v14l-4 18-8 16-8 9-12 9-12 6-4 1h-8l-13-3-23-12-22-13-26-15-25-13-3-1-4 21-6 36-4 33-1 23v18l2 29 4 38 8 48 7 36 13 74 6 25 16 40 11 29 6 19 5 20 5 41 3 35 5 68v21h21l45 1 24 2 14 3 12 5 4 6 4 57v17l-3 3-5 2-26 3-39 3-60 4-7 1-78 3-126 4h-274l-25-1-4-1-97-5-35-3-34-2-4-2v-19l2-37 2-20 4-5 9-4 32-6 10-1 51-2 17-1 4-1h20l-10-30-6-28-3-23-1-15v-33l3-24 3-15 8-30 11-32 11-29 3-19-1-13-2-24-11-10-11-9-28-24-10-9-11-9-15-13-11-9-10-9-14-11-12-11-11-9-13-11-11-9-10-9-17-13-4-6-1-3v-9l4-6 5-5 4-1 2-4 5-5h2v-2h4v-5l6-1 1-5h2v2h2l2-7h3l1-2h2l1-5 4-2v-3l6-1 1-5h3l3-7h5v-5l4-1 4-6h2l4-6h3l2-5 10-10 3-4h2l2-5 6-7 10-15 8-16 8-19 9-27 11-41 4-16-19 1h-27l-15-3-12-5-10-7-8-9-6-12-2-10v-21l4-13 6-11 5-6 10-10 5-3 2-4 4-2 3-4 1 1 3-4h3l2-3h2l1-2 2 1-1-3h2l1-3 4-1 1-3 5-2 3-5h4v-4h3l1-2h2l1-5h2l1 2 2-4 3-2 2 1v-5l4-1 9-8 3-3h2l2-4 13-13h2l2-4 9-11 11-14 9-10 8-10 9-11 9-10 7-8 10-11 6-8 8-7 12-10-2-11v-28l-1-13v-24l-1-21-3-20v-16l5-3 6-1h9v-2h2l2-4 4-7h2l5-7 5-4h2v-2l5-4 4-7 1-14 3-6 7-3 7 1 2 4 7-2 5-4 4-3h3l2-4 18-10 16-8 21-8 22-6 13-2zm-332 393m299 721-21 2-20 4-37 9-18 4-10 6-15 11-11 9-11 8-5 5-6 8-6 12-2 7-1 10v11l2 38 1 28 4 1 38-1 21-2 29-1h101l129 1 33 1-1-15-5-34-6-29-6-18-6-10-9-11-10-9-15-11-21-12-25-12-12-4-18-2-43-4z" fill="#FB4905"/>
<path transform="translate(848,1081)" d="m0 0h15l13 5 11 5 6 21 15 37 11 29 6 19 5 20 5 41 3 35 5 68v21h21l45 1 24 2 14 3 12 5 4 6 4 57v17l-3 3-5 2-26 3-39 3-60 4-7 1-78 3-126 4h-274l-25-1-4-1-97-5-35-3-34-2-4-2v-19l2-37 2-20 4-5 9-4 32-6 10-1 51-2 17-1 4-1h20l-10-30-6-28-3-23-1-15v-33l3-24 3-15 8-30 11-32 11-29 3-19 2-3h15l14 2 15 4 21 10 24 16 11 9 5 5 10 8 7 3 3 3 9 3 9-1 11-8 5-4 16-11 19-13 8-8 3-4h2l2-4 11-8 8-4 10-2 10-3 11-1 9 1 15 2h20l6 1h10l14-1 3-1 6-1h7l5 3 5-1 31-11 13-4 20-3zm-192 129-21 2-20 4-37 9-18 4-10 6-15 11-11 9-11 8-5 5-6 8-6 12-2 7-1 10v11l2 38 1 28 4 1 38-1 21-2 29-1h101l129 1 33 1-1-15-5-34-6-29-6-18-6-10-9-11-10-9-15-11-21-12-25-12-12-4-18-2-43-4z" fill="#FC4905"/>
<path transform="translate(689,96)" d="m0 0h30l27 3 19 5 15 5 18 8 15 9 14 11 14 12 11 11 7 8 8 9 4-1 5-7 4-12 5-23 4-10 4-3h11l5 3 4 5 2 5 2 14 1 15v45l-3 35-6 42-6 28-6 22-9 27-9 20-9 16-12 16-7 9 2 4-9 5-10 9-5 1-12 11-4 3h-2v2l-5 2-1 3-5 5-8 3-15 6-10 1-1 2-18 2h-12l-11-1-48-3-27-5-12-5-4-2-1-2-9-3v-2l-5-2-13-9-5-5-11-7 4-1h3l-1-4-9-3-7-3-3-3v-12l1-13 6-2 49-4 27-2 21-1 7-3 3-5v-15l-8-16-7-8-10-6-15-5-6-1h-32l-23 2-16 4-12 6-8 6-16-8-7-3h-28l-2-5-1-6v-28l-1-13v-24l-1-21-3-20v-16l5-3 6-1h9v-2h2l2-4 4-7h2l5-7 5-4h2v-2l5-4 4-7 1-14 3-6 7-3 7 1 2 4 7-2 5-4 4-3h3l2-4 18-10 16-8 21-8 22-6 13-2z" fill="#FC8352"/>
<path transform="translate(851,859)" d="m0 0h1l2 29 4 38 8 48 7 36 13 74 1 7-5-1-13-6-6-2h-15l-7 2-16 2-20 6-19 7-6 3-7-1-3-2h-7l-10 2-16 1h-7l-6-1h-19l-15-2-13-1-15 3-5 2-7 1-10 5-10 8-7 8-8 8-12 8-16 11-10 7-9 7-6 3-9-1-7-3-3-3-7-3-9-7-1-3-4-2-11-9-15-10-13-8-20-9-16-4-10-1h-16l-3-20-1-15-2-3 2-5 4-81 1-23 2-98 7 1 33 7 15 2 36 2 76 1 15 12 19 14 13 8 8 4h14l10-4 18-11 3-3h2v-2l5-3 4-4h2l1-3 7-4 5-5 15-1 57 1 47 2 8-3 7-1-1-3z" fill="#FC8252"/>
<path transform="translate(398,639)" d="m0 0h17l8 2 2 1v21l-1 9-2 32-4 49v13l2 7 5 2 29 4 30 3 20 1h49l7-8 14-13 15-10 7-3 11-5 15-3h32l19 4 14 6 3 4 8-1 13-5 10-4 12-4 6-1h15l11 2 16 8 7 6 3 5 2 1 4 17v2l19-2h18l6 3 4 8 1 4v10l3 24-1 6v30l-2 5-5 1-78 1-40 1-8 4-5 5-4 2-9 9h-3v2l-10 7-9 6-10 5-4 1h-14l-12-6-13-9-21-16-9-7-76-1-36-2-26-4-29-7v40l-1 58-3 64-2 40-2 5-5-2-12-11-11-9-14-12-10-9-11-9-15-13-13-11-14-12-16-13-11-10-11-9-13-11-11-9-10-9-17-13-4-6-1-3v-9l4-6 5-5 4-1 2-4 5-5h2v-2h4v-5l6-1 1-5h2v2h2l2-7h3l1-2h2l1-5 4-2v-3l6-1 1-5h3l3-7h5v-5l4-1 4-6h2l4-6h3l2-5 10-10 3-4h2l2-5 6-7 10-15 8-16 8-19 9-27 11-41 4-15 9-2z" fill="#751008"/>
<path transform="translate(613,328)" d="m0 0h32l12 3 11 4 9 6 8 9 5 11 2 4v15l-3 5-5 3-3 1-35 2-41 3-21 2-5 1-1 16v9l2 2 16 7 2 5h-7l11 7 4 3v2l4 2 6 4 8 5v2l6 1 4 2v2l6 2 10 4 27 5 51 3 8 1h12l18-2 4-2 9-2 9-3 8-4 3-1 4-4 6-5h2v-2l8-6 3-3h2l1-3 7-4 4-2 3-1 2-4 9-6 6 1 30 23 8 7 6 9 4 13v7l-3 5-5 1v2l-6 5-8 2-9 1-8 1-7-2-6-7v-2l-4-2-6-5h-3l-2 6h-6v-2l-4-2-7-7-15-8-8-1-16 7-9 4-10 4-15 2-14 2-11 5-20 4-28 1h-24l-14 4-8 5-7 8-3 1-3-2-7-20v-2h-2l-2-6-36 1v2l-18 3-10 4-1 3v11l3 20 2 31-1 1-1 23h2v-2l4 1 1 4 5 14 2 5 1 4v3l-2 5-7 10-5 3-3 1h-8l-5-5v-2h-2l-2 5-7 9h-2l-2 4-7 8-21 21-15 10-13 4-7-1-2-1v-3h-3l-2-4-2-1-3-9-1-6-5-10-4-4-1 5h-1v-14l-10-2h-17l-20 2-4-1-16 1h-27l-15-3-12-5-10-7-8-9-6-12-2-10v-21l4-13 6-11 5-6 10-10 5-3 2-4 4-2 3-4 1 1 3-4h3l2-3h2l1-2 2 1-1-3h2l1-3 4-1 1-3 5-2 3-5h4v-4h3l1-2h2l1-5h2l1 2 2-4 3-2 2 1v-5l4-1 9-8 3-3h2l2-4 13-13h2l2-4 9-11 11-14 9-10 8-10 9-11 9-10 7-8 10-11 6-8 8-7 12-10 10-1h19l12 5 12 6 8-7 14-6 13-3z" fill="#FB4905"/>
<path transform="translate(495,1354)" d="m0 0h1v32l-2 2 2 12 2 10 33-1h160l4-1-72-1 1-2 231-1v2l18-2 3-1 1-8 20-4 14-4 10 1 11 3 4 2 3-3 1 9 10 1 50-2h46l13 3 2 3 3 28 2 7 1 17v17l-3 3-5 2-26 3-39 3-60 4-7 1-78 3-126 4h-274l-25-1-4-1-97-5-35-3-34-2-4-2v-19l2-37 2-20 4-5 6-3 9 2 23 2 57 3 53 1v-8h1v12h26l8-1v-8l-1-4 4-8 13-7h11l7 3h18l1-4z" fill="#07090C"/>
<path transform="translate(579,489)" d="m0 0h25l3 6 6 24 6 15 3 11 5 8-1 4-2 1 2 10 4 11 9 14 8 11 6 6v2l4 2 8 8 9 7 7 8-2 1v6l-5 7 1 6 6 15 3 4 3 12 4 12v3l-2 5-7 3-8 4-7 2-6 3h-2v2l-6 3-7 4-9 1v2l-7 3-9 5-4 2h-3v2l-9 2-12 6-7 3-14 10-15 14-4 5h-49l-20-1-47-5-15-3-4-3-1-6v-13l5-60 1-21 3-22 7 6 4 9 3 12v3l3 1 1 4h3v3l9 1 13-4 12-8 10-9 19-19 4-6h2l2-4 7-10h2v2l4 2 1 3 11-2 5-3 9-14-2-1 1-5-2-4-4-9-1-7-2-1 1-3-4-1v2h-2l-1-4 1-19 1-2-2-30-3-20v-11l3-5 13-4 14-1v-2z" fill="#FC8251"/>
<path transform="translate(743,1119)" d="m0 0 1 2 4 1-2 4-4 4h-2l-2 5-5 9-4 10v49l-3 12-22-1-30-3h-18l-21 2-20 4-37 9-18 4-10 6-15 11-11 9-9 7h-2l-1 3-5 5-4 5-6 12-2 7-1 10v11l1 16v49l-2 4-2 1h-16l-7-3h-11l-13 7-3 9 1 3v8l-9 1h-26l-1-5h-53l-57-3-23-2-6-2v-2l32-6 10-1 51-2 17-1 4-1h20l5 3v3l4 2 1 7 5 1 6-9 4-1 2-4 5-8 5-16v-19l9-37 6-25 8-16 5-19 7-14 14-21 8-11 2-3h2l2-5 13-15 16-14 4 1 3 5 1 1v-5l5 3v2l4 2 3 2v2l4 2 7 11 3 3v2l5 2 2 1v2l10-1 15-8 10-6 8-6 5-5 3-2 3-5 6-4 5-5 22-12 15-6 14-1 4-1h11l10-5 8-6 15-7z" fill="#C44A22"/>
<path transform="translate(628,750)" d="m0 0h25l15 4 14 9 4 4h6l8-4 20-8 9-3 15-2h14l16 7 7 6 3 5 2 1 4 14-1 9-7 11-6 5-7 8-9 9h-2l-1 3-11 9-10 9-14 11-15 11-17 11-19 12-9 5-10 5h-11l-10-4v-2l-5-2-14-11-13-11-10-8-12-11-9-11-7-10-5-13-1-4v-11l4-10 8-10 7-7 15-10 17-9 10-4z" fill="#B57938"/>
<path transform="translate(890,1243)" d="m0 0 6 2v2h2v2l3 1v2h2l10 12 5 1 4-1 2-6 3-5 5 2 3 3 3 35 5 68v21h21l45 1 24 2 14 3 12 5 4 6 2 26v9l-2-2-3-28-1-2-13-3h-46l-56 2-5-2-1-7-2 3-1-2-10-3-12-2-10 2-9 3-17 2-1 8-3 2-7 1h-11v-2l-6 1-225 1-1 1h74l21 1v1l-27 1h-193l-3-10-2-12 2-2 1-4 42-1 21-2 29-1h101l129 1 23 1 10 1-3-22-1-31 1-9v-8l6-15 1-2 7 1 4 6-1 5-7 6-1 7 1 1 3 14 4 12 4 7h4l2-10-1-20-2-8v-4h-2l-2-5 1-6v-22l-1-9 4-7h2l2-6z" fill="#E42B01"/>
<path transform="translate(422,1105)" d="m0 0h15l14 2 15 4 21 10 24 16 11 9 5 5 3 4 6 7 4 4-1 7h-2l-3-5v-2l-5 1-9 8-8 7-10 12-3 5h-2l-2 4-14 20-9 15-5 10-5 19-5 10-4 10-6 25-8 33v19l-5 16-6 9-4 4h-2l-2 5-4 5-5-1-1-5-2-4-2-1-1-3-4-2-4-13-6-18-6-28-3-23-1-15v-33l3-24 3-15 8-30 11-32 11-29 3-19z" fill="#FC4905"/>
<path transform="translate(495,1354)" d="m0 0h1v32l-2 2 2 12 2 10 33-1h160l4-1-72-1 1-2 231-1-1 2-48 1-1 2-35 1-57 1-29 1v3l-119 1-20 1-9 2-14 1h-18l-24 2-8 2v8l-1 5v18l-1 10v18l-1 11 1 2h-21l-25-1-4-1-97-5-35-3-34-2-4-2v-19l2-37 2-20 4-5 6-3 9 2 23 2 57 3 53 1v-8h1v12h26l8-1v-8l-1-4 4-8 13-7h11l7 3h18l1-4z" fill="#131417"/>
<path transform="translate(910,1387)" d="m0 0 11 1 11 3 4 2 3-3 1 9 10 1 50-2h46l13 3 2 3 3 28 2 7 1 17v17l-3 3-5 2-26 3-39 3-60 4-7 1-51 2h-18l-2-2 3-1-2-8 1-6-1-4h-2l-1-6v-3l-4-8-2-1v-2h-2l-1-2v-6l2-3h2l-3-5v-5l-4-2-4-3-20-4-22-4-2-2v-3l-24-1v-1h35l1-3 60-1 7-1 3-1 1-8 20-4z" fill="#101317"/>
<path transform="translate(526,339)" d="m0 0 12 1-2 1v3h5l5 4-1 4-4 2h-7l-3-1-1 2-2 1 1 9 3 5 1 7-1 2h-2l-1 4-2 3-2 7-4 1-1 5 3 16v7h-2l-2 5v2l-8 6-9 11-5 6-14 11-12 9-6 5-7 8-10 10-11 8-14 6-17 5-11 7-10 10-12 16-12 13-16 13-13 13-9 11-8 7-5 4-3-1-7-11-4-5-5-3-3-6-1-5v-16l2-4 8-7 7-5 2-4 7-4 5-5 5-4 15-9 6-4 12-6 9-6 4-5 17-11 5-4 10-6 9-9 16-9 22-18 6-8h2l2-5 10-13 5-12 6-17 6-13 5-15 5-3 5-5 3-1 1-4 5-3z" fill="#FF5F00"/>
<path transform="translate(739,740)" d="m0 0h15l11 2 16 8 7 6 3 5 2 1 4 17v2l19-2h18l6 3 4 8 1 4v10l3 24-1 6v30l-2 5-5 1-78 1-40 1-8 4-5 5-4 2-9 9h-3v2l-10 7-9 6-10 5-4 1h-14l-12-6-13-9-21-16-9-7-48-1-12-1-1-2 13-2 2-2-1-4-1-8 5-8 4-6h4l2-7 4-2 11 14 9 10 8 7 17 14 11 9 13 9v2l5 1 5 2h11l16-8 19-12 27-18 13-10 13-11 14-12 10-9 10-10 4-5 5-5 5-8 1-9-3-10v-4l-3-1-6-8-16-8-3-1h-14l-15 2-17 6-19 8-1 1h-6l-1-3-4-2-13-8-15-4h-25l-15 4-7 3-19 10-4 1-1-5 3-7 4-5 7-3 11-5 15-3h32l19 4 14 6 3 4 8-1 13-5 10-4 12-4z" fill="#511B1A"/>
<path transform="translate(422,680)" d="m0 0h1v13l-5 60v13l2 7 5 2 29 4 30 3 20 1h49l7-8 14-13 12-8 2 1-3 4-2 7 1 4-12 9-7 7-7 11-2 6v11l6 18-3 2-3 7h-4l-2 4-5 9-1 5 2 5-1 4-2 2-10 1-2 1 12 1v1h-28l-36-2-26-4-29-7v40l-1 58-3 64-2 40-2 5-4-2 2-1 1-12 1-37 1-9 2-54 1-14 1-28v-80l-2-33v-22h-2l-1-4v-28l1-20 1-1 2-28z" fill="#A02A25"/>
<path transform="translate(611,755)" d="m0 0 11 1 12 3 3 3h2l4 4 2 9-1 10-1 2v12l4 14 2 6v6l1 6 1 12 4 2 1 7h2l3 11v18l1 2h-3v3h-3v2h7l1-2 8-3 7-5h2l1-3 7-5h2v-2h2v-2l16-8 10-7 5-3 7-8 10-7h2v-2l9-4h3l-2 4-15 13-13 11-18 13-17 11-19 12-9 5-10 5h-11l-10-4v-2l-5-2-14-11-13-11-10-8-12-11-9-11-7-10-5-13-1-4v-11l4-10 8-10 7-7 15-10 17-9z" fill="#CB8946"/>
<path transform="translate(850,427)" d="m0 0 6 1 30 23 8 7 6 9 4 13v7l-3 5-5 1v2l-6 5-8 2-9 1-8 1-7-2-6-7v-2l-4-2-6-5h-3l-2 6h-6v-2l-4-2-7-7-15-8-8-1-16 7-9 4-10 4-15 2-14 2-11 5-20 4-28 1h-24l-14 4-8 5-7 8-3 1-3-2-7-20v-2h-2l-2-6-25 1-18 1 2-4 8-15 4-21 2-7 1-13h4l16 9 8 6v2l4 2 6 4 8 5v2l6 1 4 2v2l6 2 10 4 27 5 51 3 8 1h12l18-2 4-2 9-2 9-3 8-4 3-1 4-4 6-5h2v-2l8-6 3-3h2l1-3 7-4 4-2 3-1 2-4z" fill="#F03501"/>
<path transform="translate(588,1378)" d="m0 0h101l129 1 23 1 10 1 5 10v9l-1 4-6 1-225 1-1 1h74l21 1v1l-27 1h-193l-3-10-2-12 2-2 1-4 42-1 21-2z" fill="#A7ADB1"/>
<path transform="translate(709,409)" d="m0 0h15l19 4 14 6 30 7 14 6 13 6 8 1 5-1 8-4 5-4 8-5 5 1-4 3-9 6-5 5-7 3-10 9-5 4h-2v2l-5 2-1 3-5 5-8 3-15 6-10 1-1 2-18 2h-12l-11-1-48-3-27-5-12-5-4-2-1-2-9-3v-2l-5-2-13-9v-3-3h-2l-2-4 3-1 5 3 19 3 16-1 6-1h5v-2l7-1v-2l5-3 2-3h3l1-4 3-1v-2h2l1-3h3v-2l18-6z" fill="#FB4804"/>
<path transform="translate(702,194)" d="m0 0h19l15 4 13 5 12 3 14 1 7 3 5 4-1 5-1 4h-2l-2 5-5 8-3 9-5 14-7 11-7 7-8 4-9 1-5-3 1-3-11 5-4 2-13 1v1h-11l-15-4-16-3-12-1-6-3-2-3v-21l5-18 7-13 5-4 4-5 9-6 9-5 3-2 10-2z" fill="#E32D03"/>
<path transform="translate(495,1411)" d="m0 0h189l1 3-1 1-119 1-20 1-9 2-14 1h-18l-24 2-8 2v8l-1 5v18l-1 10v18l-1 11 1 2h-21l-25-1-4-1-58-3v-1h9l-2-5-1-7-1-3 7-14 5-23 6-11 6-6 11-6 11-1 39-1 12-1z" fill="#15191D"/>
<path transform="translate(538,497)" d="m0 0h2l-1 5v11l3 20 2 31-1 1-1 23h2v-2l4 1 1 4 5 14 2 5 1 4v3l-2 5-7 10-5 3-3 1h-8l-5-5v-2h-2l-2 5-7 9h-2l-2 4-7 8-21 21-3 2h-3l-1-4-3-1v-2l-4-2-3-4-4-13-2-11-5-8 6-9h2v-2l9-7 7-10h2v-2h2l2-5 7-8 4-8 9-33 4-12 2-15 4-13 2-5 6-4 5-2h8z" fill="#D62901"/>
<path transform="translate(677,1097)" d="m0 0 14 1 14 2h20l6 1h10l14-1 3-1 6-1h7l5 3 3 2-5 5-8 4-16 2-8 4h-2v2l-19 8-6 5-6 4-7 3h-11l-9 1-12 2-18 8-18 10-5 6-5 3-2 4-5 2-2 4-4 4-15 9-15 8h-10v-2l-5-2-3-3v-2l-4-2-3-6-2-2-5-6-6-4-3-3-3-5-8-8 3-1 5 4 7 3 3 3 9 3 9-1 11-8 5-4 16-11 19-13 8-8 3-4h2l2-4 11-8 8-4 10-2 10-3z" fill="#E75C2D"/>
<path transform="translate(893,121)" d="m0 0h11l5 3 4 5 2 5 2 14 1 15v45l-3 35-6 42-6 28-6 22-7 1-18-1-7-3-4-4v-3h-2l-3-11-1-5-1-10 2-11 3-12 4-6 6-7 12-1h13l2-4-2-18-3-9-3-7-4-11-15-30-1-4 8-10 4-12 5-23 4-10z" fill="#B71F02"/>
<path transform="translate(532,1173)" d="m0 0 5 1 6 12 3 11 3 8 6 22 1 5-19 13-14 12-8 6h-2l-1 3-5 5-4 5-6 12-2 7-1 10v11l1 16v49l-2 4-2 1h-16l-7-3h-11l-13 7-3 9 1 3v8l-9 1h-26l-1-4 2 2 21 1 2-15 7-13 7-15 4-11 2-11 4-11 4-6 2-2h12l4-3 1-8-4-9-1-11 2-13 8-17 4-7 7-11 6-12 1-7-2-5v-8l5-10 14-17 8-10h2l1-3z" fill="#AF1F03"/>
<path transform="translate(691,178)" d="m0 0h24l31 6 17 4 6 1h21l36-4 6 2-1 5-4 6-5 5-20 18-7 10-6 14-8 21-3 6-7 9-7 7-16 8-7 2-8 1h-26l-33-5-17-2-17-1-4-1-3-12-1-5v-24l3-16 6-15 8-13h2l1-4 8-8 13-9 14-5zm11 16-10 1-9 3-7 5-9 5-6 5-4 5-4 4-6 13-4 15v21l3 4 5 2 18 2 23 5 2 1h11v-1l13-1 15-7-1 3 5 3 9-1 8-4 8-8 7-12 7-21 6-10 1-3h2l2-5-1-5-7-5-4-1-14-1-12-3-16-6-13-3z" fill="#B71F02"/>
<path transform="translate(774,1107)" d="m0 0 2 1-5 9 2 21 2 16 3 10 2 11 9 18v3h2l4 5v2h2l3 4v2h2l3 5 3 3 5 16 4 8 5 13 1 9h-2l-1 2-7-4-10-9-15-10-22-12-22-10-9-3-9-2 2-14v-48l6-13 6-10 7-6 1-2-5-2h-3v-2l10-5 8-1 10-2z" fill="#E42B01"/>
<path transform="translate(530,1165)" d="m0 0 4 1 3 5v2l2 1 1 5-3-3-1-2-5 1-5 4-9 11-12 15-5 10v9l2 4-1 7-6 12-7 11-6 11-7 16-1 12 2 12 3 6-1 8-5 4h-12l-4 5-4 9-2 7-2 12-8 17-3 7-6 11-2 12-1 3h-21l-2-4h-53l-57-3-23-2-6-2v-2l32-6 10-1 51-2 17-1 4-1h20l5 3v3l4 2 1 7 5 1 6-9 4-1 2-4 5-8 5-16v-19l9-37 6-25 8-16 5-19 7-14 14-21 8-11 2-3h2l2-5 13-15 8-7z" fill="#C22001"/>
<path transform="translate(520,1149)" d="m0 0 9 6 11 11-1 7h-2l-3-5v-2l-5 1-9 8-8 7-10 12-3 5h-2l-2 4-14 20-9 15-5 10-5 19-5 10-4 10-6 25-8 33v19l-5 16-6 9-4 4h-2l-2 5-4 5-5-1-1-5-2-4-2-1-1-3-4-2-2-8 1-7 3-4 6-7 2-3 4-2 1-6 1-1 4-26 3-20 4-21 5-14 10-19 4-5 6-12 6-10 11-18 9-13h2l2-4 9-15h2l2-5h2v-2l5-4 5-5 4-3h2v-2z" fill="#D52901"/>
<path transform="translate(854,1405)" d="m0 0 1 4 57 1 28 1v2h-3v3l-20 3-6 4h-6l-3 11-1 4 7-2 3 5 5 3 2 9-4 5h-2v2h4l4 12-1 1v10l4 1 1 3h10v1l-7 1-51 2h-18l-2-2 3-1-2-8 1-6-1-4h-2l-1-6v-3l-4-8-2-1v-2h-2l-1-2v-6l2-3h2l-3-5v-5l-4-2-4-3-20-4-22-4-2-2v-3l-24-1v-1h35l1-3z" fill="#15191D"/>
<path transform="translate(713,1410)" d="m0 0h84l-3 1 2 4 27 5 15 3 8 6 2 6 1 4h-2l-1 9v2h2v2l3 1 4 8v3 6h2l2 5-1 7 2 6-2 3-9 1-91 3h-30v-1l17-1 7-4 1-2h5l3-2 5-1 3-3 1-5 5-1 1-6 4-2 2-4 4-10 5-6 3-6 5-8 5-2 1-6-5-3-11-4-16-3-7-1-3-2-50-1z" fill="#111417"/>
<path transform="translate(386,640)" d="m0 0h6l-4 2 1 1-1 7-4 10-3 10-4 10-2 12-4 10-5 16-4 17-2 12-4 11-4 9-9 16-8 11-18 22-18 21h-2l-2 4-8 8-14 16-5 5-8 9-7 6-4 5-5 3-5 5-5 6h-2v2h-2l-1 4-4-2-5-4-3-7v-9l4-6 5-5 4-1 2-4 5-5h2v-2h4v-5l6-1 1-5h2v2h2l2-7h3l1-2h2l1-5 4-2v-3l6-1 1-5h3l3-7h5v-5l4-1 4-6h2l4-6h3l2-5 10-10 3-4h2l2-5 6-7 10-15 8-16 8-19 9-27 11-41 4-15z" fill="#9D392D"/>
<path transform="translate(539,182)" d="m0 0h11l10 5 8 10 11 27 4 20 1 8v22h-1l-2-25-2-18h-2l-3-6-1-1-2 4-3-5v-3l-2 2 1 17v18l-4 16-4 6-8 6-6 3-5 5-13 3-6-1v-2l-7-2-4-6-1-5-1-41-1-14 4-5 22-14 3-1v-2l7-3-10 2 3-3 7-3h10l6 4 3 3 1 4 3 2 2 6 2-2-5-13-7-10-6-3-1-2h-15l-10 2v2l-6 2 3-5h2l1-2z" fill="#FB4804"/>
<path transform="translate(840,485)" d="m0 0 5 2 7 6 6 8 7 5 5 1 7-1 1 1 1 21v25l-3 21-5 20-6 30-2 3-4-1-21-10-26-13 1-4 8-11 6-10 7-17 5-15 3-14 1-11v-15l-3-16z" fill="#FD8352"/>
<path transform="translate(293,1411)" d="m0 0h76l95 1v1l-12 1-41 1-19 2-9 5-5 4h-2v2l-4 2-2 4-5 3-7 14-3 16-4 4h-2l-1 3-14 6-8 4h-13l-6-4-8-9-2-5-1-19-4-19-1-14z" fill="#07090C"/>
<path transform="translate(586,754)" d="m0 0 2 1-3 4-2 7 1 4-12 9-7 7-7 11-2 6v11l6 18-3 2-3 7h-4l-2 4-5 9-1 5 2 5-1 4-2 2-10 1-2 1 12 1v1h-28l-36-2-26-4-13-3-1-3 10-1 7 1 10-1v-2h6l2-1 8 3 5 5 9 1 11 1h8l5-1-3-8 3-15-1-8-2-9h-2l-2-6h2l-4-11-2-6h-3l1-4h-5l-4-3-6-2-9-4-13-5-9-4v-1h14l9 1 20 1h49l7-8 14-13z" fill="#8C2A25"/>
<path transform="translate(705,206)" d="m0 0h12l15 6 9 6 6 7 3 11v14l-7 14-9 10-9 6-6 2h-19l-10-4-8-8-7-10-4-10v-14l4-10 7-8 11-8 7-3z" fill="#F4CBCA"/>
<path transform="translate(413,694)" d="m0 0 2 1 1 5v12l-1 11v30l1 24 4 36 1 19v28h-2l-3-10-2-14-2-9-5-8v-2h-2v-2l-3-1-4-8-7-9-6-3-3-7h-6l-3-8-4-10h-5l1-4v-11l6-17 7-16 7-7 6-3 9-7 5-6z" fill="#630E06"/>
<path transform="translate(536,184)" d="m0 0h15l1 3 6 2 7 9 5 11 1 5-3 1-3-6-3-2-2-5-5-4-2-1h-10l-6 3 10-1-4 2-7 2v2l-16 10-10 7-2 3 1 14 1 41 2 7 3 4 6 2v2l11-1 8-2 4-2 1-3 9-5 6-5 4-10 2-10v-24l-1-12 3-1 3 6 3-3 3 6v2h2l3 18 1 10v28l-3 7-4 2v2l-39 14-10 2-11-1-11-6-4-3-2-20v-24l-1-21-3-20v-16l5-3 6-1h9v-2h2l2-4 4-4h3v-2z" fill="#9F1E0B"/>
<path transform="translate(889,560)" d="m0 0 5 1 4 9 4 5v2l3 1 7 11v3l3 1 7 10 4 9 2 9 2 5h2l3 5v3h2l7 10 6 5 3 4v5h-2v2l-7 1-17-4-13-5-15-6-22-8-9-6-2-9h2l-1-6 1-2 1-8 1-13 1-4 2-1 4-14 3-8h2l1-4z" fill="#E42B01"/>
<path transform="translate(901,1329)" d="m0 0 7 1 5 6 7 17 4 15 2 2v3l4 2 2 4 3 1v2l6 2 1-2h22l45 1 24 2 14 3 12 5 4 6 2 26v9l-2-2-3-28-1-2-13-3h-46l-56 2-5-2-1-7-2 3-1-2-10-3-12-2-10 2-9 3-17 2-1 8-3 2-7 1h-11v-15l-2-7 3 3 1 5 21-3 5-5 2-10 1-15 7-19 6-9z" fill="#C22001"/>
<path transform="translate(417,1416)" d="m0 0h54l14 1 2 2-26 4-1 7-1 27-2 22-3 15 16 1v1h-21l-25-1-4-1-20-1v-1h6l-1-7v-14l1-8 1-34 2-9 5-3z" fill="#7E6C5D"/>
<path transform="translate(728,1150)" d="m0 0 2 1-1 6v46l-3 12-22-1-30-3h-18l-21 2-20 4-37 9-18 4-4 1-4-10-5-18-2-6-6-20 1-2 8 10 7 8 2 4 5 12 4 4 6 2h11l13-5 7-2 20-7 10-5 13-4 22-3 3-2 27-4 3-1v-2l6-5h2l1-4h2l2-5 2-3h2v-3h2l2-4 5-4z" fill="#B03E26"/>
<path transform="translate(850,427)" d="m0 0 6 1 30 23 8 7 6 9 4 13v7l-3 5-5 1v2h-6l-16 6-11 1-8-6-5-5-6-9-5-5-6-7-8-17 2-6 10-10h2l2-4z" fill="#751008"/>
<path transform="translate(613,328)" d="m0 0h32l12 3 11 4 9 6 8 9 5 11 2 4v15l-3 5-2 2-15 1-63 1-18 1h-12l-2-4v-3l61-1v-2l24-4 16-1v-8l-4-6-8-6-3-1-1-2-12-2h-48l-23 3-8 5-5 1-2-1-5-9-3-2 2-4 9-6 13-5 19-3z" fill="#781108"/>
<path transform="translate(890,1243)" d="m0 0 6 2v2h2v2l3 1v2h2l10 12 5 1 4-1 2-6 3-5 5 2 3 3 3 35 5 68v13l-2-1-2-6-6-11-2-9-1-5-1-24-1-5v-14l1-3 1-12-4-8-11-2-15-12h-6l-10 5-6 4-1 2v10l2 18v67l-2 6-7-1-3-3-6-1-2 15-2 3h-2l-4-5-3-23-1-31 1-9v-8l6-15 1-2 7 1 4 6-1 5-7 6-1 7 1 1 3 14 4 12 4 7h4l2-10-1-20-2-8v-4h-2l-2-5 1-6v-22l-1-9 4-7h2l2-6z" fill="#F03602"/>
<path transform="translate(698,182)" d="m0 0h9l25 4 11 3 17 3 8 3 10 1h12l8-2 5-1 16-1 2 2 1 2h-2l-2 4-3 1-1 3-10 8-1-2 2-4v-3l-9-1-13 1-4 1h-18l-10-3-13-6-16-4-7-1h-19l-12 3-10 6-5 4-1 2h-2v2h-2l-2 4-8 11-6 13-4 15v21l2 3 5 2 18 2 23 5 9 4 17 2h18l15-4 9-5 6-7 6-9 6-5 3 1-3 9-4 9-10 10-16 8-7 2-8 1h-26l-33-5-17-2-17-1-4-1-2-6v-29l3-18 8-16 8-13 4-5h2v-2l8-7 12-7 13-4z" fill="#771008"/>
<path transform="translate(504,1419)" d="m0 0 10 1-3 1-1 5 2 2 2 14 1 6 1 30 2 8 3 2v2l11 2h8l7 2 12 1v1h-89l-2-2 1-11v-19l1-17v-11l2-12 3-2 16-2z" fill="#14181C"/>
<path transform="translate(893,121)" d="m0 0h11l5 3 4 5 2 5 2 14 1 15v45l-3 35-1 3-5 2-6-18-7-16-8-16-10-17-2-8 1-7 3-9 5-23 4-10z" fill="#751008"/>
<path transform="translate(579,430)" d="m0 0 5 2 14 8 8 6v2l4 2 5 5v2l4 2 5 4 15 7 25 7 16 3 23 2 30 2 2 1v2l-8 2h-44l-34-5-12 1-10 4-12-1-9-3-4-1-6 4-28 3h-7l2-4 8-15 4-21 2-7 1-13z" fill="#660E06"/>
<path transform="translate(732,1114)" d="m0 0h2v2l8-1v3h-2v2l-19 8-6 5-6 4-7 3h-11l-9 1-12 2-18 8-18 10-5 6-5 3-2 4-5 2-2 4-4 4-15 9-15 8h-10v-2l-5-2-3-3v-2l-4-2-3-6-2-2-5-6-6-4v-2l4 1 7 5v2l4 2v2l4 2 2 2 6 1 12-6v-2l5-2 16-13 9-7 12-8 7-3 19-11 8-5 11-4 2-4 1-1 16-2h8l1-2 20-1 8-1z" fill="#D15C2E"/>
<path transform="translate(716,674)" d="m0 0 8 3 8 9 7 14 3 7 4 5 5 9 6 8-2 6-4 1h-14l-19 4-3 2-17 4-4-1-4 1-13-2-6-3-19-3h-18l-1 2-15 3-4-1 7-3 12-7h4v-2l12-3 7-5h3v-2l9-5 9-2 6-4 6-1 5 1v2l10-1 7 3 6 4h10l2-7-2-11-1-8-3-4v-2l-4-2v-5l-4-2z" fill="#E75B2C"/>
<path transform="translate(938,1390)" d="m0 0 1 3 1 6 10 1 50-2h46l13 3 2 3 3 28 2 7 1 17v17l-3 3-5 2-26 3-28 2 1-5 5-4h2v-2l11-3 8-3 2-4 1-12 1-25 1-10-1-7-5-2h-90l-5-8v-3z" fill="#151A1D"/>
<path transform="translate(826,714)" d="m0 0 3 1 2 4 15 5-3 7v5l8 1 1-3 3-3 2-9-3-1 10-4h25l3 4-1 5 1 7 2 4 9 3 10 4 11 5 10 6 11 6 10 7 5 3 15 5h12l11-4 10-4 6-5h3v-3l3-1v-4l6-2-2 5-9 11-12 9-12 6-4 1h-8l-13-3-23-12-22-13-26-15-25-13-3-1-2 4-4-1-5 2 1 10-4 16-6 8h-2l-2-5h-2l-2-9v-9h-3l-10 8-10 4-6 2-1-6h-3l-3-5-2-1v-3l-3 1 2-7 10-14 5-5 9-3z" fill="#FC8252"/>
<path transform="translate(475,789)" d="m0 0 8 1 18 8 6 2-1 4h3l5 11 1 6v2 4h2l4 12v7l-3 14 2 3v4l-7 2h-12l-12-2-4-2-4-3-3-2-5-1-5 1h-7v-2h-4l1-3-13 1-1-2-4 1-8-4h-5l-1-4 4-2 1-2 5-3 2-3 2 3v6l5 3 3-2v5h7l10-6 4-3 8-4 3-7 3-3 2-9v-6l1-1-1-2h-3l-2-9 1-2-5-3-1-3 2-1z" fill="#99332B"/>
<path transform="translate(561,832)" d="m0 0 5 5 8 10 8 9 8 7 17 14 11 9 13 9v2l5 1 5 2h11l16-8 19-12 27-18 9-7 3 1-2 6h-2l-3 11-5 3-5 5-4 2-9 9h-3v2l-10 7-9 6-10 5-4 1h-14l-12-6-13-9-21-16-9-7-48-1-12-1-1-2 13-2 2-2-1-4-1-8 5-8 4-6h4l2-7z" fill="#4A1511"/>
<path transform="translate(861,730)" d="m0 0 4 2-1 11-6 35-4 30-1 10-2 53-12 4-4 1-51-2-65-1 3-2 40-1 83-1 1-8v-29l1-9-2-12-1-8v-9l-3-9-2-3-5-2h-18l-10 1h-9l-2-5-2-14-3-1-6-8-6-4-7-3 3-1 9 2 6 4 6 12 7-1 1-2 6-2 7-3 6-3 4-1 8-7h2l1-2 2-1 1 8v6l1 7h2l2 5 5-5 2-3 4-16v-10z" fill="#E85B2C"/>
<path transform="translate(614,350)" d="m0 0 12 1 7 1 8 1 9-1h9l9 3 9 8 2 4v6l-3 3-16 1-22 4-10 1h-51l-1-1v-19l5-6 8-3z" fill="#FC8251"/>
<path transform="translate(894,518)" d="m0 0h5l4 5v3h2l5 9 1 4 2 1 1 5h2v2h2v2h2l1 6h2l7 14 7 11 3 6 6 8v2h2l9 19 3 5 7 10 3 5 7 8 5 3 4 5 7 6 4 4v2l4 2 2 6-1 4h-8l-6-3-6-4-10-9-4-5-3-3-6-8-9-14-6-10-10-15-3-7-16-24v-2l-4-2-5-6-4-9-5-8v-2l-3-1-1-10v-14z" fill="#FD8352"/>
<path transform="translate(495,1354)" d="m0 0h1v32l-2 2 2 12 2 10 33-1h160l4-1-72-1 1-2 231-1-1 2-48 1-1 2-35 1-57 1h-280v-1l8-1v-8l-1-4 4-8 13-7h11l7 3h18l1-4z" fill="#741008"/>
<path transform="translate(530,499)" d="m0 0 7 3v8l-7 2-5 9-3 10-2 17-2 12-3 17-3 20-4 10-11 18-5 11v5l2-1v4h2l5 7v3l3-2 3 1-18 18-5-1-9-4-3-5-3-13v-7l6-11 14-22 4-5 6-9 4-10 5-21 4-18 2-8 2-12 2-7 3-9 5-6h2z" fill="#E42B01"/>
<path transform="translate(520,1149)" d="m0 0 9 6 11 11-1 2-5-5-8-7-3-2-8 5-14 15-3 5h-2l-2 5-7 10-6 9-12 19-9 15-8 13-11 18-4 7-3 10-2 13-4 45v26l-3 7-4 5-9 4-10 1-3-7 1-7 3-4 6-7 2-3 4-2 1-6 1-1 4-26 3-20 4-21 5-14 10-19 4-5 6-12 6-10 11-18 9-13h2l2-4 9-15h2l2-5h2v-2l5-4 5-5 4-3h2v-2z" fill="#F03501"/>
<path transform="translate(544,210)" d="m0 0h7l4 4 3 10 1 7v12l-3 17-7 17-7 9-5 4-4 2-6-1-4-5-2-14v-12l3-17 5-14 6-11 5-5z" fill="#FDFDFD"/>
<path transform="translate(734,203)" d="m0 0 9 1 10 4 7 2 5-1 5-2 9 1 8 6-1 5-1 4h-2l-2 5-5 8-3 9-5 14-7 11-7 7-8 4-9 1-5-3 1-3-2-1 8-7 7-11 3-7v-14l-3-11-7-8-16-8-6-2h-12l-8 1 1-2 4-1h16l9 2z" fill="#FB4A07"/>
<path transform="translate(739,1143)" d="m0 0 5 1 2 7 4 19 4 5 7 16 2 5 3 17 4 9-1 6-5 1-20-9-9-3-9-2 2-14v-48l2-5 5-3z" fill="#C32001"/>
<path transform="translate(882,266)" d="m0 0h8l11 5h6l3-1v9l-5 26-5 20-3 3-6 4h-7l-3-1-5-5-7-6-3-8-1-7v-10l5-8 5-13 4-6z" fill="#751109"/>
<path transform="translate(739,740)" d="m0 0h15l11 2 16 8 7 6-1 2-3-2-1 3h-3l-2-1 5 6-1 2-6-7-15-7-3-1h-14l-15 2-17 6-19 8-1 1h-6l-1-3-4-2-13-8-15-4h-25l-15 4-7 3-19 10-4 1-1-5 3-7 4-5 7-3 11-5 15-3h32l19 4 14 6 3 4 8-1 13-5 10-4 12-4z" fill="#46130F"/>
<path transform="translate(381,1386)" d="m0 0h20l5 3v17h-53l-57-3-23-2-6-2v-2l32-6 10-1 51-2 17-1z" fill="#A7ADB2"/>
<path transform="translate(537,1186)" d="m0 0h2l3 3 2 1 2 7 3 8 6 22 1 5-19 13-14 12-8 6h-2l-1 3-5 3-3-3v-14l2-3 1-10 2-3h2l2-6 8-13 7-15h2l3-12 4-2z" fill="#9E1E0C"/>
<path transform="translate(899,1293)" d="m0 0h6l7 9 10 30 3 13 2 9 3 10 8 8 5 2v8l-2 3-4-2-5-4-4-5-2-1-3-5-6-21-7-14-4-3h-5l-4 5-5 10-5 14-1 15-3 12-5 4-11 2h-10l-1-4 6-1 4-3 13-2 2-7v-18l2-18 5-26 1-10 4-6z" fill="#D62901"/>
<path transform="translate(264,1398)" d="m0 0 9 2 23 2 57 3 53 1v-8h1v13h-25l-38-2-39-1h-20l-10 1-4 1-2 25-2 13-3 24-2 7v5h-8l-4-2v-19l2-37 2-20 4-5z" fill="#3B3A3F"/>
<path transform="translate(944,1382)" d="m0 0h20l45 1 24 2 14 3 12 5 4 6 2 26v9l-2-2-3-28-1-2-13-3h-46l-56 2-5-2-1-6z" fill="#A8ADB2"/>
<path transform="translate(691,178)" d="m0 0h24l31 6 17 4 6 1h21l36-4 6 2-1 5-4 6-5 5-20 18-7 10-6 14-8 21-3 6-2 1 2-6 3-10v-5l-3 1v-10l3-10 10-15 5-6 3-1-2 4-4 5h-2l-2 5-1 6h3l7-12 7-7 5-3 6-7h2l1-4 1-2 1-1-3-2-15 1-13 3h-16l-24-6-11-2-11-3-23-3-13 1-13 4-12 7-5 5-3 1v2l-5 5-8 13-8 16-3 18-1 23h-1l-1-5v-24l3-16 6-15 8-13h2l1-4 8-8 13-9 14-5z" fill="#A32D25"/>
<path transform="translate(839,439)" d="m0 0 5 1 8 7 9 16 5 6v2l4 2 12 12 5 4-1 3-8 4-9 6h-6l-8-6-5-5-6-9-5-5-6-7-8-17 2-6 3-3 5-3z" fill="#630E06"/>
<path transform="translate(522,1153)" d="m0 0 8 5-1 3h-5v2l-8 7-8 8-4 5h-2l-3 6h-2l-2 5-8 11-10 14-6 9-10 18-7 16-8 15-6 19-3 17-3 21-2 16 1 9v10l-3 9h-2l-2 4-6 5-8-2 1-2 9-4 4-6 1-4v-26l5-54 3-11 4-9 11-17 7-12 14-23 9-14 6-9 7-10 3-5h2l2-5 9-9 7-8 3-2h3z" fill="#E32A01"/>
<path transform="translate(753,1122)" d="m0 0h6l-5 10-1 10 4 10h2l7 11 2 10 2 12 6 13 4 19 9 16 5 6 1 5-6-1-10-6-13-7 3-4-1-7-3-6-3-17-7-16-4-8-2-2-5-25-5-1-5 3h-3l4-9 5-8 7-6z" fill="#D62901"/>
<path transform="translate(535,515)" d="m0 0 2 1v4h2l1 5 1 17v37l-3 21-5 14-4 8-4 4-2 3-4-2 1-7v-11l1-11 1-3v-10l-1-3 1-4v-11l1-3 2-30 5-9 1-6z" fill="#C42001"/>
<path transform="translate(504,1419)" d="m0 0 10 1-3 1-1 5 2 2 2 14 1 6 1 30 2 8 3 2v2l11 2h8l7 2 12 1v1h-51l-10-1 1-16-3-19-5-22-1-15 1-3z" fill="#101316"/>
<path transform="translate(386,640)" d="m0 0h6l-4 2 1 1-1 7-4 10-3 10-4 10-2 12-4 10-5 16-4 17-2 12-4 11-4 9-9 16-8 11-9 11-5 6v-3l8-11h2l2-5 6-8 2-4h2l1-4 3-5 1-7-9 4h-2v2l-5 2v2h-2l1-5 8-13 8-16 8-21 7-21 11-41 4-15z" fill="#9F200D"/>
<path transform="translate(938,1390)" d="m0 0 1 3 1 6 10 1 50-2h46l13 3 2 3 3 28 2 7 1 17v17l-3 3-7 2-1-4-2-5-3-34v-10l-2-17-1-2-3-1-11-1-24-1-25 1h-45l-4-6v-3z" fill="#3B3A3F"/>
<path transform="translate(538,497)" d="m0 0h2l-2 15h-1v-10l-4-1-3-1-5 5-4 6-3 8-2 9-2 12-2 10-5 22-4 16-6 11-7 9-9 14-8 13-3 6v7l4 15 2 3 12 5-4 5-3 2h-3l-1-4-3-1v-2l-4-2-3-4-4-13-2-11-5-8 6-9h2v-2l9-7 7-10h2v-2h2l2-5 7-8 4-8 9-33 4-12 2-15 4-13 2-5 6-4 5-2h8z" fill="#F03501"/>
<path transform="translate(771,745)" d="m0 0 12 2 6 4 6 13 4 12v2l23-2 35-1v10l-4 33-2 53-12 4-4 1-51-2-65-1 3-2 40-1 83-1 1-8v-29l1-9-2-12-1-8v-9l-3-9-2-3-5-2h-18l-10 1h-9l-2-5-2-14-3-1-6-8-6-4-7-3z" fill="#8D2E28"/>
<path transform="translate(275,1408)" d="m0 0h11l-1 3h-2l1 18 1 9 1 16v13l1 6v11l7 1v1l-21-1-11-1-1-5 3-13 2-19 2-12 2-22 1-3z" fill="#151A1D"/>
<path transform="translate(561,832)" d="m0 0 5 5 8 10 8 9 8 7 17 14-3 1-7-4-6 1-48-1-12-1-1-2 13-2 2-2-1-4-1-8 5-8 4-6h4l2-7z" fill="#7C1D18"/>
<path transform="translate(774,1107)" d="m0 0 2 1-5 9 2 21 2 16 3 10 2 11 9 18v3h2l4 5v2h2l3 4v2h2l3 5 3 3 5 16 4 8 5 13 1 9h-2l-1 2-7-4-4-5h2v-7l-5-14-3-7-3-10-7-11-2-4h-2l-8-14-5-14-3-12-6-16-1-3h-2v-3h-2l-6-14 2-4-10 1v-2l-5-2h-3v-2l10-5 8-1 10-2z" fill="#F03501"/>
<path transform="translate(669,340)" d="m0 0 6 2 10 8 5 11 2 4v15l-3 5-2 2-15 1-63 1-18 1h-12l-2-4v-3l61-1v-2l24-4 16-1v-12l3-2-1-5-3-6-7-6z" fill="#6B1107"/>
<path transform="translate(536,184)" d="m0 0h15l1 3 6 2 7 9 5 11 1 5-3 1-3-6-3-2-2-5-5-4-2-1h-10l-9 4-4 4-10 7-13 9-2 2-1 9-1 4-2-9-2 1-2 4-2-13v-16l5-3 6-1h9v-2h2l2-4 4-4h3v-2z" fill="#A12B24"/>
<path transform="translate(319,798)" d="m0 0h2l1 4-3 6-5 5-3 4h-2l-2 4-3 4h-2l-2 5-5 4-2 3h-2l-1 3h-2l-2 4-3 1-2 4-8 9h-2l-2 4-5 5-1 2h-2v2l-5 5h-2v2h-2l-2 5-9 7-4 4-4-1-1-4h2l2-5 7-9 10-10 8-9 5-8h2l2-5h2v-2h2l2-5h2v-2h2v-2h2v-2h3l2-4 10-9h2v-2l8-7 10-9z" fill="#AF3C26"/>
<path transform="translate(612,452)" d="m0 0 4 2 8 5v2l6 1 4 2v2l6 2 10 4 27 5 51 3 8 1h27l-3 2-10 4-22 3-31 2h-36l-19 3-17 3-7-2-11-6-1-1-10-1 5-4 3-1 6 3 11 2h6l10-4 12-1 34 5h44l8-1v-2l-47-3-20-3-26-7-16-7-6-4-5-4z" fill="#C11F01"/>
<path transform="translate(345,764)" d="m0 0h3l1 3-3 7-3 6h-2l-2 6-7 9-1 2h-2l-2 4-6 8-2 5-10 11-9 11-3 1-2 4-8 8-14 16-5 5-8 9-7 6-4 5-5 3-2 1 2-4 5-6 3-6h2v-2l5-5h2v-2h2l2-5 5-4 7-8h2l2-4 5-5 5-6 8-7 3-5 5-5 7-8 3-4h2l2-8v-2l-9 4-4 1h-2l-1 3-3-2 5-5 4-5 4-4 2-3h2l2-5 6-7 3-3v2h2v-2l5-2v-2z" fill="#A12C25"/>
<path transform="translate(903,1354)" d="m0 0h5l4 5 7 13 8 10 4 3v2l6 1 1 4-2 3-1-2-10-3-12-2-10 2-9 3-17 2-1 8-3 2-7 1h-11v-15l-2-7 3 3 3 8 1 2 4 1 4-4 13-2h3l1-2 7-10 6-13 2-9 1-3z" fill="#AF1F03"/>
<path transform="translate(417,1415)" d="m0 0h58l26 1 12 1 1 2-34 3-8 2v8l-1 5v18l-1 10v18l-1 11v1h-15l-1-2 3-14 2-25 1-27 2-5 13-2 10-1 1-1-14-1-54-1z" fill="#3B3A3F"/>
<path transform="translate(495,1354)" d="m0 0h1v32l-2 2 2 12 2 10 33-1h160l4-1-72-1 1-2 231-1-1 2-48 1-1 2-35 1-57 1h-216l-5-2-1-17 2-6 1-2z" fill="#7E6C5C"/>
<path transform="translate(895,156)" d="m0 0 5 1 5 3 2 10 3 17 1 25v9l-2 4-4-2-4-9-13-29-3-7v-8l3-7 5-5z" fill="#630E06"/>
<path transform="translate(910,1387)" d="m0 0 11 1 11 3 4 2 1 5 3 5-4 3-17 2h-16l-47-1v-1l17-2 3-1 1-8 20-4z" fill="#421410"/>
<path transform="translate(422,811)" d="m0 0 2 1 3 14-1 12-1 5v6l9 2 7 3 5-1-1 3h3l1-2v2l6-2 4 1-2 3 9 1v2l-6 2h-7l-5-1-6 1v1h-7l-11-3v40l-1 58-3 64-2 40-2 5-4-2 2-1 1-12 1-37 1-9 2-54 1-14 1-28z" fill="#A8281A"/>
<path transform="translate(540,525)" d="m0 0h1l2 22 1 17-1 1-1 23h2v-2l4 1 1 4 5 14 2 5 1 4v3l-2 5-7 10-5 3-3 1h-8l-5-5v-2l-2-1 10-21 3-11 2-17z" fill="#FB4805"/>
<path transform="translate(893,121)" d="m0 0h11l5 3 4 5 2 5 2 14 1 15v45l-2 26h-1l-2-17-1-17-1-11v-40l-3-11-2-2-1-3-4-1-4 2-2 6-4 5-3 7-1 2h-2v3h-2v2h-3l5-25 4-10z" fill="#7D2019"/>
<path transform="translate(551,202)" d="m0 0 7 3 4 5 2 19v13l-2 11-7 18-6 11h-2l-2 4-4 4h-2v2l-7 3-6-1-4-4-4-11-2-8v-16l5-20 7-16 4-6h2l1-3 10-6zm-7 8-6 4-7 11-6 14-3 13-1 8v12l2 14 4 5 6 1 8-5 6-7 6-12 4-12 2-13v-12l-3-15-3-5-2-1z" fill="#FC8251"/>
<path transform="translate(613,328)" d="m0 0h32l6 1v1h-27l-15 5-7 3-10 6-1 4 4-1 56 1 2 2h-51l-23 3-8 5-5 1-2-1-5-9-3-2 2-4 9-6 13-5 19-3z" fill="#A42D25"/>
<path transform="translate(854,1405)" d="m0 0 1 4 57 1 28 1v2l-10 2-28 2-41 1-19-1-17-4-28-2-27-1v-1h35l1-3z" fill="#3B393E"/>
<path transform="translate(850,427)" d="m0 0 6 1 30 23 8 7 6 9 4 13v7l-3 5-5 1v2l-6-1 1-3-5-5-5-4-1-3-5-4-1-2-4-2-5-6 1-3 5 1 15 9v2l3 1v2l5 1 1 3 7 1-3-7-9-11-5-5-8-7-7-3-10-5v-2h-2v-2h-2v-2l-4-2-3-2-7 1-9 9-2-1 6-6h2l2-4z" fill="#7D201A"/>
<path transform="translate(539,182)" d="m0 0h11l10 5 8 10 11 27 4 20 1 8v22h-1l-2-25-2-18h-2l-3-6-1-1-2 4-3-5v-3l-2 2 1 17v18l-4 16-4 6-8 6-6 3-5 5-6 1 2-2h3v-2l7-6 1-2h2l2-5 6-13 5-15 1-7v-13l-2-19-5-5-5-2-5-1v-1l6-1h-11l-8 2 3-3 7-3h10l6 4 3 3 1 4 3 2 2 6 2-2-5-13-7-10-6-3-1-2h-15l-10 2v2l-6 2 3-5h2l1-2z" fill="#BF4827"/>
<path transform="translate(889,560)" d="m0 0 5 1 4 9 4 5v2l3 1 7 11v3l3 1 7 10 4 9 2 9 2 5h2l3 5v3h2l7 10 6 5 3 4v5h-2v2l-7 1-17-4-13-5-9-4 4-1 18 7 10 2h4v-2h2l-4-7v-2h-2l-2-5h-2l-7-10-5-14-3-10-4-4v-3l-4-2-8-9v-2h-2l-2-4-4-4-6-7-5 1-4 2-1 5-1-4 3-8h2l1-4z" fill="#F03501"/>
<path transform="translate(264,1398)" d="m0 0 9 2 23 2 57 3 53 1v-8h1v9l-1 1h-28l-73-2-32-1-9 2-2 2-1 5-2 33-3 21-3 6-1 1-1 7h-1v-19l2-37 2-20 4-5z" fill="#7F6E5F"/>
<path transform="translate(544,210)" d="m0 0h7l4 4 3 10 1 7v12l-3 17-7 17-7 9-5 4-4 2-6-1-4-5-2-14v-12l3-17 5-14 6-11 5-5zm0 11-6 5-5 10-5 20-1 24 1 9 4 1 6-2 7-8 5-12 5-14 1-9v-15l-3-8-1-1z" fill="#F4CBCA"/>
<path transform="translate(407,1416)" d="m0 0h10l-3 2-4 2-2 9-1 34-1 16v13h-22v-1h12l-3-13 1-17 1-10 1-18 6-12z" fill="#3B3A3F"/>
<path transform="translate(869,178)" d="m0 0 3 4 8 16 3 7 6 13 4 11 5 16 1 3 2-3v19l-7 2-3-1h-8l-6 2-7 9-5 2-3-1-2 5v26h2l4 14 5 5 7 4 5 2h14v2l-7 1-18-1-7-3-4-4v-3h-2l-3-11-1-5-1-10 2-11 3-12 4-6 6-7 12-1h13l2-4-2-18-3-9-3-7-4-11-15-30-1-4z" fill="#E55C2D"/>
<path transform="translate(757,733)" d="m0 0 2 1 1 5 7 1 4 5-10-3-7-1h-15l-12 3-10 3-11 5-11 4h-5l-3-3v-2l-9-3-13-4-11-2-25-1 2-3 5-1h16l19 3 10 4 10 1 2 1 1-2 5 1 18-5 9-3 12-2h16z" fill="#EA3201"/>
<path transform="translate(699,180)" d="m0 0 24 1 13 3 7 2 7 1 5 2 11 2 4 2h19l25-3h8l4 1-2 4h-3l-3-2-15 1-13 3h-16l-24-6-11-2-11-3-23-3-13 1-13 4-12 7-5 5-3 1v2l-5 5-8 13-8 16-3 18-1 23h-1l-1-5v-24l3-16 6-15 8-13 8-7 10-8 16-6z" fill="#A12518"/>
<path transform="translate(905,248)" d="m0 0h1l3 14 1 2 2-2-1 10-2-1-7 1-10-4-2-1h-8l-5 5-5 12-4 8-2 3v10l2 10 2 5 3 2v2l4 2 4 3v2h10l6-4h2l-2 6-4 1h-10l-9-4-8-6-4-11v-5h-2l-1-5v-21l3-6 5 1 5-5 5-6 6-2h8l5 1 4-2v-9l2-4z" fill="#B03D26"/>
<path transform="translate(602,349)" d="m0 0h48l12 2 1 2h-16l-7 1-10-1-16-2-25 3-9 4-3 5v18h61l-3 2h-58l2 6h12l18-1 75-1-3 2-52 1-22 2-29 1-3-6-1-6-5-5-3-15v-3l5-1 8-5z" fill="#C62907"/>
<path transform="translate(606,489)" d="m0 0 12 6 7 2 17-3 19-3h37l19-1h11l-3 2-25 5-12 1h-16l-26 1-17 5-8 4-6-1-3-2-4-11v-3h-2z" fill="#E32A01"/>
<path transform="translate(651,232)" d="m0 0h2l1 5-3 10v15l2 3 21 5 8 3 1-3 7 7 10 4 18 1v1l-13 1v1h-11l-15-4-16-3-12-1-6-3-2-3v-21l2-8h2l1-6z" fill="#F84806"/>
<path transform="translate(524,1411)" d="m0 0h160l1 3-1 1-119 1-20 1-9 2h-6l-3-3-1-3h-2z" fill="#101317"/>
<path transform="translate(702,194)" d="m0 0h19l15 4 13 5 12 3 9 1-3 2-6 2-7-1-7-4-9-2-6 1-5 3-9-2h-16l-5 1-4-2v-2l-13 1-1 2-7 2v2l-9 5h-2l2-4 10-7 9-5 3-2 10-2z" fill="#D52801"/>
<path transform="translate(253,930)" d="m0 0 9 2v2l5 1 6 4 1 2 7 4 9 7 3 3 4 2 2 4 5 5 5 2 5 5 6 5 2 5 4 2 3 3v2l4 2 8 5 4 6 2 5 3 4-4-2-15-13-11-9-10-9-14-11-12-11-11-9-13-11-7-6z" fill="#7F221B"/>
<path transform="translate(586,754)" d="m0 0 2 1-3 4-2 7 1 4-12 9-7 7-6 8-1-4-1-3-3-1-2 1-1 4-2 2h-11l-5-3h-7l-6-2-25-2v-2l58-1 7-8 14-13z" fill="#7F1F19"/>
<path transform="translate(576,775)" d="m0 0 2 1-4 2-2 4-7 10-3 9-1 8v10l6 12 1 3 4 2 12 11 3 3v2l4 2v2h2l4 4v2l4 2 8 8v2h2l4 5v2l-5-1-16-13-8-7-9-8-9-11-7-10-5-13-1-4v-11l4-10 8-10 7-7z" fill="#F78350"/>
<path transform="translate(938,1390)" d="m0 0 1 3 1 6 10 1 50-2h46l13 3 2 3 3 28 2 7 1 17v17l-3-1-3-5-2-19-2-31-2-13-9-2-12-1h-35l-26 1h-33l-5-6z" fill="#7F6E5E"/>
<path transform="translate(775,207)" d="m0 0h6l6 4 1 1v8l-10 18-8 22-8 16-2 5-12 6-12 3h-18l-17-2-6-2v-1l9-1v-1l14-1 12-6h3v3l4 2 9-1 8-4 7-7 7-12 7-21 6-10 2-3h2l1-9-7-5z" fill="#E42E04"/>
<path transform="translate(830,442)" d="m0 0 2 1-5 5-1 5 8 17 8 9v2l4 2 4 7 5 5 8 6h6l10-3 11-4h4l-2 5-10 3-9 1-8 1-7-2-6-7v-2l-4-2-6-5-3-1v-4l-4-1-2 2-5-1-5-4-7-8-8-6 6-7 9-7z" fill="#D42801"/>
<path transform="translate(882,266)" d="m0 0h8l11 5h6l3-1v9l-1 6h-1l-1-5-6-3-4-4-6-4-6-1-3 3-2 7-3 11-5 4-2 11 2 13 3 5 5 2h2l2-6 18-2-3 11-8 5h-7l-3-1-5-5-7-6-3-8-1-7v-10l5-8 5-13 4-6z" fill="#95271D"/>
<path transform="translate(674,220)" d="m0 0 5 1-5 9-2 6v14l5 12 5 6 1 5-2 1-10-4-15-3 2-4 1-20 5-13 7-9z" fill="#EF3805"/>
<path transform="translate(729,1167)" d="m0 0h2l2 9 1 8 3 8v3l4 2 6 5 7 11-1 7-1 1-8-1-9-3-9-2 2-14v-30z" fill="#B02004"/>
<path transform="translate(535,522)" d="m0 0 3 1 2 13v34l-2 21-3 9h-4l-2-5v-18l2-16v-13l1-19 2-6z" fill="#AF1E03"/>
<path transform="translate(418,970)" d="m0 0h1v15l-1 22-1 9-1 37-1 12-4 1-12-11-11-9-14-12-8-7h3l8 2 9 5v2l5 1 4 4v2l5 2 4 3h9l2-53 2-13z" fill="#7F1F18"/>
<path transform="translate(459,1366)" d="m0 0 7 1 10 8 6 5 10 2 1 3-2 1h-16l-7-3h-11l-13 7-3 9 1 3v8h-6v-15l3-5 5-6 10-14z" fill="#9E1D0B"/>
<path transform="translate(278,589)" d="m0 0 2 4 5 4h6l6 4 2 11 5 10v2h2l2 3 3 1 6 9 1 2-10-3-12-7-8-8-6-10-3-9z" fill="#FC8352"/>
<path transform="translate(771,478)" d="m0 0h6l-3 2-10 3-7 4-24 4-11 5-20 4-28 1h-24l-14 4-8 5-7 8-3 1-3-2-7-20v-2h-2l-2-6h-14v-1h16v3h2l5 14 4 2 7-1 8-4 14-4 37-1h9l23-4 13-2v-2l22-3 10-4v-2z" fill="#EF3401"/>
<path transform="translate(606,475)" d="m0 0h26l9 3 33 8v1l-11-1-14-2-12 1-10 4-12-1-9-3-4-1-6 4h-6l5-5h2v-2z" fill="#740F07"/>
<path transform="translate(595,443)" d="m0 0 5 1 6 5 7 9 5 4 16 8 13 6-1 2-11-1-18-5-15-5-5-4-1-2z" fill="#421410"/>
<path transform="translate(422,680)" d="m0 0h1v13l-5 60v13l2 7 5 2 20 3-2 2h-4l2 6-2 6-3 2h-4v2l-4-1-4-2-3-1-2-4v-12h-2l-1-4v-28l1-20 1-1 2-28z" fill="#A63025"/>
<path transform="translate(691,178)" d="m0 0h24l31 6 17 4 6 1h21l36-4 6 2-1 5-4 6-5 5-4 2v-2l8-8 2-6-44 3h-18l-15-3-1-1-12-2-10-3-5-1-24-1-16 4-16 6-10 8-6 5 2-4 7-7 13-9 14-5z" fill="#C54E28"/>
<path transform="translate(696,189)" d="m0 0h19l15 3 13 4 13 6 5 1h18l16-2h7l4 2-1 5-1 3 10-8 3-3 1 2h-2l-1 3h-2l-2 4-3 3-5 3-6 7-6 11-1-2h-2l-1-4 4-7h2l2-4 3-3 1-6-12 2-5-2-23-2-11-4-11-5-16-4-8-1h-11l-15 3-11 6-6 5h-2l1-3 11-8 11-4z" fill="#9E1D0B"/>
<path transform="translate(910,1387)" d="m0 0 11 1 11 3 4 2v3l-6-1h-28l-4 2-3 7-4 2-13 1h-22v-1l17-2 3-1 1-8 20-4z" fill="#710F07"/>
<path transform="translate(541,199)" d="m0 0h6l-4 2-7 2v2l-16 10-10 7-2 3 1 14 1 41 2 7 3 4 6 2v2l13-1-2 3h-16l-5-3-4-7-3-10v-38l-1-11 2-6 10-8 11-7 9-6z" fill="#D42801"/>
<path transform="translate(256,852)" d="m0 0 3 1-2 5-10 11-5 5-9 10-3 5h-2l-1 4-2 1-2 4-2 3-3-1-1-3v-9l4-6 5-5 4-1 2-4 5-5h2v-2h4v-5l6-1 1-5h2v2h2z" fill="#8E2E26"/>
<path transform="translate(613,328)" d="m0 0h32l6 1v1h-27l-15 5-7 3-10 6-1 4 4-1 56 1 2 2h-51l-23 3-8 5-5 1-2-1-2-6 2-2h7v-2l9-2 2-4 13-5 7-3 8-2 1-3z" fill="#AC230B"/>
<path transform="translate(744,750)" d="m0 0h14l16 7 7 6 3 5 2 1 4 14-1 9-7 11-3 2 2-5 4-8v-10l-3-11-6-8-9-4-13-3h-8l-11 2-23 1 2-2 15-5z" fill="#C34A23"/>
<path transform="translate(750,288)" d="m0 0h4l-1 6-7 3-13 2h-26l-12-2-5-2-12-3 2-2 3-1h8l17 3h23z" fill="#681007"/>
<path transform="translate(861,730)" d="m0 0 4 2-1 11-6 35-1-3-10 1h-20v-1l13-1 5-4 4-7 3-4 4-16v-10z" fill="#D15E30"/>
<path transform="translate(495,1411)" d="m0 0h29v2h2l3 3 4 2-11 2h-13l4-2-12-1-26-1h-58l-10 1-2 1 1-3 7-1 39-1 12-1z" fill="#17181B"/>
<path transform="translate(423,1417)" d="m0 0h33l-1 3-6 3-10 8-6 2h-7l-6-3-2-7 3-4h2z" fill="#B67A39"/>
<path transform="translate(834,444)" d="m0 0 2 1 6 15 6 11 3 9 2 5h2v2l3 1 2 3v5l-5-4v-2h-2l-7-8-5-5-5-6-8-16v-6l4-4z" fill="#42130F"/>
<path transform="translate(866,462)" d="m0 0 5 1 15 9v2l3 1v2l5 1 1 3 7 1 1-4 1 2v7l-3 5-5 1v2l-6-1 1-3-5-5-5-4-1-3-5-4-1-2-4-2-5-6z" fill="#7E201A"/>
<path transform="translate(564,214)" d="m0 0 2 4 1 21v18l-4 16-4 6-8 6-6 3-5 5-6 1 2-2h3v-2l7-6 1-2h2l2-5 6-13 5-15 1-7v-24z" fill="#F74304"/>
<path transform="translate(655,211)" d="m0 0 2 1-1 7-8 16-4 15-1 1v25l-4 1-3-8v-16l4-15 4-10 8-15z" fill="#640E06"/>
<path transform="translate(689,374)" d="m0 0h1v8l-9 2-13 1-17 1-65 3h-6l-1-3 47-3 9-1 29-1 15-1 7-1 2-4z" fill="#421410"/>
<path transform="translate(641,473)" d="m0 0 10 2 15 4 26 5 22 1 9 1v2l-9 1h-31l-9-1v-2l-9-1-24-6v-1l5-1-3-2z" fill="#630E06"/>
<path transform="translate(495,1354)" d="m0 0h1v32l-2 2 2 12 2 10 33-1h42l140 1v1h-216l-5-2-1-17 2-6 1-2z" fill="#474244"/>
<path transform="translate(1045,1405)" d="m0 0 4 1 1 2 2 18v9l3 34 2 5v4l-9 1 1-5-1-4-2-41v-8l1-10z" fill="#421511"/>
<path transform="translate(709,613)" d="m0 0 4 2 3 8 1 9-2 4h-9l-7-3-2-2-1-9 4-4z" fill="#F03501"/>
<path transform="translate(602,483)" d="m0 0 5 2 14 3h6l10-4 12-1 25 4v1l-23 1-15 4-9 3-7-2-5-3-9-2-10-1 5-4z" fill="#AF1E03"/>
<path transform="translate(601,443)" d="m0 0 5 3v2l4 2 5 5v2l4 2 5 4 15 7 25 7 16 3 23 2 30 2 2 1v2l-8 2h-13v-1h9v-2l-31-1-31-6-17-5-10-3-16-8-8-7-4-5v-2l-4-2z" fill="#751008"/>
<path transform="translate(475,1422)" d="m0 0h2l-2 18v55h13v1h-18l-2-2 1-11v-19l1-17v-11l2-12z" fill="#411512"/>
<path transform="translate(422,936)" d="m0 0h1v23l-3 64-2 40-2 5-4-2 2-1 1-12 1-37 1-9 3-52z" fill="#BE4827"/>
<path transform="translate(702,190)" d="m0 0h11l16 3 13 4 13 6 14 2 10 1v1h-18l-12-3-16-6-13-3h-18l-10 1-9 3-7 5-9 5-5 4-5 6v-3l7-9h2v-2l5-2 10-7 6-3z" fill="#BD1F01"/>
<path transform="translate(612,452)" d="m0 0 4 2 8 5v2l6 1 4 2v2l6 2 10 4 27 5 51 3 8 1h27l-3 2-10 4h-8l2-3-18-1-6-1-47-2-28-7-15-6-9-5-6-5z" fill="#D72901"/>
<path transform="translate(515,197)" d="m0 0 1 4 2 2 4 2-3 1-2 4-10 7-5 1-1-3-4 1-2 3v-16l5-3 6-1h9z" fill="#9A352C"/>
<path transform="translate(671,188)" d="m0 0 3 1-6 4-7 8h-2v2l-5 5-8 13-8 16-3 18-1 23h-1l-1-5v-24l3-16 6-15 8-13 8-7 10-8z" fill="#A71F0B"/>
<path transform="translate(722,871)" d="m0 0h125l-3 2-5 2-4 1-51-2-65-1z" fill="#D95428"/>
<path transform="translate(275,1408)" d="m0 0h10v1l-7 1-4 5-1 23-2 14-3 22-2 8 1 2h-5l-1-5 3-13 2-19 2-12 2-22 1-3z" fill="#411410"/>
<path transform="translate(778,259)" d="m0 0 3 1-3 9-4 9-10 10-9 5h-2l1-5-16 3v-2l15-5 8-5 7-9 4-6z" fill="#6D1108"/>
<path transform="translate(872,175)" d="m0 0 2 1 5 14 5 8 8 17 5 13 3 5 4 14-1 4-4-1-6-18-3-8-5-13-3-6-3-7-8-16-1-5z" fill="#D52901"/>
<path transform="translate(566,220)" d="m0 0h2l3 6 1 15v13l-3 16-5 9-7 6-8 3-5 2 1-3 9-5 6-5 4-10 2-10v-24l-1-12z" fill="#C32001"/>
<path transform="translate(869,178)" d="m0 0 3 4 8 16 3 7 6 13 4 11 5 16 1 3 2-3v19l-7 2-3-1h-8l-6 2-7 9-5 2-2-3 3-1 5-5 6-5h4v-2h13l2-4-2-18-3-9-3-7-4-11-15-30-1-4z" fill="#E3592B"/>
<path transform="translate(716,197)" d="m0 0h9l20 4 6 3 19 3-3 2-6 2-7-1-7-4-9-2-6 1-5 3-9-2-11-1-3-2 7-3h3v-2z" fill="#E42B01"/>
<path transform="translate(499,227)" d="m0 0h2l4 13v38l3 9-1 3-3-4-5-2v-24l-1-32z" fill="#A32612"/>
<path transform="translate(890,272)" d="m0 0 4 4 2 6 2 22-2 5-6-1-3-5-1-12 1-15z" fill="#630E06"/>
<path transform="translate(606,489)" d="m0 0 12 6 7 2 17-3 19-3h55v1l-31 3h-22l-26 3-14 3-6-1-8-4-1-5h-2z" fill="#D62901"/>
<path transform="translate(775,207)" d="m0 0h6l6 4 1 1v8l-10 18-8 22-9 19-7 4-2-1 8-7v-2l-5 5-8 5-5 1h-10l-4-2-1-4 3-2h3v3l4 2 9-1 8-4 7-7 7-12 7-21 6-10 2-3h2l1-9-7-5z" fill="#E52E01"/>
<path transform="translate(636,466)" d="m0 0 7 1 16 5 20 3h38l16 3 10 1 5 2v1h-12l-11-1-48-3-27-5-12-5z" fill="#F03501"/>
<path transform="translate(557,139)" d="m0 0 7 1 2 4-1 4-12 12-6 3-1-7 2-11 5-5z" fill="#A03A2D"/>
<path transform="translate(798,211)" d="m0 0v3l-5 6h-2l-2 5-1 6h2l-2 17-9 23-3 2 2-6 3-10v-5l-3 1v-10l3-10 10-15 5-6z" fill="#A22E25"/>
<path transform="translate(825,449)" d="m0 0 1 4 8 17 8 9-2 1-6-5-12-4v-2l-4-2-5-5 2-5 9-7z" fill="#BF1F01"/>
<path transform="translate(602,349)" d="m0 0h48l12 2 1 2h-16l-7 1-10-1-16-2-25 3-9 4-3 5-1 16h-1l-1-9v-10l4-5 3-2h3v-2z" fill="#F74505"/>
<path transform="translate(1024,753)" d="m0 0h2l-2 5-9 11-12 9-13 1v2l-2 1h-7l-4-3-13-4-2-3 4 1 9 3h12l11-4 10-4 6-5h3v-3l3-1v-4z" fill="#E95E2F"/>
<path transform="translate(607,744)" d="m0 0 3 1-6 4-3 7 5 1-3 3-16 8-4 1-1-5 3-7 4-5 7-3z" fill="#6E130A"/>
<path transform="translate(734,203)" d="m0 0 9 1 10 4 7 2 5-1 5-2h5l-4 2h-2l-1 3-5 2-9-1-6-2h-6l-6 3-16-6-3-1h-12l-8 1 1-2 4-1h16l9 2z" fill="#F2420F"/>
<path transform="translate(875,269)" d="m0 0v3l-7 13-5 4-1 5 3 12 2 12 6 8 5 5-4-1-8-6-4-11v-5h-2l-1-5v-21l3-6 5 1 5-5z" fill="#C44B23"/>
<path transform="translate(400,1422)" d="m0 0 1 2-4 9-1 22-2 20 2 16h-5l-2-10v-11l5-40z" fill="#421410"/>
<path transform="translate(741,746)" d="m0 0h17l10 4 9 7 6 7-1 2-6-7-15-7-3-1h-14l-15 2-17 6-14 6-3-1 9-4 11-5 16-6z" fill="#82160A"/>
<path transform="translate(286,847)" d="m0 0 2 1-9 10-6 7-5 5-8 9-7 6-4 5-5 3-2 1 2-4 5-6 3-6h2v-2l5-5h2v-2h2l2-5 5-4 5-5 5-3 1-2h2v-2z" fill="#992F29"/>
<path transform="translate(807,463)" d="m0 0 5 2 8 7 5 6 5 3 4-1 2-1 5 2-2 1-1 9-1 1h-6v-2l-3-1-3-5-7-8v-2h-4v-2l-7-2-4-2v-2z" fill="#E42B01"/>
<path transform="translate(771,745)" d="m0 0 12 2 6 4 6 13 4 12v2l23-2 32-1-2 2-19 2-27 2h-9l-2-5-2-14-3-1-6-8-6-4-7-3z" fill="#A53726"/>
<path transform="translate(853,1384)" d="m0 0 3 3 3 8 1 2 4 1 4-4 13-2 2 1-6 2-1 8-3 2-7 1h-11v-15z" fill="#B01F03"/>
<path transform="translate(820,669)" d="m0 0 4 2v2l6 2 4 2v8l-2 5-4 1v2l-4-2-2-5v-3l-4-2-1-7z" fill="#FD8352"/>
<path transform="translate(418,970)" d="m0 0h1v15l-1 22-1 9-1 37-1 12-4 1-9-8 2-1 6 1 3-3 1-39 1-21 2-13z" fill="#9F2215"/>
<path transform="translate(672,234)" d="m0 0 2 2 1 15 6 11 10 11 10 5 14 2 2 2h-17l-10-4-8-8-7-10-4-10v-14z" fill="#FCF8F8"/>
<path transform="translate(893,121)" d="m0 0h11l-5 4-3 4-2 6h-2l-2 6-2 7-4 6-3 1 2-13 5-16z" fill="#A0220F"/>
<path transform="translate(885,267)" d="m0 0 3 1-3 2-3 28-1 2-9-1v18h-1l-2-13 2-11 4-4h2l1-7 2-9 3-5z" fill="#7B1D17"/>
<path transform="translate(878,181)" d="m0 0 4 5 10 18 8 16 6 15 3 11h2 3l-2 16-3 3-3-11-2-16-4-12-14-28-8-14z" fill="#9E1D0B"/>
<path transform="translate(592,873)" d="m0 0 7 1 5 3 6 2 9 8 12 8v2l-6-2-10-6 5 7-4-2-19-14-5-5z" fill="#5F1D1A"/>
<path transform="translate(899,316)" d="m0 0 3 1-3 10-8 5h-7l-3-2 8-1-2-1-6-1-2-2 3-1 2-6z" fill="#7B1E18"/>
<path transform="translate(466,1388)" d="m0 0h19l-1 5h-2v2l-10 3h-8l-6-4v-4z" fill="#630E06"/>
<path transform="translate(910,1380)" d="m0 0 7 1 12 7 6 2v2l-10-2-12-2-10 2-9 3h-6l5-4 14-8z" fill="#9E1D0B"/>
<path transform="translate(577,383)" d="m0 0h49v1l-34 2h-13l1 2 26-1 63-1 3 2-63 1-18 1h-12l-2-4z" fill="#731007"/>
<path transform="translate(887,1393)" d="m0 0h5v2l-2 1-2 7-1 2-9 2h-22v-1l17-2 3-1 1-8z" fill="#740F07"/>
<path transform="translate(778,696)" d="m0 0 4 4-1 8-4 8-6 4-4-1 2-10 1-3h3l2-5z" fill="#FF5F00"/>
<path transform="translate(503,228)" d="m0 0 2 3 2 6v32l2 14 4 9 5 3h9l7-1-2 3h-16l-5-3-4-7-3-10v-38z" fill="#BF1F01"/>
<path transform="translate(750,288)" d="m0 0h4l-1 6-5 2h-8l-2 1h-21l-1-3 21-3z" fill="#481510"/>
<path transform="translate(680,480)" d="m0 0h13l27 1 6 1 21 1-4 3 2 2-17 2h-36v-1l35-1 8-1v-2l-47-3-8-1z" fill="#B01E05"/>
<path transform="translate(814,190)" d="m0 0h8l4 1-2 4h-3l-3-2-15 1-13 3h-16l-12-3-2-2h7l3 1h19z" fill="#9D1D0B"/>
<path transform="translate(850,427)" d="m0 0 6 1 13 10 8 6-4 1-6-1-3-2v-2l-5-2-7-6v-2l-10 5-9 9-2-1 6-6h2l2-4z" fill="#932F26"/>
<path transform="translate(423,1417)" d="m0 0h26v2l-10 3-4 3-3 1h-10l-1-3z" fill="#A7ADB2"/>
<path transform="translate(691,178)" d="m0 0h12l10 2v1h-14l-16 4-16 6-10 8-6 5 2-4 7-7 13-9 14-5z" fill="#B13A26"/>
<path transform="translate(602,483)" d="m0 0 5 2 14 3h6l10-4 12-1 14 2v1h-13l-13 2-10 5-5-1-9-3-17-1 5-4z" fill="#9E1D0B"/>
<path transform="translate(437,778)" d="m0 0h8l-2 2h-4l2 6-1 3-6 3-6-1-3-3-1-5 4-3h8z" fill="#B03D26"/>
<path transform="translate(576,854)" d="m0 0 5 3 2 4 3 2v3h4v2l5 2 2 3-6 2-8-3-4-5-4-7z" fill="#741008"/>
<path transform="translate(851,722)" d="m0 0h6l-1 9-5 6-8-1-1-5 4-8z" fill="#E85C2D"/>
<path transform="translate(514,211)" d="m0 0m-1 1h5l-4 4-9 7-1 9-1 4-2-9-2 1-2 4-1-6v-10l5-1 1 2 6-2z" fill="#A43026"/>
<path transform="translate(637,290)" d="m0 0 20 1 38 5 4 2-18-1-14-1h-13l-13-2-2-1v-2z" fill="#F14206"/>
<path transform="translate(566,220)" d="m0 0h2l2 20v13l-2 12-5 11-6 7-4 1 5-5 4-6 4-16v-24l-1-12z" fill="#D62901"/>
<path transform="translate(622,741)" d="m0 0h32l19 4 14 6 3 4 5 1-2 2-5-1-4-3-12-5-13-5-7-1h-26l-12 1 4-2z" fill="#6B0F07"/>
<path transform="translate(419,1007)" d="m0 0h1v16l-2 40-2 5-4-2 2-1 1-12 1-36 2-1z" fill="#C24D2A"/>
<path transform="translate(573,223)" d="m0 0 3 3 1 5h2l3 18 1 10v28h-1l-2-33-2-12-4-2-2-7v-9z" fill="#A63025"/>
<path transform="translate(422,680)" d="m0 0h1v13l-5 60v13l1 7-3-1v-28l1-20 1-1 2-28z" fill="#C34D28"/>
<path transform="translate(778,259)" d="m0 0 3 1-3 9-4 9-4 3 1-5h-4l-5 5-2-1 6-7 6-9z" fill="#78120A"/>
<path transform="translate(285,1407)" d="m0 0h20l39 1 13 1v1h-72z" fill="#261617"/>
<path transform="translate(492,1298)" d="m0 0h2v18l1 25-2-4-1-12-4-1-3-2-1-4 5-4 1-9h2z" fill="#C52D0B"/>
<path transform="translate(539,182)" d="m0 0h11l10 5 8 10 4 9-1 3-2-6-3-1-7-11-7-4-1-2h-15l-10 2v2l-6 2 3-5h2l1-2z" fill="#C5502A"/>
<path transform="translate(825,185)" d="m0 0 7 2-1 5-4 6-5 5-4 2v-2l8-8 2-6-34 2 4-3z" fill="#BB4626"/>
<path transform="translate(1010,1402)" d="m0 0 24 1-3 2-60 1h-30v-1l29-1z" fill="#241718"/>
<path transform="translate(699,886)" d="m0 0 2 1-5 5h-3v2l-10 7-9 6-10 5-4 1h-14l-6-3 2-1 3 1h15l12-5 5-4 6-2 1-3 10-7z" fill="#C53611"/>
<path transform="translate(774,758)" d="m0 0 4 2 6 8 2 1 4 14-1 9-7 11-3 2 2-5 4-8v-10l-3-11-4-8z" fill="#8D2A25"/>
<path transform="translate(227,876)" d="m0 0h4l-3 10-6 9h-2l-1 2-2-3v-6l4-6 5-5z" fill="#7F231C"/>
<path transform="translate(816,205)" d="m0 0 2 1-8 8-8 7-7 10-6 14h-1v-8l8-15 9-10 6-2z" fill="#B43E26"/>
<path transform="translate(816,779)" d="m0 0h18l6 3 4 8 1 4v8l-2-1-4-14-6-4-5-1h-30v-1z" fill="#7B1D18"/>
<path transform="translate(872,613)" d="m0 0 5 1 5 5-1 7-5 2-5-1-1-5z" fill="#D62901"/>
<path transform="translate(507,238)" d="m0 0 2 1 1 41 2 7 3 4 6 2v2h5v1h-8l-6-4-4-9-2-18z" fill="#D62901"/>
<path transform="translate(640,220)" d="m0 0 1 4-3 10-3 21-1 23h-1l-1-5v-24l3-16z" fill="#C02F0F"/>
<path transform="translate(495,1354)" d="m0 0h1v32l-2 2 2 12 2 10h23v1h-24l-5-2-1-17 2-6 1-2z" fill="#9C543A"/>
<path transform="translate(647,243)" d="m0 0h2l1 21 4 10-6-1-3-4v-22z" fill="#FC8251"/>
<path transform="translate(888,207)" d="m0 0 3 1 4 9v2l3 1 5 12 3 11v5l-2 1-2-4-3-12-4-8-7-17z" fill="#C32001"/>
<path transform="translate(896,493)" d="m0 0 2 1 4 5 1 5-4 1-6-2-5 1-3 1-5-1-8 1 1-3 13-2 6-1 2-4h2z" fill="#EC3805"/>
<path transform="translate(869,178)" d="m0 0 3 4 8 16 3 7 6 13 4 11 3 8v5l-2-2-3-9-3-7-4-11-15-30-1-4z" fill="#E85C2D"/>
<path transform="translate(726,1194)" d="m0 0 2 1 1 8-3 12-7-1v-6l4-9z" fill="#A12A25"/>
<path transform="translate(744,750)" d="m0 0h14l16 7 7 9-1 2-4-5-3-2v-2l-6-2-7-3-9-1-14 1h-11l3-2z" fill="#AF3D26"/>
<path transform="translate(738,738)" d="m0 0h22l8 3 3 4-10-3-7-1h-15l-12 3-10 3-3 1v-2l3-2 9-3z" fill="#B11F05"/>
<path transform="translate(758,279)" d="m0 0 3 1-8 5-13 4-4 1h-18l-17-2-6-2v-1h17l4 2 14 1 13-2 11-4z" fill="#B91F03"/>
<path transform="translate(302,825)" d="m0 0h2l-1 5-3 4h-2l-2 6-7 7-6 1v2h-2l-1 3-4 2 1-3h2l2-4 5-5 5-6 8-7z" fill="#9A2C23"/>
<path transform="translate(536,398)" d="m0 0h7l5 4 8 4 3 5-10-1-8-5z" fill="#FD8352"/>
<path transform="translate(660,896)" d="m0 0 2 1-3 3-3 6-1 1-10-1-12-6-1-3 9 3h11z" fill="#5E1E1C"/>
<path transform="translate(866,462)" d="m0 0 5 1 10 6 4 6h-5l-3 2-3-4-4-2-5-6z" fill="#7B1D17"/>
<path transform="translate(422,811)" d="m0 0 2 1 3 14-1 12-2 12h-2z" fill="#AD3A25"/>
<path transform="translate(612,452)" d="m0 0 4 2 8 5v2l6 1 4 2v2l6 2 10 4 9 3-3 1-17-5-17-8-7-6z" fill="#B52004"/>
<path transform="translate(574,337)" d="m0 0 4 1-1 3h-2l-1 2-8 1-1 3-3 2-5-1v-4l6-5z" fill="#A31F0B"/>
<path transform="translate(860,308)" d="m0 0h2l4 14 5 5 7 4 5 2h14v2l-7 1-14-2-11-6-2-5-3-4z" fill="#D15C2F"/>
<path transform="translate(464,1412)" d="m0 0h29v1l-24 1-1 1-51 1-10 1-2 1 1-3 7-1 39-1z" fill="#141519"/>
<path transform="translate(268,943)" d="m0 0 4 1 8 6 9 5 5 5 3 4v3l4 1 1 4-6-4-12-11-11-9z" fill="#96382B"/>
<path transform="translate(634,737)" d="m0 0h18l19 3 6 3-3 1-10-2-7-1-24-1-2-2z" fill="#E53001"/>
<path transform="translate(419,698)" d="m0 0h1l-1 25-1 1-2 48h-1l-1-21 1-22z" fill="#A12719"/>
<path transform="translate(678,373)" d="m0 0 1 3h-2l-1 3-4 1-20 1h-14v-1l24-4 16-1z" fill="#D2350B"/>
<path transform="translate(880,267)" d="m0 0 2 1-4 6-3 9-5 10-3 8 3 16 1 4-3-3-2-6-1-7v-10l5-8 5-13 4-6z" fill="#A12A25"/>
<path transform="translate(876,190)" d="m0 0 2 1 4 8 7 13 3 10 8 21v7l-2-2-5-16-3-8-5-13-3-6-3-7-3-5z" fill="#F03501"/>
<path transform="translate(870,294)" d="m0 0 1 4-1 9 3 13 8 6 6 1 3 1-1 2-4 1-7-3-5-4-4-7-3-16 2-5z" fill="#9E1D0B"/>
<path transform="translate(246,890)" d="m0 0 1 4-2 3h-2l-1 4-2 1-1 3-3 3-1 7-6-4 1-5h2v-2l8-8h2l2-4z" fill="#801E17"/>
<path transform="translate(905,248)" d="m0 0h1l3 14 1 2 2-2-1 10-2-1-7 1-7-3 3-1h6l1-8-1-7z" fill="#B04028"/>
<path transform="translate(890,494)" d="m0 0h4l-2 5-10 3-9 1-8 1-5-1-1-4 4 2h6l10-3z" fill="#9E1E0B"/>
<path transform="translate(872,175)" d="m0 0 2 1 5 14 5 8 6 13-1 2-6-10-6-12-4-4-3-7 1-4z" fill="#D62901"/>
<path transform="translate(866,315)" d="m0 0h2l2 5 3 2v2l4 2 4 3v2h10l6-4h2l-2 6-4 1h-10l-5-2-5-5-6-7z" fill="#AC3725"/>
<path transform="translate(681,383)" d="m0 0h7l-4 2v2h-51v-1l31-2h9z" fill="#630E06"/>
<path transform="translate(415,772)" d="m0 0h2v4h2l3 55v8h-1l-1-7-2-31-3-24z" fill="#78140D"/>
<path transform="translate(917,163)" d="m0 0h1v45l-2 1-1-10-1-2 1-17 1-3z" fill="#93382C"/>
<path transform="translate(761,269)" d="m0 0v3l-4 5-10 6-5 1h-10l-4-2-1-4 3-2h3v3l4 2 9-1 8-4z" fill="#F03906"/>
<path transform="translate(718,282)" d="m0 0h4l2 3 3 1h16l-4 2-14 1-12-2-1-1-7-1-1-2z" fill="#D32701"/>
<path transform="translate(882,266)" d="m0 0h8v1l-7 2-3 9-3 11-8 6 3-9 3-5 4-11z" fill="#8C2A26"/>
<path transform="translate(317,811)" d="m0 0h3l-2 4-9 10-9 11h-3l1-2h2l2-4 4-9 5-5z" fill="#9D2419"/>
<path transform="translate(421,780)" d="m0 0 5 1-1 3 2 5 3 2 7-1 3-1-2 4-6 1v2l-4-1-4-2-3-1-1-6 2-4z" fill="#9A332B"/>
<path transform="translate(901,250)" d="m0 0h3l2 10v5l-4 4-7-1-4-3 9-1v-10z" fill="#C44B23"/>
<path transform="translate(507,225)" d="m0 0h1l3 19v31l2 12h2v3h2v2l-4-2-3-5-1-5-1-41z" fill="#F03501"/>
<path transform="translate(589,752)" d="m0 0h2v7l-1 3 4 2-8 5-4-1 1-5 2-6z" fill="#79140B"/>
<path transform="translate(892,1394)" d="m0 0h10l-5 5-2 5-4 2h-7l3-1 2-9z" fill="#630E06"/>
<path transform="translate(869,263)" d="m0 0h12l-4 2-9 7-2 3-5 2-1-3 8-10z" fill="#E85B2C"/>
<path transform="translate(775,207)" d="m0 0h6l6 4 1 1v8l-10 18-3 8-1-4 2-8 7-11h2l1-9-7-5z" fill="#E12C01"/>
<path transform="translate(613,1412)" d="m0 0h28l8 1v1l-6 1h-33l-1-2z" fill="#13181C"/>
<path transform="translate(848,425)" d="m0 0 5 1-4 3-9 6-5 5-4 1-3-1v-2l9-6z" fill="#BC4524"/>
<path transform="translate(579,276)" d="m0 0 2 1v13l-3 6-5 1-1-3 4-8 2-8z" fill="#761008"/>
<path transform="translate(536,539)" d="m0 0h3v21l-1 3-3-1-1-12 1-10z" fill="#9E1D0B"/>
<path transform="translate(695,191)" d="m0 0 2 2-11 3-5 3-5 5-9 5-5 4-5 6v-3l7-9h2v-2l5-2 10-7 6-3z" fill="#B61F02"/>
<path transform="translate(580,855)" d="m0 0 6 4 11 10 10 8-3 1-7-4-5-5-2-1v-2h-4l-1-3-4-4z" fill="#7F1F18"/>
<path transform="translate(553,140)" d="m0 0 2 4-2 10-6 5v-11l3-6z" fill="#923028"/>
<path transform="translate(629,740)" d="m0 0h28l15 2 12 6v2l-9-3-10-3-11-2-25-1z" fill="#B12006"/>
<path transform="translate(779,206)" d="m0 0 10 2 10-1-1 5-5 5-3 2v-7l-4-1-7-4z" fill="#B01F03"/>
<path transform="translate(748,481)" d="m0 0h15l-3 2-10 4h-8l2-3-18-1v-1z" fill="#B81F02"/>
<path transform="translate(830,444)" d="m0 0h2l-1 3h-2v8l8 16 7 8v2h-2l-9-11-8-17 2-6z" fill="#711008"/>
<path transform="translate(348,771)" d="m0 0v3l-9 15-13 16-5 6v-3l8-11h2l2-5 6-8 2-4h2l1-4z" fill="#9E1D0B"/>
<path transform="translate(825,449)" d="m0 0 1 4 6 13v2h-2l-4-6-1-1-7-1v-3z" fill="#AD1E04"/>
<path transform="translate(854,775)" d="m0 0h3v10l-2 14h-2l-1-17-1-5z" fill="#816E5D"/>
<path transform="translate(601,443)" d="m0 0 5 3v2l4 2 5 5v2l4 2 4 5-5-1-8-7-4-5v-2l-4-2z" fill="#781107"/>
<path transform="translate(679,369)" d="m0 0h1v8h2v3l-3 1-15 1h-26v-1l34-2 4-1 1-2h2z" fill="#77130A"/>
<path transform="translate(607,389)" d="m0 0h22v1l-22 2-29 1v-2z" fill="#DB2B01"/>
<path transform="translate(645,242)" d="m0 0h1v27l5 5 6 2v1h-6l-6-3-2-3v-21z" fill="#CC2A03"/>
<path transform="translate(938,1390)" d="m0 0 1 3 1 6 10 1h24l-1 2h-33l-5-6z" fill="#7E6C5C"/>
<path transform="translate(286,847)" d="m0 0 2 1-9 10-6 7-5 3v-4l3-1 2-4 5-6 3-3h2v-2z" fill="#9C2419"/>
<path transform="translate(570,481)" d="m0 0 7 6 1 2-10 2h-7l2-4z" fill="#49130E"/>
<path transform="translate(568,264)" d="m0 0h2l-2 9-6 8-5 4-8 3-5 2 1-3 12-5 6-7 4-10z" fill="#C12101"/>
<path transform="translate(658,220)" d="m0 0 2 1-1 6-4 9-2-4-4 4-2 6-1-4 3-8h3l2-5z" fill="#E53101"/>
<path transform="translate(543,196)" d="m0 0h10l6 4 3 3-1 4-7-6-2-1h-11l-8 2 3-3z" fill="#B84324"/>
<path transform="translate(699,180)" d="m0 0 14 1v3l-8-1-13 1-13 4-10 6-2-1 5-4h2v-2l15-5z" fill="#9E1D0B"/>
<path transform="translate(733,195)" d="m0 0 7 1 15 7 14 2 10 1v1h-18l-12-3-7-3-3-3-6-2z" fill="#BA1F01"/>
<path transform="translate(605,335)" d="m0 0 4 1-3 2-1 3-4 1 1 3-3 1h-11l5-4z" fill="#7B1D18"/>
<path transform="translate(893,121)" d="m0 0h3l-2 6-2 4-3 3-1 6-4 1 2-10 4-8z" fill="#A13328"/>
<path transform="translate(267,868)" d="m0 0v3l-7 8-7 6-4 5-5 3-2 1 2-4 6-7h2l2-4 4-2 5-5z" fill="#9A2115"/>
<path transform="translate(651,232)" d="m0 0h2l1 5-3 10-1 15h-1v-19h-2l-1 2 2-9z" fill="#FB4704"/>
<path transform="translate(683,180)" d="m0 0 4 1-9 4h-2v2l-12 6-12 11v-3l8-8 13-9z" fill="#D05328"/>
<path transform="translate(771,745)" d="m0 0 12 2 6 4 5 10-1 2-5-5-5-6-12-6z" fill="#BA2104"/>
<path transform="translate(540,525)" d="m0 0h1l2 22 1 17-1 1-1 7h-1l-1-30z" fill="#F23D03"/>
<path transform="translate(500,285)" d="m0 0 5 1 4 8-1 4-5-2-3-4z" fill="#751008"/>
<path transform="translate(841,480)" d="m0 0 5 3 4 7 5 5 5 6-1 2-7-8v-2l-4-2-6-5-3-1v-3h2z" fill="#C94C27"/>
<path transform="translate(897,321)" d="m0 0h3l-1 6-8 5h-7l-3-2 8-1 1-3h2l2-4z" fill="#902B26"/>
<path transform="translate(778,236)" d="m0 0 1 3-4 11-3 9-6 13-2 5-3 2 1-5 8-16 7-20z" fill="#BE1F01"/>
<path transform="translate(703,178)" d="m0 0h12l31 6 3 2-13-1-13-3-10-1-10-2z" fill="#D0552A"/>
<path transform="translate(629,389)" d="m0 0h31v1l-28 2h-13l1-2z" fill="#F74305"/>
<path transform="translate(881,263)" d="m0 0h10v1l-12 2-5 5-4 5-5 2-2-3 3-1 5-5 6-5z" fill="#D15C2F"/>
<path transform="translate(747,204)" d="m0 0 9 1 14 2-3 2-6 2-7-1-7-4z" fill="#DF2A01"/>
<path transform="translate(501,298)" d="m0 0 1 3h2l5 5 10 5 14 1v1l-12 1-9-3-11-7z" fill="#B23E28"/>
<path transform="translate(825,185)" d="m0 0 7 2-1 5-4 6-5 5-4 2v-2l8-8h2l1-8-20 1v-1z" fill="#D2562A"/>
<path transform="translate(873,1394)" d="m0 0h6l-2 1-1 8-3 2-9 1 1-2 3-1 3-4 1-4z" fill="#9E1D0B"/>
<path transform="translate(584,351)" d="m0 0h6l-3 2-4 1v2l-5 5-1 3-1 15h-1l-1-9v-10l4-5 3-2h3z" fill="#F53E02"/>
<path transform="translate(911,246)" d="m0 0h3l-2 16-3 3-3-11v-5l2 3v4h3l-1-9z" fill="#942C24"/>
<path transform="translate(771,478)" d="m0 0h6l-3 2-10 3-7 4-4 1h-8v-1l10-3 5-2v-2z" fill="#DD2A01"/>
<path transform="translate(602,349)" d="m0 0h13l-1 2-25 3-6 1 4-3 5-2z" fill="#F84303"/>
<path transform="translate(506,199)" d="m0 0h5l-3 6-1 1-8-1-3-3 4-2z" fill="#DF6A3B"/>
<path transform="translate(777,251)" d="m0 0 4 1 1 6-2 2h-4l-2 4-3 1 2-7z" fill="#9E1D0B"/>
<path transform="translate(755,741)" d="m0 0 10 1 16 8 7 6-1 2-5-4-16-9-11-3z" fill="#6C0F07"/>
<path transform="translate(657,474)" d="m0 0 14 2 13 2v2h-11l-13-3z" fill="#C72402"/>
<path transform="translate(578,348)" d="m0 0 3 1-2 2-11 4-4-1-1-4z" fill="#7D1A13"/>
<path transform="translate(758,279)" d="m0 0 3 1-8 5-13 4-4 1h-18v-1l21-2 13-4z" fill="#B01E04"/>
<path transform="translate(524,871)" d="m0 0h6l1 1 12 1v1h-28l-11-1v-1z" fill="#A52A18"/>
<path transform="translate(705,750)" d="m0 0 3 1-13 5h-5l-3-4 5-1z" fill="#BE2405"/>
<path transform="translate(506,282)" d="m0 0 3 1 4 9 5 3h9l7-1-2 3h-16l-5-3-4-7z" fill="#BE2304"/>
<path transform="translate(694,281)" d="m0 0 24 1v1l-13 1v1h-11l-7-2v-1z" fill="#E04518"/>
<path transform="translate(227,883)" d="m0 0 1 3-6 9h-2l-1 2-2-3v-6l6-1 4-2z" fill="#9E1E0C"/>
<path transform="translate(912,1410)" d="m0 0h35v3l-6 2-2-1 1-3h-28z" fill="#291616"/>
<path transform="translate(579,352)" d="m0 0h5l-4 3-7 2-2 10-2-1v-2h-2l-2-6h5l5-4z" fill="#C62101"/>
<path transform="translate(816,205)" d="m0 0 2 1-8 8-8 7-5 7-1-2 2-4h2l1-4 6-6 5-3z" fill="#D25529"/>
<path transform="translate(722,483)" d="m0 0h25l-5 4-9 1 2-1v-2l-13-1z" fill="#9E1D0B"/>
<path transform="translate(826,192)" d="m0 0 1 3-7 8h-2v2l-4 1-2 4-4 2 5-7 3-3h2l1-4 1-2 5-3z" fill="#AC3522"/>
<path transform="translate(607,489)" d="m0 0 8 1 7 4 5 2-1 2-7-1-7-4z" fill="#C32001"/>
<path transform="translate(872,469)" d="m0 0 9 1 4 5h-5l-3 2-5-6z" fill="#9E1D0B"/>
<path transform="translate(630,734)" d="m0 0 4 1-4 4-1 2-11 2-4-1 7-3z" fill="#EA470F"/>
<path transform="translate(500,314)" d="m0 0 2 2 3 16-2 2-2-3-1-6z" fill="#C7562D"/>
<path transform="translate(571,228)" d="m0 0h1l2 10-1 18-2 8h-1l1-10z" fill="#AF1E03"/>
<path transform="translate(896,219)" d="m0 0 3 3 4 10 3 11v5l-2-4-6-17-2-3z" fill="#B01F03"/>
<path transform="translate(515,197)" d="m0 0m-4 2 4 1-5 6-3 2-9-1-3-2v-2l4 1 8 1z" fill="#B44328"/>
<path transform="translate(536,184)" d="m0 0h15l1 2h-12l-16 5-2-1 4-1v-2z" fill="#B33F25"/>
<path transform="translate(820,1412)" d="m0 0 9 1 13 3-1 2-16-2z" fill="#421410"/>
<path transform="translate(774,758)" d="m0 0 4 2 7 9 2 12-2 1-3-11-4-8z" fill="#9B3329"/>
<path transform="translate(897,327)" d="m0 0h2l-2 6-4 1h-10l-3-2 4-1h7z" fill="#B1432A"/>
<path transform="translate(880,267)" d="m0 0 2 1-4 6-3 9-4 7-2-1 6-15 4-6z" fill="#9A342C"/>
<path transform="translate(547,199)" d="m0 0 7 1v1l-10 2-9 5-3-1 4-2v-2z" fill="#F03501"/>
<path transform="translate(890,494)" d="m0 0h4l-2 5-10 3-3-1 4-1v-2h2v-2z" fill="#C32303"/>
<path transform="translate(539,182)" d="m0 0h11v1l-14 2-10 2v2l-6 2 3-5h2l1-2z" fill="#D46133"/>
<path transform="translate(793,763)" d="m0 0 2 1 4 12v2h11v1l-5 1h-7l-2-1z" fill="#B54024"/>
<path transform="translate(602,483)" d="m0 0 5 2 10 3-4 1-17-1 5-4z" fill="#A01D09"/>
<path transform="translate(757,733)" d="m0 0 2 1 1 4h-27l1-2 4-1h16z" fill="#F03501"/>
<path transform="translate(875,170)" d="m0 0 2 3 1 2v12l-3-4-3-9z" fill="#B22509"/>
<path transform="translate(623,463)" d="m0 0 21 9v1l-8-1-15-7z" fill="#6E0F07"/>
<path transform="translate(634,252)" d="m0 0 1 3-1 23h-1l-1-5v-19z" fill="#AD1F06"/>
<path transform="translate(636,466)" d="m0 0 7 1 14 5v2l-10-2-11-5z" fill="#E62F01"/>
<path transform="translate(565,144)" d="m0 0 1 3-13 13-5 2 3-5 4-2 6-7z" fill="#CC582E"/>
<path transform="translate(516,197)" d="m0 0 7 1 1 3-2 3-5-1-2-2z" fill="#8D2A25"/>
<path transform="translate(728,1203)" d="m0 0h2l2 7-1 5h-5z" fill="#9E1D0B"/>
<path transform="translate(874,586)" d="m0 0 1 4-3 11-1 9-2-1 1-15 1-4 2-1z" fill="#F23901"/>
<path transform="translate(575,352)" d="m0 0m-13 0 3 2 10-1v2l-5 4-6-1z" fill="#A01D0A"/>
<path transform="translate(546,201)" d="m0 0h10l7 8 1 9-2-2-2-8-5-4-9-2z" fill="#E6592A"/>
<path transform="translate(551,1213)" d="m0 0 3 3 1 5 4 6-1 4h-2l-4-10z" fill="#A12C25"/>
<path transform="translate(737,747)" d="m0 0h19v1l-17 2-11 1 3-2z" fill="#6F0F07"/>
<path transform="translate(681,383)" d="m0 0h7l-4 2v2h-11v-3z" fill="#670E06"/>
<path transform="translate(761,269)" d="m0 0v3l-4 5-10 6h-5l1-2 9-4 8-7z" fill="#F03501"/>
<path transform="translate(413,1055)" d="m0 0h1v7l-3 2v-2l-5-1-4-4 8 1z" fill="#9E220F"/>
<path transform="translate(226,889)" d="m0 0h2l-1 4-2 1-2 4-2 3-3-1-1-6 2 2 5-5z" fill="#932C26"/>
<path transform="translate(241,894)" d="m0 0 1 2-8 8h-2v2h-2l-1 4h-2l1-5 8-7z" fill="#8E2B26"/>
<path transform="translate(590,488)" d="m0 0h16v3h2l3 9-1 2-2-7h-2l-2-6h-14z" fill="#ED3601"/>
<path transform="translate(524,398)" d="m0 0 4 1-1 9-4-1-2-2v-3h3z" fill="#FD8352"/>
<path transform="translate(836,480)" d="m0 0 5 1-2 1-1 9-1 1h-6v-2l4-1 1-4z" fill="#F03501"/>
<path transform="translate(883,264)" d="m0 0h8v2l4 2-5-1h-8l-4 3h-2l1-4z" fill="#B84224"/>
<path transform="translate(853,1384)" d="m0 0 3 3 1 3 1 14 6 1v1h-9v-15z" fill="#AE4E26"/>
<path transform="translate(538,497)" d="m0 0h2l-2 15h-1v-10l-4-1-3-3h7z" fill="#F43B02"/>
<path transform="translate(840,430)" d="m0 0v3l-7 7-4 1-1-3 9-6z" fill="#E75727"/>
<path transform="translate(700,298)" d="m0 0 32 1v1l-26 1-6-2z" fill="#CD461F"/>
<path transform="translate(938,1390)" d="m0 0 1 3 1 6 10 1 1 2h-11l-5-6z" fill="#735F52"/>
<path transform="translate(771,745)" d="m0 0 12 2 6 4 1 4-5-3-3-2v-2h-7z" fill="#D72A02"/>
<path transform="translate(860,503)" d="m0 0h12v2l2 1-6 2-8-4z" fill="#CA4C27"/>
<path transform="translate(390,1043)" d="m0 0 7 6 1 5-8-6-3-4z" fill="#A02C17"/>
<path transform="translate(699,886)" d="m0 0 2 1-5 5h-3v2l-8 4-2-1 11-8z" fill="#B12D13"/>
<path transform="translate(511,287)" d="m0 0 4 4 6 2v2h5v1h-8l-6-4z" fill="#DF2B01"/>
<path transform="translate(774,255)" d="m0 0v3l-4 10-4 6-1-2 8-16z" fill="#A91E05"/>
<path transform="translate(497,215)" d="m0 0h4l1 3-3 5-3-1v-6z" fill="#8D2A25"/>
<path transform="translate(775,207)" d="m0 0h6l6 4 1 1v8l-3 1 1-7-7-5z" fill="#E42E01"/>
<path transform="translate(748,481)" d="m0 0h15l-3 2-10 4-3-1 7-3-6-1z" fill="#C82201"/>
<path transform="translate(649,205)" d="m0 0 3 2-7 9-2 4h-2l2-6z" fill="#C54322"/>
<path transform="translate(825,185)" d="m0 0 7 2-1 5-2-3v-2l-20 1v-1z" fill="#D25C2E"/>
<path transform="translate(697,1411)" d="m0 0 15 2v1h-21l1-2z" fill="#101317"/>
<path transform="translate(666,205)" d="m0 0h4v2l-8 6-5 6v-3l7-9h2z" fill="#AD1E05"/>
<path transform="translate(798,211)" d="m0 0v3l-5 6h-2l-2 5-1 2h-2l2-5 8-10z" fill="#A12A25"/>
<path transform="translate(546,1228)" d="m0 0h2l3 4-1 4h-4l-1-5z" fill="#781109"/>
<path transform="translate(250,883)" d="m0 0h2l-1 5-9 6 2-4z" fill="#9A261E"/>
<path transform="translate(261,869)" d="m0 0 2 1-5 7-5 4-1 2h-2l2-5h2v-2l5-5h2z" fill="#9A342C"/>
<path transform="translate(302,825)" d="m0 0h2l-1 5-3 4-6 2 2-4 5-5z" fill="#9B3029"/>
<path transform="translate(763,268)" d="m0 0h2l-2 6-2 5-7 4-2-1 8-7z" fill="#D52801"/>
<path transform="translate(568,264)" d="m0 0h2l-2 9-4 2 1-6z" fill="#BA1F01"/>
<path transform="translate(540,183)" d="m0 0h13l7 6-2 1-6-3-1-2-11-1z" fill="#BF4825"/>
<path transform="translate(576,775)" d="m0 0 2 1-4 2-2 4-8 6 2-4 8-8z" fill="#E6834B"/>
<path transform="translate(756,738)" d="m0 0 6 1 6 2 3 4-10-3-5-3z" fill="#C22303"/>
<path transform="translate(879,474)" d="m0 0 6 1 2 4-6 1-3-2z" fill="#8C2A26"/>
<path transform="translate(844,481)" d="m0 0 4 2 5 5 1 5-5-3-4-7z" fill="#7F1A10"/>
<path transform="translate(563,347)" d="m0 0 7 1 1 2-7 1h-4v-2z" fill="#8F2A25"/>
<path transform="translate(703,178)" d="m0 0h12l7 2v1h-9l-10-2z" fill="#CA5229"/>
<path transform="translate(414,1050)" d="m0 0h1v15l-4 1-3-4 4 1 1-1z" fill="#942F27"/>
<path transform="translate(530,208)" d="m0 0 2 1-10 7-3 2-3-1 9-6z" fill="#F03501"/>
<path transform="translate(415,772)" d="m0 0h2v4h2v12h-1v-8h-2z" fill="#89170B"/>
<path transform="translate(885,475)" d="m0 0 3 1 1 5-1 2-7-2 1-2 4-1z" fill="#9E1D0B"/>
<path transform="translate(831,440)" d="m0 0 2 2-5 3-8 8-2-1 7-8z" fill="#EE3401"/>
<path transform="translate(584,351)" d="m0 0h6l-3 2-4 1v2l-5 2-3 2 2-4 4-3h3z" fill="#EE3501"/>
<path transform="translate(817,200)" d="m0 0 1 2h-2l-1 3h-2l-2 4-3 3h-2l2-4 6-5z" fill="#9F2318"/>
<path transform="translate(554,190)" d="m0 0 6 3 1 6-4-2v-2l-3-1z" fill="#8C2A26"/>
<path transform="translate(771,478)" d="m0 0h6l-3 2-7 2-7-1v-1z" fill="#D82901"/>
<path transform="translate(612,452)" d="m0 0 4 2 10 10-5-2-6-5z" fill="#A91E08"/>
<path transform="translate(906,122)" d="m0 0 6 5 1 4h-3l-4-4z" fill="#A02D1B"/>
<path transform="translate(962,772)" d="m0 0 4 1 9 3 2 2-8-1-6-3z" fill="#E85C2D"/>
<path transform="translate(579,352)" d="m0 0h5l-4 3-7 3-2 2-3-1 9-6z" fill="#BF2101"/>
<path transform="translate(870,177)" d="m0 0 3 1 3 9-1 3-5-10z" fill="#EF3602"/>
<path transform="translate(887,149)" d="m0 0 2 2-2 3h-2v3h-2v2h-3l1-4 5-5z" fill="#802119"/>
<path transform="translate(1024,753)" d="m0 0h2l-2 5-4 4v-7z" fill="#FD8352"/>
<path transform="translate(682,750)" d="m0 0 5 1 3 4 5 1-2 2-5-1-4-5z" fill="#721007"/>
<path transform="translate(848,425)" d="m0 0 5 1-4 3-6 2-2 1 2-4z" fill="#C8542C"/>
<path transform="translate(881,333)" d="m0 0h16v2l-7 1-9-1z" fill="#D25F31"/>
<path transform="translate(566,142)" d="m0 0" fill="#FD8352"/>
<path transform="translate(276,830)" d="m0 0" fill="#FD8352"/>
</svg>
