<?xml version="1.0" encoding="UTF-8"?>
<svg version="1.1" viewBox="0 0 2048 2027" width="197" height="195" xmlns="http://www.w3.org/2000/svg">
<path transform="translate(1369)" d="m0 0h97l8 7 9 7 12 12 24 32 10 15 7 16 4 16 3 24v31l-5 51-4 29-7 36-13 52-16 50-18 55-10 29-11 26-7 12-1 5 8 6 17 10 16 10 13 12 12 17 9 12 10 15 5 11 5 18 2 19v57l-3 65-3 42-2 11 25-5 65-12 43-7 35-4 48-4 9-2 12-7 6-4 6-2 15-1h12l16 5 27 12 18 10 17 13 11 8 13 8 11 7 5 5 5 8 6 14 8 9 8 7 4 8 2 9v7l-3 14 1 12 1 8v10l-2 10-5 7-10 6-12 4-15 1-6 3-5 6-9 1-74 1-51 1 2 5 10 17 9 13 8 9 7 12 2 6 2 10 6 14 1 10-5 20-6 11-6 7-11 7-5 5-7 6-16 8-14 6h-10l-11-6-7-6-7-4h-10l-17 7-10 6-9 8-10 14-5 10 4 8 14 15 11 10 8 7 13 12 11 9 24 22 7 7 11 9 14 14 11 12 11 14 14 19 20 28 9 15 10 21 9 27 9 38 4 29v26l-3 23-6 25-7 24-10 25-10 19-13 19-11 14-12 13-12 12-8 7-10 9-13 10-21 13-19 9-24 8-20 4-9 1h-20l-17-3-17-6-14-7-21-13-16-12-13-10-14-12-20-20-9-11-7-6 1 11 1 51 2 43 9 136 2 43v45l-2 7-14 8-8 6-8 9-11 16-2 4h-43l-2-5-7-1-4 2v4h-13l-11-21-8-10-12-16-13-21-5-13-8-29-7-38-5-34-5-47-5-60-2-37-1-35v-51l1-6-20 9-30 10-21 5-6 1h-32l-20-4-14-5-12-7-11-9-11-10-2-1 4 15 4 31 14 101 1 13v20l-3 31-3 19-6 17-11 20-5 5-9-1-7-1-2 3-3 9-5 3h-9l-12-2-11-6-18-11-11-9-10-10-15-20-17-25-12-16-12-17-12-20-5-11-1-8 3-13v-11l2-8 8-5 4-2v-14l-7-47-12-75-10-65-12-72-4-31v-8l-28 8-19 6h-2v38l-1 65-1 140-2 23-4 17-7 17-10 21-5 12-5 4-7-6-3-7-2-4h-2l-2 9-3 2h-5l-3-2-4 1-10-6-6 1-13-4-12-6-6-7-9-14-10-14-5-8-3-1-26 10-36 12-23 8-18 5-5 1h-16l-37-10-9-2h-8l-11 7-12 9-22 14-16 9-27 14-32 15-28 10-24 7-17 4-2 1-2 22-8 40-5 13-8 14-9 12-7 7-8 7-8 8-10 13-6 7-4-2-5-6-9-7-3-2-5 1-6 9-4 5-4-2-14-19-9-13-7-11-11-12-5-7-9-25-6-24-4-8-8-7-20-8-10-9-10-15-10-14-16-20-6-10-1-2 1-9 2-4v-11l-4-10 2-12 7-20 9-14 10-10 11-9 12-9 10-4 9-2-1-48-1-75-3-107-2-57-1-22h-24l-14-3-11-8-9-2-6-4-2-3-2-11-5-9-9-7-5-3-3-4-2-10-6-14v-13l1-3v-10l-2-13 1-10 6-20 6-10 9-10 10-10 16-12 13-10 14-11 10-7 19-12 21-12 17-10 37-17 21-8 31-9 30-7 31-6 37-5 10-1h33l5 1-6-16-6-21-9-46-4-27-3-15-4 5-12 17-10 11-10 8-12 5-9 2-11 1-9 4-7 1h-11l-21-5-9-6-11-11-9-11-7-8-10-15-8-11-10-13-8-17-9-27-6-26-4-25-4-38-1-18-1-54 1-53 3-56 4-40 6-40 6-33 7-31 8-29 10-30 12-29 17-35 18-36 10-19 13-22 22-32 9-11 11-12 7-8 12-12 11-9 14-10 13-8 18-8 17-5 7-1h23l18 3 15 4 13 5 14 8 14 11 12 12 11 16 10 15 10 13 10 18 8 20 4 13 2 8 1 23 11-2 11-5 17 5 14 6h11l13 3 9 6 10 11 12 16 13 19 9 13 10 19 13 32 9 23 10 26 4 7v-23l2-19 5-23 4-11 10-14 10-10 5-4 9-16 6-8 14-7h9l7 3 3 2h5l5 5 10-2 1-3 9 1 10 6 8 7 10 13 10 15 29 43 12 19 22 38 7 14 5 6 2 1-3-11-7-57-4-49-2-32-1-24v-74l2-38 3-27 3-15 5-12 5-8 20-20 6-9 5-9 7-10 4-5 10-4 16 2 4 1 10-5 11 6 16 7 6 4 4 6 2 16 3 3 7 4 8 7 5 12 1 15-1 4 3 5 4 4 3 9 1 13 1 6-1 5 1 4-2 23-2 11-2 4 9-6 6-10 14-25 13-20 14-21 13-18 13-17 10-13 13-16 15-15 8-7 17-14 18-12 11-7zm-899 286-8 10-9 14-15 31-8 20-7 24-9 38-10 52-4 29-7 68-1 13 10-4 8-6 11-9 15-11 10-5 12-4-3-7-9-12-2-5v-16l6-36 6-35 10-73 5-52 1-21zm828 175-4 63-2 39 5-2 15-8 10-6 16-9 7-6 1-3-4-10-7-10-7-6-8-13-11-19-9-10zm-327 192-1 5 2 8 1 10v25l-1 11-5 12-6 9-13 13-8 3-40 5-10-1-8-13-4-4h-4v7l3 16 7 46 4 1h14l11 5 6 2 17-1 9 2 11 6 7 6 16 26 10 12 9 12 6 10 10 27 3 9h4l9-27 8-14 7-10 9-11 20-20 11-9 11-6 16-5 5-1h27l19 3 18 5 13 6 15 8 16 12 15 14 8 9 3 4 8-1 11-3 48-10 14-5 4-2 6-13 7-20 6-11 11-15 4-9 3-23 1-5v-8l-9 3-23 14-11 7-18 11-11 5-13 4-23 4-12 1h-15l-16-2-18-7-14-9-7-10-3-6-3-1-6 3-3 4-6 2-14 2h-26l-9-2-17-6-19-11-22-14-15-13-14-14-7-8-11-12-8-10-13-17-8-12-7-8zm-275 47-6 5-4 43-5 36-4 13-4 6-6 5-9 6-4 5-9 4-17 1-28-2-1 3 7 47 5 24 5 15 9 17 6 10 5 17v7l-2 6v11l3 13v12l-6 26-5 18 1 3 21-6 34-11 10-3h18l10 2 12 2 13 1h17l4-4 6-21 5-22 2-11 4-9-1-6-16-24-7-12-12-14-8-13-4-12-11-60-14-81-7-40-4-6zm619 371-42 10-39 10-11 2-1 2 11 7 27 27 18 22 10 14 11 16 12 17 5 7h2v-134zm-251 55 4 16 5 17 8 6 9 3 11 9h2l-2-5-14-17-7-10-8-12-6-7zm-333 76-26 10-29 14-3 4 7 1 26-3 22-3 5-5 2-8v-10zm771 10-2 111-2 95 2 7 19 6 10 5 17 12 7 6 12 24 7 6 6 4 4 5 7 25 8 23 3 2 8-4 11-7 10-8 13-12 11-13 10-15 9-14 4-10 3-15v-27l-3-20-3-12-7-9-17-14-10-9-8-7-11-10-14-11-13-12-29-29-9-11-13-15-9-11-11-14-9-12-9-10zm-326 49m1 1 2 6 10 14 9 7h3l-2-6-12-13-7-7zm-681 18-3 3-1 3v12l4 1 3-3 4-9-1-5-3-2zm709 18-32 10-23 7-32 13-25 8 4 4 14 8 22 10 20 8 14 8 11 10 5 9 5 13 3 3 4-5 6-19 5-17 3-19 1-19-3-31zm-496 121-19 4-6 3v30h8l15-5 8-6 2-7v-16l-2-3zm-349 24 1 25 2 109 10-3 14-7 19-9 20-12 22-14 19-14 10-9 5-5 6-7 5-12-2-4-21-7-68-19z" fill="#FBC107"/>
<path transform="translate(1369)" d="m0 0h97l8 7 9 7 12 12 24 32 10 15 7 16 4 16 3 24v31l-5 51-4 29-7 36-13 52-16 50-18 55-10 29-11 26-7 12-1 5 8 6 17 10 16 10 13 12 12 17 9 12 10 15 5 11 5 18 2 19v57l-3 65-3 42-2 11 25-5 65-12 43-7 35-4 48-4 9-2 12-7 6-4 6-2 15-1h12l16 5 27 12 18 10 17 13 11 8 13 8 11 7 5 5 5 8 6 14 8 9 8 7 4 8 2 9v7l-3 14 1 12 1 8v10l-2 10-5 7-10 6-12 4-15 1-6 3-5 6-9 1-74 1-51 1 2 5 10 17 9 13 8 9 7 12 2 6 2 10 6 14 1 10-5 20-6 11-6 7-11 7-5 5-7 6-16 8-14 6h-10l-11-6-7-6-7-4h-10l-17 7-10 6-9 8-10 14-5 10 4 8 14 15 11 10 8 7 13 12 11 9 24 22 7 7 11 9 14 14 11 12 11 14 14 19 20 28 9 15 10 21 9 27 9 38 4 29v26l-3 23-6 25-7 24-10 25-10 19-13 19-11 14-12 13-12 12-8 7-10 9-13 10-21 13-19 9-24 8-20 4-9 1h-20l-17-3-17-6-14-7-21-13-16-12-13-10-14-12-20-20-9-11-7-6 1 11 1 51 2 43 9 136 2 43v45l-2 7-14 8-8 6-8 9-11 16-2 4h-43l-2-5-7-1-4 2v4h-13l-11-21-8-10-12-16-13-21-5-13-8-29-7-38-5-34-5-47-5-60-2-37-1-35v-51l1-6-20 9-30 10-21 5-6 1h-32l-20-4-14-5-12-7-11-9-11-10-2-1 4 15 4 31 14 101 1 13v20l-3 31-3 19-6 17-11 20-5 5-9-1-7-1-2 3-3 9-5 3h-9l-12-2-11-6-18-11-11-9-10-10-15-20-17-25-12-16-12-17-12-20-5-11-1-8 3-13v-11l2-8 8-5 4-2v-14l-7-47-12-75-10-65-12-72-4-31v-8l-28 8-19 6h-2v38l-1 65-1 140-2 23-4 17-7 17-10 21-5 12-5 4-7-6-3-7-2-4h-2l-2 9-3 2h-5l-3-2-4 1-10-6-6 1-13-4-12-6-6-7-9-14-10-14-5-8-3-1-26 10-36 12-23 8-18 5-5 1h-16l-37-10-9-2h-8l-11 7-12 9-22 14-16 9-27 14-32 15-28 10-24 7-17 4-2 1-2 22-8 40-5 13-8 14-9 12-7 7-8 7-8 8-10 13-6 7-4-2-5-6-9-7-3-2-5 1-6 9-4 5-4-2-14-19-9-13-7-11-11-12-5-7-9-25-6-24-4-8-8-7-20-8-10-9-10-15-10-14-16-20-6-10-1-2 1-9 2-4v-11l-4-10 2-12 7-20 9-14 10-10 11-9 12-9 10-4 9-2-1-48-1-75-3-107-2-57-1-22h-24l-14-3-11-8-9-2-6-4-2-3-2-11-5-9-9-7-5-3-3-4-2-10-6-14v-13l1-3v-10l-2-13 1-10 6-20 6-10 9-10 10-10 16-12 13-10 14-11 10-7 19-12 21-12 17-10 37-17 21-8 31-9 30-7 31-6 37-5 10-1h33l5 1-6-16-6-21-9-46-4-27-3-15-4 5-12 17-10 11-10 8-12 5-9 2-11 1-9 4-7 1h-11l-21-5-9-6-11-11-9-11-7-8-10-15-8-11-10-13-8-17-9-27-6-26-4-25-4-38-1-18-1-54 1-53 3-56 4-40 6-40 6-33 7-31 8-29 10-30 12-29 17-35 18-36 10-19 13-22 22-32 9-11 11-12 7-8 12-12 11-9 14-10 13-8 18-8 17-5 7-1h23l18 3 15 4 13 5 14 8 14 11 12 12 11 16 10 15 10 13 10 18 8 20 4 13 2 8 1 23 11-2 11-5 17 5 14 6h11l13 3 9 6 10 11 12 16 13 19 9 13 10 19 13 32 9 23 10 26 4 7v-23l2-19 5-23 4-11 10-14 10-10 5-4 9-16 6-8 14-7h9l7 3 3 2h5l5 5 10-2 1-3 9 1 10 6 8 7 10 13 10 15 29 43 12 19 22 38 7 14 5 6 2 1-3-11-7-57-4-49-2-32-1-24v-74l2-38 3-27 3-15 5-12 5-8 20-20 6-9 5-9 7-10 4-5 10-4 16 2 4 1 10-5 11 6 16 7 6 4 4 6 2 16 3 3 7 4 8 7 5 12 1 15-1 4 3 5 4 4 3 9 1 13 1 6-1 5 1 4-2 23-2 11-2 4 9-6 6-10 14-25 13-20 14-21 13-18 13-17 10-13 13-16 15-15 8-7 17-14 18-12 11-7zm35 11-11 4-23 13-17 11-13 10-13 12-13 13-7 8-10 11-13 17-13 19-12 17-10 16-10 17-8 14-9 15-14 26-10 18-8 18-12 30-7 20-7 23-9 31-4 8-3-7-4-23-4-35-4-47v-24l1-26v-18l4-5 7-26 3-17 1-11v-31l-3-5-5-4-4-2-1-3v-13l2-14-1-5-9 3-15 7-10 4-4-16-2-3-5 2-4 5-6 17-11 13-11 9-5 6-5 15-4 36-1 15-1 34v58l2 36 3 38 4 28 6 50 2 18 3 20 7 38 4 17 2 15v9l-6-5-14-22-13-16-28-42-12-19-14-24-7-10-15-26-13-22-8-12-12-17-10-18-3-4h-6l-10 4h-9l-10-7-8-3-5 1-4 7-2 10-6 10-6 5-4 6-11 8-3 4-2 7-1 13-3 20-1 11v72l-3 7-13 7-10 3-14 7-4 1-4-16-3-20-8-36-7-26-12-40-8-24-9-22-12-25-10-17-9-11-5-3h-24l-11-9-7-3-9 6-11 11-9 11-11 13-11 12-8 14-12 30v2h-2l3-28 1-56-1-66-4-23-6-18-7-16-9-15-8-10-9-9-14-8-17-7-16-4-8-1h-22l-15 5-16 8-15 9-11 9-12 11-22 22-11 14-9 13-17 28-11 18-12 22-13 29-18 39-10 26-7 20-6 20-6 25-6 32-4 29-6 54-2 26-1 26-1 49v33l1 35 3 36 4 33 5 30 5 18 5 13 9 13 11 10 6 9 5 5 10 4 14 2 13-6 9-2 6 1 8-1 10-9 8-10 7-11 13-18 24-40 7-11 8-12 1-3h2l4-6 2 3 2 9 8 89 6 48 5 39 5 24 8 24 13 27 7 11 11 12 10 10 7 4 8 2h10l6-3 4-5 5-2 2-2 4 3 3 1 2 3h7l4-10 7-26 5-12 2-5v-15l-5-9-1-9 4-6 1-3v-8l-4-9-6-11-8-15-6-20-5-19-7-46-4-40-6-42-3-15-2-17 1-9 2-1h8l5 3-1 7-1 3-1 18 3 13 3 6 2-1v-3l3 3 1 10 4 1 1-5 3-1 1-4-2-4-2-1 3-4h2l1 5 4 2 2 10 3 22 3 5h4l3-6 2-9 6-1 3 9 1 2h2l2-9 8-23 4-6 2-4 3-1 1 3 3-2v19l-1 12 5 5 4-10 2-13 1-46 1-14-1-13 5-4 13-5 29-9 17-6 5-2 2 16 14 71 7 41 8 45 3 13 3 20 6 31 5 22 7 11 5 5 3 2 4-1 2-10 3 4 2-3 2 9 1 17h10l6-4 5-2 1 1h5l7-6 1-7v-9l4-3h2l1 6-8 17-8 26-10 35-10 36-10 40-5 23-3 15-4 28-8 43-11 77-2 6-21 3-43 4-24 3-25 4h-10v-9l3-31v-9l-5-6-7-2v-9l4-8 7-6 24-14 18-10 17-7 44-15 12-6 3-4-2-4h-8l-10 3-11 2-14 6-8 1-1-5 9-4 17-5 12-4 15-4 15-7 8-3 3-7-18 1-18 6-8 2-11 3-6 4h-7l3-2 8-6 9-3 5-3 18-5h7v-4h-4v-2l3-1-1-2h-16l5-6 10-5 5-5v-3l-3-2h-13l-6 1-2-1-14-2-9-2-4-3-10-1-10 3-25 8-36 10-20 8-16 8-14 8-19 11-10 9-9 10-5 9-4 11v6l6 4 4 1-2 10-4 2-4 6-2 5v6l6 4h2v8l2 5-1 2-2 13-5 17-3 23-3 33-3 35-6-1-40-13-20-8-15-9-6-8-3-9 1-9 3-7 7-13 12-16 15-16 12-12 8-7 8-11 8-16 5-11 5-17 4-19 1-14v-14l-3-18-5-18-8-21-7-11-12-12-15-7-6-2-20-2h-24l-32 3-30 5-40 10-32 10-27 12-16 8-25 13-22 13-16 11-18 13-19 14-13 11-8 7-7 7-7 14-2 8v6l3 4 8 3 1 8-9 9-2 3v7l7 10 6 4 15-3h6v16l1 1 11-1 37-10 14-3-1 4v24l5 131 2 73 1 54v121l-10-1-12-3h-7l-8 5-12 13-9 11-6 10-2 6v7l6 8 6 5 1 3-9 10-2 4v8l4 6 7 6 18 7 6 7 10 4 7-1 5-1h13l2 5 2 23 4 24 10 35 5 12 5 3 4-1 6-9 1-3 9 3 7 8 5 10 3-1 7-16 9-10 7-8 5-7 6-3 5-6 5-23 5-19v-18l-3-9 1-4 16-5 38-11 29-11 29-13 23-11 28-16 18-12 16-11 15-10h8l9 4 19 3 17 6 6 2h16l20-7 39-14 24-8 9-5 10-9 18-21 6-2 2 4v18l2 13 4 14 3 5 5 5 2-3 5-5 2-1h6l7 9 1 6-2 4 3 7 9 2 9-2 5-3 4-8 7-23 1-1 10 21 3 3 4-10 5-30v-104l1-90 2-52 1-11 2-4 16-6 39-11 43-14 5-1 1 14 6 36 11 68 12 72 18 120 10 55 4 19 1 8v9l-2 3-1 9-4 4-2 3h-15l1 5 6 10 16 21 12 20 7 10 15 8 5 2 6 8 5 4 2 1h7l9-2 5-5 4-16 1-2 4 2 14 9h2l2-8 5-37 1-19-1-24-4-37-10-73-4-39-10-67-2-10-2-23-6-32-1-13 4 14 5 30 4 13 14 24 22 33 9 12 12 13 13 9 15 6 16 3 7 1h13l17-3 35-11 13-7 11-9 14-14 8-10 7-10 7-12 8-18 6-13 3-10 2 17v12l-1 17v68l2 118 2 42 6 64 5 41 7 44 11 50 6 16 5 8 4 2 2 3h4l5-8v-4l7 3 6 5 4 4 9 5 5-1 3-3v-16l7-2 6-7 5-5 7-2 7-1 3-4v-21l-3-65-4-54-3-37-3-57-1-48-1-72v-26l11 13 11 14 10 13 12 16 9 11 18 18 22 18 18 13 15 10 22 12 15 5 11 2h17l17-4 26-9 16-8 12-7 16-12 10-9 8-7 12-11 17-17 12-18 11-19 8-17 13-35 5-17 3-21v-28l-3-26-6-23-7-21-8-19-12-23-12-18-9-11-14-14-7-8-10-10-8-7-12-11-11-9-9-9-8-7-12-11-8-7-10-9-10-8-7-8-13-17-10-15-5-9-2-7 1-16 3-11 6-12 9-10 6-7 10-7 21-10 12-4h16l7 3 15 11 6-1 5-5v-2l4 1h7l5-6-1-8-1-3v-7l1-1h7l6 3 2 2h6l6-6 3-11-1-7-5-9-3-16-6-9-8-8-8-7-8-8-13-10-12-6-15-5-18-4-31-2h-14l-20 2-23 5-17 7-25 15-13 11-12 11-10 12-10 16-9 18-3 10-4 11-7 21-2 13v18l5 19 10 21 9 12 9 11 22 28 13 16 12 14 30 30 8 7 13 11 11 9 7 7 11 9 10 9 9 7 12 11 7 9 7 11 8 17 5 15 5 28v28l-3 14-4 12-12 23-9 14-12 13-6 7-5 4-5 5-12 10-10 7-16 8-17 7-1-3-6-4-7-8-11-15-9-15-8-21-10-30-8-11-18-11-6-3-5 1-7 9-1 4-7-1-14-7-10-1-6 3-1 1-1 20-2 5-4 1 1-17 1-13 3-139 2-120 1-38v-118l-1-9 2-3 3-1 11-1 5-6 2-7 2-9 5-12 5-14 6-3 64-16 33-8 34-7 42-10 32-7 35-5 19-2 37-2 65-1 20-1 5-4 3-6 5-3 14 2 9-1 5-3v-10l-6-13v-8l7-11 1-4-4-8-8-7-11-7-34-25-10-6-28-13-8-3h-5l-11 11-5 3-13 2-43 1-48 3-36 4-62 12-43 8-54 11-10 1 1-16 5-45 7-85 3-49v-37l-3-19-6-21-6-11-8-9-11-4-10-5-9-7-6-5-10-4-11-2h-7l-14 4-9 4-11 6-10 6-23 13-20 12-16 11-16 10-18 12-12 9-8 5-4 1-3-10-4-17-2-14v-53l1-33 2-26 5-33 6-31 16-64 7-25 10-29 10-25 12-26 10-19 24-30 11-12 9-9 9-5h4v27l-6 48-5 33-8 34-9 31-11 34-13 43-6 19-1 5v16l3 5 1-2h5v2l6 1 4-1 2 1 2 7-2 9-1 3v11l3 3 4-1 1-7 4-4 5 3 5 10 5-1 8-14 7-10 4-6 4-3 1 9-3 6-1 13 2 3 4-1 6-8 4-9 12-28 12-33 10-28 17-56 12-36 6-22 7-30 4-24 7-51 2-19 1-18v-22l-3-22-5-16-7-13-11-13-14-10-15-8-13-4zm-106 450-4 63-2 39 5-2 15-8 10-6 16-9 7-6 1-3-4-10-7-10-7-6-8-13-11-19-9-10zm-602 239-6 5-4 43-5 36-4 13-4 6-6 5-9 6-4 5-9 4-17 1-28-2-1 3 7 47 5 24 5 15 9 17 6 10 5 17v7l-2 6v11l3 13v12l-6 26-5 18 1 3 21-6 34-11 10-3h18l10 2 12 2 13 1h17l4-4 6-21 5-22 2-11 4-9-1-6-16-24-7-12-12-14-8-13-4-12-11-60-14-81-7-40-4-6zm35 502-26 10-29 14-3 4 7 1 26-3 22-3 5-5 2-8v-10zm771 10-2 111-2 95 2 7 19 6 10 5 17 12 7 6 12 24 7 6 6 4 4 5 7 25 8 23 3 2 8-4 11-7 10-8 13-12 11-13 10-15 9-14 4-10 3-15v-27l-3-20-3-12-7-9-17-14-10-9-8-7-11-10-14-11-13-12-29-29-9-11-13-15-9-11-11-14-9-12-9-10zm-1006 68-3 3-1 3v12l4 1 3-3 4-9-1-5-3-2z" fill="#040303"/>
<path transform="translate(923,543)" d="m0 0 4 2 10 14 7 11 13 19 17 25 14 19 11 14 12 14 7 8 9 10 10 10 12 9 20 12 16 9 11 4 7 1h19l10-4 15-10 9-3 6 1 7 6 11 20 6 5 16 6 12 3h14l24-4 21-6 11-6 16-12 18-11 30-20 19-12 15-9 13-7h4l1 2-1 32-6 94-5 37-3 7h-3l-4-5h-3l-6 12-7 20-10 18-4 4-29 7-14 4-50 10-9 3-4-1-5-5-8-10-9-10-7-8-10-8-19-11-20-8-22-4-9-1h-10l-10 2-12 6-12 9-10 9-10 11-16 24-6 13-5 17-3 21-1 16v15l2 17 5 23 12 31 15 31 8 16 9 16 10 15 13 18 11 14 27 30 12 12 8 7 13 13 8 7 19 19 9 14 5 11 5 19 3 19 1 12v15l-2 18-5 25-8 24-9 17-7 8-12 7-10 3-8-1-3-2-2-7-1-18-3-10-3-6-6-7-12-8h-20l-7-6-7-8-2-1h-6l-3 3-2 5-3 12-4 3-3 1-13 1-2 1-2 3-4-24-4-27-8-45-4-16v-7l5-3 4-1 18-2 7-2 8-7 6-4h21l4-2 1-4h-5v-11l-4-6-5-7 2-4 9-2 3-3v-2l-8-6-7-2-6-4-7-3-10-4-6-7-4-7-9-4-21-2-9-2-3-4-4-31-7-40-5-24-10-49-5-29-13-51-8-27-16-45-8-19-6-11-7-9-9-6-7 1-5 3h-13l-7-8-4-2h-6l-10 9-13 17-8 13-6 5-4-1-1-3v-25l-4-29-6-26-8-44-3-18-5-38-4-28-5-28-4-21-1-3v-7l5-6 13-5h7l1 2v24l1 18 3 20 4 11 2 4h3l5-11 1-1h5l7 8 2 1 4 16 2 4 2 1v2h8l3-3 9-1 2-1 4-13 1-17 5-6 3 1 5 12 4 13 4 1 1-4v-13l-1-16-1-36-4-49 1-9zm48 110-1 5 2 8 1 10v25l-1 11-5 12-6 9-13 13-8 3-40 5-10-1-8-13-4-4h-4v7l3 16 7 46 4 1h14l11 5 6 2 17-1 9 2 11 6 7 6 16 26 10 12 9 12 6 10 10 27 3 9h4l9-27 8-14 7-10 9-11 20-20 11-9 11-6 16-5 5-1h27l19 3 18 5 13 6 15 8 16 12 15 14 8 9 3 4 8-1 11-3 48-10 14-5 4-2 6-13 7-20 6-11 11-15 4-9 3-23 1-5v-8l-9 3-23 14-11 7-18 11-11 5-13 4-23 4-12 1h-15l-16-2-18-7-14-9-7-10-3-6-3-1-6 3-3 4-6 2-14 2h-26l-9-2-17-6-19-11-22-14-15-13-14-14-7-8-11-12-8-10-13-17-8-12-7-8zm93 473 4 16 5 17 8 6 9 3 11 9h2l-2-5-14-17-7-10-8-12-6-7zm112 135m1 1 2 6 10 14 9 7h3l-2-6-12-13-7-7zm28 36-32 10-23 7-32 13-25 8 4 4 14 8 22 10 20 8 14 8 11 10 5 9 5 13 3 3 4-5 6-19 5-17 3-19 1-19-3-31z" fill="#040303"/>
<path transform="translate(475,196)" d="m0 0h5l6 8 5 15 5 25 1 10v38l-2 21-3 28-3 31-6 37-5 34-8 38-1 8v20l2 2 1 8h2l5-10 7-3 4 2 3 12 2 4v6l-1 2v7l1-3 3 1 2 5 5 1 1-4 4 3v3l10-7 4-9 8-16 4-5 3 1 2 6v9l-3 6-1 7-1 4 4 1v-2h2l2-4 5-12 3-10 4-10 6-17 5-12 2-1v14l-5 34-3 29-2 14-2 15-4 5-11 4-9 2-5 5-4-2-7-6-8-4-16-2-9-5-8-9-3-2h-9l-9 5-14 10-17 12-20 16-12 10-7 8-14 20-9 15-11 16-5-1-1-3v-91l2-41 4-56 3-26 8-45 10-53 7-28 8-24 10-21 8-15 9-19 7-11 11-14 12-11 7-8 9-9 9-5zm-5 90-8 10-9 14-15 31-8 20-7 24-9 38-10 52-4 29-7 68-1 13 10-4 8-6 11-9 15-11 10-5 12-4-3-7-9-12-2-5v-16l6-36 6-35 10-73 5-52 1-21z" fill="#040303"/>
<path transform="translate(313,1381)" d="m0 0 10 1 48 12 55 16 40 12 21 9 12 8 8 8 6 10 5 15-1 12-6 18-6 10-9 11-13 13-15 11-12 8-16 10-18 10-19 10-21 9-28 11-23 9-4 1h-8l-1-4-1-20-2-85-2-80zm47 62 1 25 2 109 10-3 14-7 19-9 20-12 22-14 19-14 10-9 5-5 6-7 5-12-2-4-21-7-68-19z" fill="#040303"/>
<path transform="translate(1158,1010)" d="m0 0 10 1 7 1 6 8 5 10 2 1h11l14-1 11-7 8-1 8 3 4-1 6-3 22-3 63-8h5l1 1v167l-1 36v79l-2 13h-2l-11-28-9-21-8-16-8-14-10-15-16-26-13-18-12-14-11-13-9-10-3-2v-2h-2l-7-8-17-17-8-7-9-10-7-8-9-9-7-10-4-8-4-13-1-13 2-10 3-3zm157 61-42 10-39 10-11 2-1 2 11 7 27 27 18 22 10 14 11 16 12 17 5 7h2v-134z" fill="#040303"/>
<path transform="translate(737,1356)" d="m0 0h8l1 5-3 25-2 26-2 57-4 4-7-1h-9l-38 11-29 9-7 1-3-9-3-30-4-60v-21l10-4 23-5 31-4zm-28 63-19 4-6 3v30h8l15-5 8-6 2-7v-16l-2-3z" fill="#040303"/>
<path transform="translate(382,1099)" d="m0 0h16l8 2 8 7 3 11-1 9-7 12-12 16-8 7-11 10-8 7-28 28h-2l-2 4-10 10-7 9-4 5-3 2h-4l-2-9-3-49-2-25-1-3v-12l3-6 15-10 10-6 23-11 14-5z" fill="#040303"/>
<path transform="translate(885,1027)" d="m0 0 4 2 3 6 2 12 11 45 13 66 4 20v13l-19 7-48 16h-4v-8l11-74 5-30 5-35 8-27 3-10z" fill="#040303"/>
<path transform="translate(876,994)" d="m0 0 4 1 1 1v8l-3 7-6 29-4 14-3 14-5 22-4 27-3 17-3 28-2 7h-2l-2 8-4 2-1-1v-19l2-23 4-23 3-19v-9l1-5v-14h-2v2l-3 3-1 25-5 7-3 5-3-2-3-31-4-17-3-5-1-11-1-6 3-5h2l2-4 4 3 3 12 3 19 1-1v-19l-1-8-4-6-1-9 1-14 3-8 4-1 3 16v3l5 1 1 3 7 1v11l3-1 7-21 8-12z" fill="#CD9A05"/>
<path transform="translate(1071,100)" d="m0 0 2 1-9 8-3 9v9l-3 34-1 24 2 12 6 11 2 8 1 17-1 28-3 26-4 13v19l3 48 2 18 4 25 1 4 3 43 1 5v18l1 9 2 9 5 25v24l-10-10-8-14 1-2 10 15 5 4v-9l-2-15-4-17-4-23-3-15-3-20-6-50-2-21-3-16-3-32-2-29-1-22v-58l1-34 3-34 2-17 5-15 7-8z" fill="#CD9A05"/>
<path transform="translate(663,448)" d="m0 0 3 1 6 15 7 28 6 23 4 12 1 11-12 6-21 8-10 1 1-16 3-25 2-25 5-24z" fill="#040303"/>
<path transform="translate(1380,151)" d="m0 0 5 1 1 2v23l-5 53-4 24-5 22-5 20-3 10-5 14-5 18-8 24-4 17-6 20-8 26v7l2 5 10-1 8 4 3 4v14l-3 9-2 3v8l2-3 4-8 16-4 11-1 6-10 5-4 4-5 6-1 9 1 6-9 6-13 2-5 1 3-10 27-8 18-6 12-5 6-4-1-1-6 1-9 3-6-1-9-6 5-8 13-6 10-4 6-5-1-5-10-5-2-4 7-1 5-5-1-1-2v-11l2-5 1-8-2-6-5-1-5 1-2-1v-2h-5l-1 2-3-5v-16l6-21 8-26 11-36 7-21 9-31 7-31 3-18 7-56 1-7v-27l-6 1-4 1 4-4z" fill="#CD9A05"/>
<path transform="translate(696,1052)" d="m0 0 10 1 4 3 14 3 9 1 6 1 2-1h13l3 2-1 4-4 4-11 6-4 5h16v3h-2v2h4v4h-7l-21 6-4 3-9 3-6 5-3 2h7l9-5 8-2 17-5 9-3 18-1-3 7-12 5-14 6-22 6-4 2-4-1 8-4 24-6 5-4-2-1v-2l-8 2-11 1-4 3-10 1-1 3-16 3-10 3 1-5 7-6 13-4 18-9 8-3 5-3 5-1v-2h-8l-10 2-6 4-15 5-14 3-7 2h-6l1-3 8-5 4-4 8-4 15-5h8l9-6 12-2 7-5h2l-1-3h-9l-5 3-5-1-4-2-12 1-3 1v2l-18 3-31 11h-10l-2-9 9-3 11-7-4-2 16-5z" fill="#CD9A05"/>
<path transform="translate(483,199)" d="m0 0 4 4 8 22 2 7 3 22v33l-4 45-5 37-8 51-5 35-2 20 1 19 4 4 9-5h5l2 2 4 1 2 9v5l5 5 4 3 3-1 7 5 4 1 2-5 1 3-7 14-3 5-7 5h-2l-3-5-2 3h-5l-3-6-2-1-1 4h-1v-8l1-2v-6l-3-7-2-9-3-1-7 2-2 5-3 6-3-1-1-8-2-2v-20l4-23 6-28 4-29 6-37 4-39 3-26 1-15v-38l-3-21-5-21-4-10z" fill="#CD9A05"/>
<path transform="translate(1098,61)" d="m0 0 3 1 5 16v2l21-9 11-5 3 1-1 14-1 4v13l2 4 6 3 4 4 1 3v31l-2 16-4 20-6 20-3 3v23l-1 26v19l6 67 5 34 3 10h2l4-10 10-35 8-25 10-26 9-22 9-19 2-1-3 9-8 17-13 32-6 18-4 13-7 25-5 21-5 12-3 1-4-4-2-9-3-29-3-25-2-19-2-3v-7l-2-9-2-40-1-15-4-12v-3h-2l-4-16-1-11 3-6 3-1 6 8 5 5h3l4-9 4-20 2-15 1-18v-22l-1-2-10-2-2-2-1-16 2-10-8 1-9 2-10 3-6 3-2-1-2-20z" fill="#CD9A05"/>
<path transform="translate(570,461)" d="m0 0 4 1v29h-2l1 2v7l3 12v5l-1 3 2 5-1 7h-6l-1 5-4 6-2 32-5 10-3 3h-2l1 3-3 4-7-1-5 5-4 1 1-8-5 2v3l-3 2h-6l-5-4-3-5-7-4-14-1-9-5-7-8-6-3h-9l-6 3-2-1 7-5 3-1h9l5 4 7 8 8 4 16 2 11 6 5 5h4l6-5 11-2 8-4 2-3 3-25 2-14 3-28 4-25v-13l-5 12-8 23-3 6-4 13-3 7-3 4h-2v2l-4-1 1-11 3-7v-8l-2-6-4 1 2-4 8-7 5-3h5l7-14 4-11z" fill="#CD9A05"/>
<path transform="translate(643,653)" d="m0 0 2 1-3 3 1 19-1 8-1 46-3 16-3 7-5-5 1-12v-19l-4 2v-3l-4 2-4 8-4 9-6 18-1 6h-2l-4-9v-2l-6 1-3 11-3 5-4-2-2-4-4-26-1-6-4-2-1-5-3 1-2 3 2 1 2 6-2 3h-2l-1 5-4-1-1-10-3-3-1 4-3-4-3-9-1-10 1-14 2-5v-5l-5-3-8-1v-1h9l6 3 2 2v5l-4 7 2 5v3h-2v13l1 7 11-6 6-1 4 4 2 4 1-1h5v2h2l4 7 3 9 2 3h6l4 2 5-6 5-14 7-10 8-11 3-8 2-7v-12l3-12v-8z" fill="#CD9A05"/>
<path transform="translate(1052,1303)" d="m0 0h1l10 57 4 26 2 10 3-2 13-1 6-3 4-15 3-5 2-1h6l8 7 8 8h20l14 10 6 7 4 10 1 5 1 18 2 7 10 3v1h-8l-5-2-2-5-1-23-5-13-7-7-10-7-9-1-10 3-5-5-9-11-4-2h-6l-2 7-2 12-4 5-7 2-13-1 2 16 4 16 3 16 3 17 4 13 9 17-1 2-11-19-5-21-4-24-3-10 1 13 6 32 2 23 6 36 7 48 4 40 7 52 4 29v10h-1l-3-23-3-16-5-39-3-16-3-9-4-36-1-5v-8l1-5-3-25-3-1-1-3 1-3v-10l-3-19-2-20-5-21-5-36-2-10-1-16-3-7v-14l-2-10-4-30-2-11z" fill="#CD9A05"/>
<path transform="translate(1015,1075)" d="m0 0h1l5 26 3 14 7 42 2 18 2 3 9 2 21 2 10 5 7 11 4 3 10 4 10 5 3 2 6 2 8 6-2 4-2 2-9 2v4l7 10 1 2v10l5 1-2 5-3 2h-22l-8 6h-2v-7l6-3h2l-1-4 2-6-6-8 1-5 9-7 1-3-4-1 1-4 4-4 1-3-7-2-5-5-9-2-6-4-4-10-7-3-10-2-13-2-9-3-3-9-1-16-5-29-1-12h-2l-1-2-3-25z" fill="#CD9A05"/>
<path transform="translate(1454,1036)" d="m0 0 2 4v118l-1 38-2 120-3 139-2 28v2l4-1 2-5 1-20 4-3 8-1 10 3 6 4 5 2h5l2-6 6-7 5-1 15 8 10 7 7 10 1 5-3-4-7-8-19-12-3-2h-5l-4 5-4 9-5 3-5-1-9-6-8-1-5 3-2 4-2 11-4 6-9 1-1-2v-13l1-19 1-41 1-21 1-7 1-27 2-79 1-64 1-40z" fill="#CD9A05"/>
<path transform="translate(1334,1451)" d="m0 0 4 4 1 4 1 26v48l3 76 1 88 1 43 1 16 3 45 2 24v8h-1l-5-43-5-55-2-42-2-118v-68l1-22v-11l-2-13-4 12-2 2 2-11 2-12z" fill="#CD9A05"/>
<path transform="translate(647,437)" d="m0 0 3 1 1 13-5 18-1 16 1 14 1 1v21h2l1-17 3-25 5-23 4-14h4l6 9 2 4 6 36 2 7 2 5 3 14 3 8 1 14-2-1-1-11-8-26-8-33-6-17-3-3-2 9-4 14-3 16-3 32-3 29-1 5 3 1-7 2v-31l-2-4-4-1-4-4 1-27 2-12 3-13 5-19z" fill="#CD9A05"/>
<path transform="translate(1303,162)" d="m0 0h6l5 5 11 2 4-1 5-3 4 1 1 12 2 1-3 6-1 1h-5l-1 9-8 9-9 5-5 2-1-4 5-12 1-5h-3v2l-3 2-6-1-7-8-3-5 1-9 3-5z" fill="#CD9A05"/>
<path transform="translate(813,1006)" d="m0 0h1v8l-4 17-7 19-2 14-4 6-3 7-2 3-2 7-1 4 1 3-2 6-4 1-2 4-3 1-3 10-4 18-3 11-1-4 6-33 4-28 4-17 2 2 4-10 4-16 7-15 2-7 5-6z" fill="#CD9A05"/>
<path transform="translate(878,297)" d="m0 0 7 1 8 4 7 5h9l8-2-3 3-6 3h-10l-6-5-4-4-8-3h-2l-2 6-2 12-7 9-5 5-3 7-7 4-7 5-2 8-3 38v21l2 6 1 7 3 2v9l3 8v9l1 12-5 8-2 1h-8v2l-6 4-3-1 5-3 3-7v-72l3-27 1-4 1-13 3-9 7-6 8-6 4-6 5-4 6-11 2-10z" fill="#CD9A05"/>
<path transform="translate(284,322)" d="m0 0 1 3-10 28-8 29-5 24-4 25-2 13-4 29-4 40-2 56-1 30v91l4 49 4 31 5 24 2 5-1 4-5-16-5-28-4-29-3-30-1-16-1-35v-33l1-49 1-26 3-36 7-61 6-35 10-42 9-27z" fill="#CD9A05"/>
<path transform="translate(1337,1009)" d="m0 0 5 1 1 1 1 24v252l-1 30-2 4h-5l-3-7-8-32-2-5 1-4 11 28 1 5h2l1-13v-79l1-46v-157z" fill="#CD9A05"/>
<path transform="translate(1398,658)" d="m0 0h3l1 4 1 23-1 57-2 19-3 17-6 56-3 13-3 3-7-1-3-1-7 1-4 9-1-3 7-20 5-8 4 1 3 3v2l3-1 2-6 5-37 6-94 1-34-4-1z" fill="#CD9A05"/>
<path transform="translate(418,1006)" d="m0 0h24l20 2 13 5 9 5 12 12 3 5-1 2-5-6v-2l-5-2-7-3-2-5-5-2-11-3-15-2h-24l-39 6-9 1h-24l-2 1-17 2-10 1 4-2 39-9 29-4z" fill="#CD9A05"/>
<path transform="translate(390,302)" d="m0 0 1 2-6 14-8 27-7 32-7 38-8 45-3 26-4 56-2 41v91l1 3h4l7-10 1 2-7 13-3 2h-5l-1-1-1-85 2-58 4-36 3-33 4-27 7-38 4-24 8-36 6-20 7-19z" fill="#CD9A05"/>
<path transform="translate(1633,948)" d="m0 0h14l31 2 18 4 15 5 14 7 15 13 10 10 8 7 4 4-1 2-7-6-8-7-7-8-11-9-14-8-10-4-5-1-15-1-6-1-25-1h-49l-12 1-9 2 4-3 16-4 17-3z" fill="#CD9A05"/>
<path transform="translate(1263,140)" d="m0 0 2 3v2l6-1 4 2 1 6-9 19-6 10-6 8-5 5-5-1-1-6 2-7 3-7 6-12v-3l-2-2 8-13z" fill="#CD9A05"/>
<path transform="translate(1807,1378)" d="m0 0 2 3 6 16 6 21 3 16 2 19v28l-3 21-6 20-5 13-1-4 5-20 1-7 1-17 2-16v-18l-3-21-6-26-2-19-2-5z" fill="#CD9A05"/>
<path transform="translate(1316,225)" d="m0 0 1 2-8 16-9 20-13 35-7 22-14 54-9 39-7 42-2 18-1 16-1 33v53l3 20 5 17 1 4 4 1-5 1-4-6-2-12-4-22-1-12v-28l2-54 2-26 3-19 6-34 7-31 7-29 9-31 4-13 11-31 5-14 8-16 6-11z" fill="#CD9A05"/>
<path transform="translate(1416,523)" d="m0 0 14 1 12 4 6 4 8 7 10 6 12 4 7 6-1 2-7-5-12-3-8-4-11-8-3-2v-2l-14-1-15 3-16 2-14 4-24 12-9 3 3-3 24-13 11-7 11-5 11-4z" fill="#CD9A05"/>
<path transform="translate(812,614)" d="m0 0h1l6 36 5 29 5 39 3 22 6 31 5 25 5 23 3 24v25l1 3 5-1 5-6 5-8 1 2-6 11-8 7h-5l-1-2-1-30v-11l-3-8-3-6-3-18-1-21-5-27-4-24-4-28-3-6-1-20-5-32-2-15-1-3z" fill="#CD9A05"/>
<path transform="translate(1494,573)" d="m0 0 2 3 5 19 2 15v37l-4 63-5 60h-1v-14l2-31 1-66 2-33-2-26-1-17z" fill="#CD9A05"/>
<path transform="translate(919,552)" d="m0 0h1l2 18 3 36 1 36 1 16v13l-2 5-5-2-7-21-2-4-2-1v-2h3l5 5 2-7v-53l1-6-1-17z" fill="#CD9A05"/>
<path transform="translate(1447,1542)" d="m0 0 5 5 4 5-1 2-6-7v26l1 72 1 48 3 57 4 49 3 42 3 65v21h-1l-3-57-2-34-1-9-2-34-5-70-2-37-1-29-1-114z" fill="#CD9A05"/>
<path transform="translate(399,253)" d="m0 0 4 1 5 7 4-2-2 6-3 4-2-2-6 9-4 9-1 3-9 6-5-1v-11l6-16 9-11z" fill="#CD9A05"/>
<path transform="translate(874 1e3)" d="m0 0h3v7l-4 18-9 33-2 2-2-1-4 17-2 11h-2l2-17 2-18 5-26 5-15 5-6z" fill="#040303"/>
<path transform="translate(1492,770)" d="m0 0h1v11l-6 54v7l16-2 58-12 10-1 4 1 1 2-11 3-10 2-7 3-19 5-22 2-4-1v2l-9 1-9-2v-14l5-40z" fill="#CD9A05"/>
<path transform="translate(731,736)" d="m0 0h1l7 33 2 13h3l3 8 3 25 1 10 2 5 2 7 3 17v21l1 12-2-4-8-40-3-17-1-9-3-13-11-61z" fill="#CD9A05"/>
<path transform="translate(532,1186)" d="m0 0h4l1 2 1 12h2l-1 4-1 1v6l3 2-4 3-5 14-2 9-4 37-1 9-2 26-2 17-4 2-33-10-23-7-19-10-10-9-4-6-1-4v-13l2-6 2-1-2 11 1 7 3 8 6 7 11 6 12 6 36 12 17 6h4l3-35 3-33 3-23 5-17 2-13 1-4-2-3v-8l-6-2-1-2z" fill="#CD9A05"/>
<path transform="translate(908,648)" d="m0 0v3l-3 3-1 17-4 13-5 2-7 1-3 3h-6l-2-1v-2l-3-1-3-6-2-14-4-2-5-6h-5l-6 12-4-1-5-11 1-4 2 4 7-2 5-4 6 1 7 5 5 6 2 8 3 5v2l4 1 5 2v-2l5-3h7l2-6 2-18z" fill="#CD9A05"/>
<path transform="translate(586,170)" d="m0 0 2 4 3 19 1 75-1 47-3 28h2l3-9 7-18 3-7 1 3-7 19-6 16-2 5-4 1-2-3 1-14 3-26 1-31v-90l-2-13z" fill="#CD9A05"/>
<path transform="translate(836,1357)" d="m0 0h1v20l-1 29-1 90v104l-2 13h-1v-98l1-83 1-39z" fill="#CD9A05"/>
<path transform="translate(1611,1287)" d="m0 0 4 2 5 3v2l4 2 14 13 14 11 6 5 5 3 11 11 4 5 2 1v2h2l6 16 4 7 6 18 4 16 3 16v18l-3 17-3 9-1-3 3-14v-28l-5-28-5-15-10-21-8-11-9-10-10-9-9-7-8-7-11-9-7-7-8-7z" fill="#CD9A05"/>
<path transform="translate(630,1211)" d="m0 0h1v9l-3 31v9h10l38-6 40-4 31-3 4 1-16 4-28 3-25 4-26 2-13 3h-10l-7-1v-14z" fill="#CD9A05"/>
<path transform="translate(438,725)" d="m0 0h4l4 13 1 27 3 31 2 22 6 54 5 40 3 16 2 10v6l-2-3-5-24-9-70-4-38-6-70-3-10-3 1z" fill="#CD9A05"/>
<path transform="translate(1253,1191)" d="m0 0 7 1 6 3 8 9v3l3 1 2 3v12l-1 2-6-1-5-5-6-8-3-3-6-14z" fill="#CD9A05"/>
<path transform="translate(1123,839)" d="m0 0h10l22 3 15 4 20 9 17 11 10 9 9 10 7 8-1 2-8-8-9-11-12-10-16-9-14-6-12-3-12-1-21-1h-14l-11 1 4-3 9-4z" fill="#CD9A05"/>
<path transform="translate(1489,64)" d="m0 0 2 3 4 20 1 10v22l-2 29-5 37-6 41-7 31-5 19-3 10-1-4 5-18 2-9 2-19 2-7h2v-7l2-8 8-53 2-17 1-16v-23l-1-18-3-17z" fill="#CD9A05"/>
<path transform="translate(1744,1047)" d="m0 0h6l10 5 2 2 6-1-2 3h-6l-5-4-3-1h-7l-1 1v7l2 6-1 7-4 4h-7l-4-1-2 5-5 3-5-1-11-8-6-4-4-1-15-1v-1h17l7 2 11 7 2 2h2l2-4 5-4 7-1 7-5-1-12z" fill="#CD9A05"/>
<path transform="translate(885,1021)" d="m0 0 5 5 4 9v12l-2-3-1-9-4-7h-2l-3 7-4 15-5 17-5 35-5 30-5 35h-1v-10l3-19h-2l-1 4-1-2 2-10 1-11 3-4 2-4 3-16 1-19 2-12 4-9 6-21 4-12z" fill="#CD9A05"/>
<path transform="translate(1812,786)" d="m0 0 7 1 17 7 19 9 15 10 21 16 15 10 8 6 5 7 1 4-4 8-2 1 1-5 1-1v-7l-5-6-11-7-17-12-14-11-14-9-24-11-14-6-7 1-7 7-2-1z" fill="#CD9A05"/>
<path transform="translate(1635,1185)" d="m0 0 5 5 7 8 5 5 15 14 8 7 10 9 8 7 13 12 10 9 11 9 9 9 8 7 10 10 7 8 11 11-1 2-22-22-4-5-8-7-14-13-9-7-15-14-13-12-8-7-12-11-13-12-8-7-8-10z" fill="#CD9A05"/>
<path transform="translate(767,1093)" d="m0 0h6l-3 7-12 5-14 6-22 6-4 2-4-1 8-4 24-6 5-4-2-1v-2l-8 2-11 1-4 3-10 1 2-3 11-3 17-5 9-3z" fill="#CD9A05"/>
<path transform="translate(333,217)" d="m0 0 1 3-5 12-2 2-1 4h-2l-2 6 3-1 6-1 3 4-1 2v9l-4 10-2 3-4-1-2-8 2-6-2-3-5 1 1-5 8-17z" fill="#CD9A05"/>
<path transform="translate(1191,1233)" d="m0 0 4 2 16 16 4 3 8 17 4 9 6 25 2 10 1 22-2 19-2 10-4 15h-1l1-9 3-18 1-12v-15l-2-17-3-18-5-17-8-16-8-10-15-15z" fill="#CD9A05"/>
<path transform="translate(313,1426)" d="m0 0h1l3 114 1 51 1 24h7l-4 2h-5l-1-7-2-53-1-76z" fill="#CD9A05"/>
<path transform="translate(979,922)" d="m0 0 2 2 11 38 10 40 3 18v6l-2-4-3-10-2-3-2-11-4-14-4-15-3-14-1-7-4-20z" fill="#CD9A05"/>
<path transform="translate(539,678)" d="m0 0 3 1-2 1-1 9 3 23 3 17 6 41 4 41 6 38 8 30 2 9-2-2-7-23-5-25-3-21-2-6-4-36-4-35-3-22-3-18-1-9v-10z" fill="#CD9A05"/>
<path transform="translate(1799,798)" d="m0 0 2 1-4 4-12 3-48 1-24 1-5 1-22 1-4-3 40-3 18-1 43-1 13-2z" fill="#CD9A05"/>
<path transform="translate(508,1059)" d="m0 0 2 2 5 18 3 18v14l-1 14-6 27-2 2v-17l1-3v-9l3-6v-15l1-9-1-3v-7h-2l-2-6v-13z" fill="#CD9A05"/>
<path transform="translate(471,82)" d="m0 0h22l18 3 19 7 15 8 10 9 5 5-1 2-11-11-11-6-10-5-12-4-22-3-11-1h-9l-15 3-8 3-3-1 17-7z" fill="#CD9A05"/>
<path transform="translate(831,588)" d="m0 0h6l5 3-1 11 1 1v9l-1 11-1 5 1 1-1 25-2-4-2-16-1-18v-25l-7-1z" fill="#CD9A05"/>
<path transform="translate(661,244)" d="m0 0 7 3 11 9h24l8 6-1 2-6-4-10-1-14 2-5-1-6-5-3-3-5-3-5 1-6 7h-2v2h-2l-1 3h-2l-2 4-8 8-6 7v-3l13-15 7-8 7-7z" fill="#CD9A05"/>
<path transform="translate(780,887)" d="m0 0 4 2 4 5 2 9v19l4 1-6 1v-7l-1-10-2-9-3 3-2-4-2 10-4 1-8-7-3-4v-2l6-2 4 1 1 5h2z" fill="#CD9A05"/>
<path transform="translate(1404,11)" d="m0 0h24l13 4 17 9 10 8h-3l-14-8-14-6-7-2-8-1h-14l-13 3-14 6-2-1 18-10z" fill="#CD9A05"/>
<path transform="translate(770,409)" d="m0 0 2 3 6 26 5 22 4 25 3 11 3 1h-5l-5-11-4-15-2-13-3-27-4-17z" fill="#CD9A05"/>
<path transform="translate(555,1198)" d="m0 0h10l2 2-1 6-8 11-4 2-4-1 1-10-1-3 2-6z" fill="#CD9A05"/>
<path transform="translate(746,1357)" d="m0 0h1l-2 25-3 71-2 17-2 1 2-59 3-37z" fill="#CD9A05"/>
<path transform="translate(200,1217)" d="m0 0 3 1 2 60 1 40v30h-1l-4-101v-24l1-4h-5z" fill="#CD9A05"/>
<path transform="translate(634,1373)" d="m0 0h1l3 53 4 49 2 14 1 3h6l-3 2h-5l-2-6-5-44-2-39z" fill="#CD9A05"/>
<path transform="translate(1186,739)" d="m0 0 22 2 6 1v2l3-1 7 1 9 1 19-1v1l-24 4h-14l-21-6-7-3z" fill="#CD9A05"/>
<path transform="translate(946,1321)" d="m0 0h1l4 23 4 13 4 30 2 17 2 12 1 2 1 18h-1l-6-35-8-49-4-24z" fill="#CD9A05"/>
<path transform="translate(1825,914)" d="m0 0 52 1v1l-20 1-65 1-20 1h-17v-1l40-3z" fill="#CD9A05"/>
<path transform="translate(764,1622)" d="m0 0 6 1 8 10 4 6 5 5h5l-1 6h5l-2 2-9 1-7-2-3-9 2-2-1-6-7-9h-6l-4 1 3-3z" fill="#CD9A05"/>
<path transform="translate(892,827)" d="m0 0h6l6 4 5 6h13l7-4 7 1 10 8v3l-8-5-5-4-6 1-6 5h-7l-4-1-4 1-3-9-5-2h-7l-7 6-2-1 7-7z" fill="#CD9A05"/>
<path transform="translate(1618,1112)" d="m0 0 1 3-3 6-2 9-1 16 4 11 5 8-1 2-8-11-2-2-3-9-1-9 4-9 1-6 3-3z" fill="#CD9A05"/>
<path transform="translate(728,1123)" d="m0 0 3 1-4 2-10 2-16 6-14 3h-5l-2-4 8-5 5-3 2 1-1 5 4 1 13-4 10-4z" fill="#CD9A05"/>
<path transform="translate(1170,1071)" d="m0 0 7 6 13 14 7 8 10 9 17 17v2h2l11 11-1 2-7-7-8-7-7-8-5-5-10-9-9-8-11-14-9-9z" fill="#CD9A05"/>
<path transform="translate(1453,325)" d="m0 0 1 4-17 55-11 30-2 2 2-9 7-19 8-26 7-23z" fill="#CD9A05"/>
<path transform="translate(1764 1e3)" d="m0 0 2 2 3 16 5 9 1 7-2 8h-1v-14l-2-4-4-2v-2l-4-2-3-10-2-3 7-1z" fill="#CD9A05"/>
<path transform="translate(667,1061)" d="m0 0 3 1-6 3-12 3-18 6-7 3-12 3-14 5-3-1 24-10 35-10z" fill="#CD9A05"/>
<path transform="translate(618,1191)" d="m0 0 1 3v9l7 2 1 2h-16l-6-2 1-6 11-6z" fill="#CD9A05"/>
<path transform="translate(303,1155)" d="m0 0h1l4 55 1 19 1 9 4 1-1 1h-5l-1-1-1-26-3-37z" fill="#CD9A05"/>
<path transform="translate(1233,895)" d="m0 0 5 5v2l4 2 4 1 13-4 26-5h6v1l-22 5-18 4-6 3h-4l-6-9z" fill="#CD9A05"/>
<path transform="translate(405,266)" d="m0 0 2 1-1 7-8 15-2 5h-1l-1-9 4-9 6-9z" fill="#EDB507"/>
<path transform="translate(555,1200)" d="m0 0h10l-2 4-2 2v4l-4 5-3-1-2-9z" fill="#040303"/>
<path transform="translate(860,1119)" d="m0 0h1l1 5h1v8l-5 35h-1v-10l3-19h-2l-1 4-1-2 2-10 1-10z" fill="#CD9A05"/>
<path transform="translate(1051,1810)" d="m0 0h26l-3 4-9 2h-7l-6-4z" fill="#CD9A05"/>
<path transform="translate(856,1167)" d="m0 0h1l-1 13-5 34 7-1-2 2-7 1v-9l6-35z" fill="#CD9A05"/>
<path transform="translate(323,1730)" d="m0 0 3 4 1 5v18l-2 9h-1v-11h1v-5l-3-3v-7l1-6z" fill="#CD9A05"/>
<path transform="translate(1e3 1720)" d="m0 0h1v11l-1 1h-9l-9-3v-1l13-1 3-5z" fill="#CD9A05"/>
<path transform="translate(828,891)" d="m0 0 3 1 3 4-2 6-8 16-6 19-1-4 6-18 7-15-1-6-4-1z" fill="#CD9A05"/>
<path transform="translate(1571,1551)" d="m0 0 5 5 9 10 5 3v2l9-3-1 2-8 4-3-1-5-5-6-9-5-6z" fill="#CD9A05"/>
<path transform="translate(688,1054)" d="m0 0h16v3l-2 1-16 1-1-2z" fill="#F9BF07"/>
<path transform="translate(821,897)" d="m0 0h1l1 14-8 8h-5l-5-1 4-4 5 1 6-5v-10z" fill="#CD9A05"/>
<path transform="translate(1181,1574)" d="m0 0 33 2v1l-8 1h-13l-15-2z" fill="#CD9A05"/>
<path transform="translate(528,1147)" d="m0 0h1l2 6 11 4-1 9v4l-3 1-5-1 1-2h2l2-10-8-3-2-2z" fill="#CD9A05"/>
<path transform="translate(768,1094)" d="m0 0h3v5l-2 2h-9l-1-3 1-2z" fill="#F7BE07"/>
<path transform="translate(333,217)" d="m0 0 1 3-5 12-2 2-1 4h-2l-1 5-3-1 8-16z" fill="#CF9B05"/>
<path transform="translate(231,1816)" d="m0 0 2 3 6 15 1 4 6 3-3 1-6-4-6-18z" fill="#CD9A05"/>
<path transform="translate(1539,1480)" d="m0 0 2 3 8 25-1 2-3-7-4-10-2-6z" fill="#CD9A05"/>
<path transform="translate(253,1826)" d="m0 0 6 2 6 3 7 8 2 3v5l-2-4-8-10-8-4h-2l-2 4-1-2z" fill="#CD9A05"/>
<path transform="translate(853,1157)" d="m0 0 2 1-2 19-2-1v-17z" fill="#CD9A05"/>
<path transform="translate(738,1120)" d="m0 0h8l2 4-4 2-3-3h-10l3-2z" fill="#CD9A05"/>
<path transform="translate(585,937)" d="m0 0v3l1 9 3 5-1 2-5-4-1-2v-9z" fill="#CD9A05"/>
<path transform="translate(555,1017)" d="m0 0h4l1 2 5 1 2 4h6v2h-7l-2-3-8-4-2 3-4-1z" fill="#CD9A05"/>
<path transform="translate(1329,203)" d="m0 0v3l-6 9-4 8-1-3 5-12z" fill="#CD9A05"/>
<path transform="translate(110,1175)" d="m0 0h5l2 2 2 4 4-1v3l-4 1-2 4h-3l2-2-1-8-5-2z" fill="#CD9A05"/>
<path transform="translate(400,611)" d="m0 0 2 1-18 18v-3l11-12z" fill="#DBA605"/>
<path transform="translate(133,1214)" d="m0 0h8l1 1-1 17h5v1h-6l-1-5v-12l-6-1z" fill="#CD9A05"/>
<path transform="translate(499,1037)" d="m0 0 3 3 6 16-1 3-3-6-2-5-3-8z" fill="#CD9A05"/>
<path transform="translate(737,1573)" d="m0 0 4 1 1 3v15l-1 5h-1v-18z" fill="#CD9A05"/>
<path transform="translate(864,1114)" d="m0 0h1l-1 10-3 1-1-8 2-2z" fill="#D5A105"/>
<path transform="translate(1101,721)" d="m0 0 3 2 18 1v1h-19l-7-1 4-2z" fill="#CD9A05"/>
<path transform="translate(1380,1952)" d="m0 0 4 4 1 4-5-2-2-4z" fill="#CE9B05"/>
<path transform="translate(340,846)" d="m0 0 8 2 3 2h-9l-6-1 1-2z" fill="#CD9A05"/>
<path transform="translate(281,834)" d="m0 0 4 2 6 9-1 2-4-5z" fill="#CD9A05"/>
</svg>
